<?xml version="1.0" encoding="UTF-8" standalone="no"?>
<!-- Created with Inkscape (http://www.inkscape.org/) -->

<svg
   width="29.340927mm"
   height="49.577106mm"
   viewBox="0 0 29.340927 49.577106"
   version="1.1"
   id="svg1"
   xml:space="preserve"
   inkscape:version="1.4 (1:1.4+202410161351+e7c3feb100)"
   sodipodi:docname="ref_genome_heatmap_conceptual_modified_bedbase_docs.svg"
   inkscape:export-filename="../Downloads/ref_genome_heatmap_conceptual.png"
   inkscape:export-xdpi="141.11111"
   inkscape:export-ydpi="141.11111"
   xmlns:inkscape="http://www.inkscape.org/namespaces/inkscape"
   xmlns:sodipodi="http://sodipodi.sourceforge.net/DTD/sodipodi-0.dtd"
   xmlns:xlink="http://www.w3.org/1999/xlink"
   xmlns="http://www.w3.org/2000/svg"
   xmlns:svg="http://www.w3.org/2000/svg"><sodipodi:namedview
     id="namedview1"
     pagecolor="#ffffff"
     bordercolor="#000000"
     borderopacity="0.25"
     inkscape:showpageshadow="2"
     inkscape:pageopacity="0.0"
     inkscape:pagecheckerboard="0"
     inkscape:deskcolor="#d1d1d1"
     inkscape:document-units="mm"
     inkscape:zoom="1.1717647"
     inkscape:cx="689.98494"
     inkscape:cy="287.6004"
     inkscape:window-width="2560"
     inkscape:window-height="1325"
     inkscape:window-x="0"
     inkscape:window-y="0"
     inkscape:window-maximized="1"
     inkscape:current-layer="layer1"
     inkscape:export-bgcolor="#ffffffff"><inkscape:page
       x="3.765983e-15"
       y="0"
       width="29.340927"
       height="49.577106"
       id="page2"
       margin="0"
       bleed="0" /></sodipodi:namedview><defs
     id="defs1"><linearGradient
       id="linearGradient162"
       inkscape:collect="always"><stop
         style="stop-color:#003580;stop-opacity:1;"
         offset="0"
         id="stop161" /><stop
         style="stop-color:#000000;stop-opacity:0;"
         offset="1"
         id="stop162" /></linearGradient><linearGradient
       id="linearGradient159"
       inkscape:collect="always"><stop
         style="stop-color:#000000;stop-opacity:1;"
         offset="0"
         id="stop159" /><stop
         style="stop-color:#000000;stop-opacity:0;"
         offset="1"
         id="stop160" /></linearGradient><style
       type="text/css"
       id="style6">
   
    .fil1 {fill:none}
    .fil0 {fill:black}
   
  </style><style
       type="text/css"
       id="style1">*{stroke-linejoin: round; stroke-linecap: butt}</style><style
       type="text/css"
       id="style1-6">*{stroke-linejoin: round; stroke-linecap: butt}</style><linearGradient
       inkscape:collect="always"
       xlink:href="#linearGradient159"
       id="linearGradient160"
       x1="893.3197"
       y1="555.97192"
       x2="993.91217"
       y2="555.97192"
       gradientUnits="userSpaceOnUse"
       gradientTransform="matrix(0.15221148,0,0,0.22869438,-21.323829,-34.287605)" /><linearGradient
       inkscape:collect="always"
       xlink:href="#linearGradient162"
       id="linearGradient161"
       gradientUnits="userSpaceOnUse"
       gradientTransform="matrix(0.12375936,0,0,0.22850041,19.501988,-34.149289)"
       x1="893.3197"
       y1="555.97192"
       x2="993.91217"
       y2="555.97192" /><linearGradient
       inkscape:collect="always"
       xlink:href="#linearGradient162"
       id="linearGradient166"
       gradientUnits="userSpaceOnUse"
       gradientTransform="matrix(0.12382077,0,0,0.23019904,19.439833,-30.692287)"
       x1="893.3197"
       y1="555.97192"
       x2="993.91217"
       y2="555.97192" /><linearGradient
       inkscape:collect="always"
       xlink:href="#linearGradient159"
       id="linearGradient167"
       gradientUnits="userSpaceOnUse"
       gradientTransform="matrix(0.1611818,0,0,0.28237089,-30.432131,-55.396143)"
       x1="893.3197"
       y1="555.97192"
       x2="993.91217"
       y2="555.97192" /></defs><g
     inkscape:label="Layer 1"
     inkscape:groupmode="layer"
     id="layer1"
     transform="translate(-113.16701,-81.202468)"><rect
       style="fill:#800072;fill-opacity:0.298039;fill-rule:evenodd;stroke:#808000;stroke-width:0.0902594;stroke-linecap:square;stroke-opacity:0.5;paint-order:markers stroke fill"
       id="rect10137-2-8"
       width="3.569155"
       height="2.0159583"
       x="128.00703"
       y="126.39927"
       rx="0.046026837"
       ry="0.07574895"
       inkscape:export-filename="../Downloads/refgenome_bedbase_pics/rect10137-2-8.svg"
       inkscape:export-xdpi="141.11111"
       inkscape:export-ydpi="141.11111" /><g
       id="surface1-7"
       transform="matrix(0.30577344,0,0,0.30577344,118.33692,126.69167)"><g
         style="fill:#000000;fill-opacity:1"
         id="g5088"><g
           id="use5086"
           transform="translate(-0.28398401,8.7660198)"><path
             style="stroke:none"
             d="m 3.734375,-6.125 c 0.0625,-0.234375 0.09375,-0.328125 0.28125,-0.359375 C 4.109375,-6.5 4.421875,-6.5 4.625,-6.5 c 0.703125,0 1.8125,0 1.8125,0.984375 0,0.34375 -0.15625,1.03125 -0.546875,1.421875 -0.265625,0.25 -0.78125,0.578125 -1.6875,0.578125 H 3.09375 Z m 1.4375,2.734375 c 1.015625,-0.21875 2.1875,-0.921875 2.1875,-1.921875 0,-0.859375 -0.890625,-1.5 -2.203125,-1.5 H 2.328125 c -0.203125,0 -0.296875,0 -0.296875,0.203125 C 2.03125,-6.5 2.125,-6.5 2.3125,-6.5 c 0.015625,0 0.203125,0 0.375,0.015625 0.1875,0.03125 0.265625,0.03125 0.265625,0.171875 0,0.03125 0,0.0625 -0.03125,0.1875 l -1.34375,5.34375 C 1.484375,-0.390625 1.46875,-0.3125 0.671875,-0.3125 0.5,-0.3125 0.40625,-0.3125 0.40625,-0.109375 0.40625,0 0.53125,0 0.546875,0 c 0.28125,0 0.984375,-0.03125 1.25,-0.03125 0.28125,0 1,0.03125 1.28125,0.03125 0.078125,0 0.1875,0 0.1875,-0.203125 0,-0.109375 -0.078125,-0.109375 -0.28125,-0.109375 -0.359375,0 -0.640625,0 -0.640625,-0.171875 0,-0.0625 0.015625,-0.109375 0.03125,-0.171875 l 0.65625,-2.640625 h 1.1875 c 0.90625,0 1.078125,0.5625 1.078125,0.90625 0,0.140625 -0.078125,0.453125 -0.140625,0.6875 C 5.09375,-1.421875 5,-1.0625 5,-0.859375 5,0.21875 6.203125,0.21875 6.328125,0.21875 c 0.84375,0 1.203125,-1 1.203125,-1.140625 0,-0.125 -0.109375,-0.125 -0.125,-0.125 -0.09375,0 -0.109375,0.0625 -0.125,0.140625 C 7.03125,-0.171875 6.59375,0 6.375,0 6.046875,0 5.96875,-0.21875 5.96875,-0.609375 c 0,-0.3125 0.0625,-0.8125 0.109375,-1.140625 0.015625,-0.140625 0.03125,-0.328125 0.03125,-0.46875 0,-0.765625 -0.671875,-1.078125 -0.9375,-1.171875 z m 0,0"
             id="path6492" /></g></g><g
         style="fill:#000000;fill-opacity:1"
         id="g5092"><g
           id="use5090"
           transform="translate(10.119916,8.7660198)"><path
             style="stroke:none"
             d="m 6.84375,-3.265625 c 0.15625,0 0.34375,0 0.34375,-0.1875 C 7.1875,-3.65625 7,-3.65625 6.859375,-3.65625 h -5.96875 c -0.140625,0 -0.328125,0 -0.328125,0.203125 0,0.1875 0.1875,0.1875 0.328125,0.1875 z m 0.015625,1.9375 c 0.140625,0 0.328125,0 0.328125,-0.203125 0,-0.1875 -0.1875,-0.1875 -0.34375,-0.1875 H 0.890625 c -0.140625,0 -0.328125,0 -0.328125,0.1875 0,0.203125 0.1875,0.203125 0.328125,0.203125 z m 0,0"
             id="path6488" /></g></g><g
         style="fill:#000000;fill-opacity:1"
         id="g5096"><g
           id="use5094"
           transform="translate(31.485916,4.8421898)"><path
             style="stroke:none"
             d="m 3.390625,-4.21875 c 0.046875,-0.203125 0.0625,-0.21875 0.21875,-0.234375 0.03125,0 0.265625,0 0.40625,0 0.4375,0 0.609375,0 0.78125,0.046875 0.3125,0.09375 0.328125,0.296875 0.328125,0.546875 0,0.109375 0,0.203125 -0.046875,0.5625 L 5.0625,-3.21875 c 0,0.078125 0.046875,0.109375 0.125,0.109375 0.109375,0 0.109375,-0.0625 0.125,-0.171875 L 5.5,-4.609375 c 0,-0.09375 -0.078125,-0.09375 -0.203125,-0.09375 h -4.28125 c -0.171875,0 -0.1875,0 -0.234375,0.140625 l -0.453125,1.234375 c 0,0.03125 -0.03125,0.09375 -0.03125,0.125 0,0.03125 0.015625,0.09375 0.125,0.09375 0.09375,0 0.09375,-0.03125 0.140625,-0.171875 0.40625,-1.109375 0.640625,-1.171875 1.703125,-1.171875 h 0.28125 c 0.21875,0 0.21875,0 0.21875,0.0625 0,0 0,0.046875 -0.03125,0.140625 L 1.8125,-0.578125 C 1.75,-0.328125 1.734375,-0.25 1,-0.25 c -0.25,0 -0.3125,0 -0.3125,0.15625 C 0.6875,-0.078125 0.703125,0 0.8125,0 1,0 1.21875,-0.015625 1.40625,-0.015625 1.609375,-0.015625 1.8125,-0.03125 2,-0.03125 c 0.203125,0 0.4375,0 0.640625,0.015625 C 2.828125,-0.015625 3.03125,0 3.21875,0 3.28125,0 3.375,0 3.375,-0.15625 3.375,-0.25 3.3125,-0.25 3.09375,-0.25 c -0.125,0 -0.265625,-0.015625 -0.40625,-0.015625 -0.234375,-0.015625 -0.25,-0.046875 -0.25,-0.125 0,-0.0625 0,-0.0625 0.03125,-0.171875 z m 0,0"
             id="path6496" /></g></g><g
         style="fill:#000000;fill-opacity:1"
         id="g5100"><g
           id="use5098"
           transform="translate(37.264046,4.8421898)"><path
             style="stroke:none"
             d="m 2.375,-2.15625 h 1.265625 c 1.171875,0 2.171875,-0.75 2.171875,-1.515625 0,-0.59375 -0.578125,-1.09375 -1.53125,-1.09375 h -2.4375 c -0.140625,0 -0.21875,0 -0.21875,0.15625 0,0.09375 0.078125,0.09375 0.234375,0.09375 0.109375,0 0.140625,0 0.265625,0.015625 0.140625,0.015625 0.140625,0.03125 0.140625,0.109375 0,0 0,0.046875 -0.015625,0.140625 L 1.328125,-0.578125 C 1.25,-0.296875 1.25,-0.25 0.703125,-0.25 0.578125,-0.25 0.5,-0.25 0.5,-0.09375 0.5,-0.09375 0.5,0 0.609375,0 0.8125,0 1.3125,-0.03125 1.515625,-0.03125 1.625,-0.03125 1.875,-0.03125 2,-0.015625 2.125,-0.015625 2.3125,0 2.4375,0 2.484375,0 2.578125,0 2.578125,-0.15625 2.578125,-0.25 2.5,-0.25 2.359375,-0.25 c 0,0 -0.140625,0 -0.265625,-0.015625 C 1.9375,-0.28125 1.9375,-0.296875 1.9375,-0.375 c 0,0 0,-0.046875 0.03125,-0.140625 z m 0.5,-2.109375 c 0.0625,-0.21875 0.0625,-0.25 0.359375,-0.25 h 0.8125 c 0.65625,0 1.046875,0.203125 1.046875,0.703125 0,0.203125 -0.078125,0.765625 -0.421875,1.078125 -0.25,0.21875 -0.65625,0.34375 -1.15625,0.34375 H 2.40625 Z m 0,0"
             id="path6504" /></g></g><path
         style="fill:none;stroke:#000000;stroke-width:4.05;stroke-linecap:butt;stroke-linejoin:miter;stroke-miterlimit:10;stroke-opacity:1"
         d="M 218.28125,77.304688 H 530.58594"
         transform="matrix(0.1,0,0,-0.1,0,14)"
         id="path5102" /><g
         style="fill:#000000;fill-opacity:1"
         id="g5106"><g
           id="use5104"
           transform="translate(21.828899,12.20391)"><path
             style="stroke:none"
             d="m 3.390625,-4.21875 c 0.046875,-0.203125 0.0625,-0.21875 0.21875,-0.234375 0.03125,0 0.265625,0 0.40625,0 0.4375,0 0.609375,0 0.78125,0.046875 0.3125,0.09375 0.328125,0.296875 0.328125,0.546875 0,0.109375 0,0.203125 -0.046875,0.5625 L 5.0625,-3.21875 c 0,0.078125 0.046875,0.109375 0.125,0.109375 0.109375,0 0.109375,-0.0625 0.125,-0.171875 L 5.5,-4.609375 c 0,-0.09375 -0.078125,-0.09375 -0.203125,-0.09375 h -4.28125 c -0.171875,0 -0.1875,0 -0.234375,0.140625 l -0.453125,1.234375 c 0,0.03125 -0.03125,0.09375 -0.03125,0.125 0,0.03125 0.015625,0.09375 0.125,0.09375 0.09375,0 0.09375,-0.03125 0.140625,-0.171875 0.40625,-1.109375 0.640625,-1.171875 1.703125,-1.171875 h 0.28125 c 0.21875,0 0.21875,0 0.21875,0.0625 0,0 0,0.046875 -0.03125,0.140625 L 1.8125,-0.578125 C 1.75,-0.328125 1.734375,-0.25 1,-0.25 c -0.25,0 -0.3125,0 -0.3125,0.15625 C 0.6875,-0.078125 0.703125,0 0.8125,0 1,0 1.21875,-0.015625 1.40625,-0.015625 1.609375,-0.015625 1.8125,-0.03125 2,-0.03125 c 0.203125,0 0.4375,0 0.640625,0.015625 C 2.828125,-0.015625 3.03125,0 3.21875,0 3.28125,0 3.375,0 3.375,-0.15625 3.375,-0.25 3.3125,-0.25 3.09375,-0.25 c -0.125,0 -0.265625,-0.015625 -0.40625,-0.015625 -0.234375,-0.015625 -0.25,-0.046875 -0.25,-0.125 0,-0.0625 0,-0.0625 0.03125,-0.171875 z m 0,0"
             id="path6500" /></g></g><g
         style="fill:#000000;fill-opacity:1"
         id="g5110"><g
           id="use5108"
           transform="translate(27.607027,12.20391)"><path
             style="stroke:none"
             d="m 2.375,-2.15625 h 1.265625 c 1.171875,0 2.171875,-0.75 2.171875,-1.515625 0,-0.59375 -0.578125,-1.09375 -1.53125,-1.09375 h -2.4375 c -0.140625,0 -0.21875,0 -0.21875,0.15625 0,0.09375 0.078125,0.09375 0.234375,0.09375 0.109375,0 0.140625,0 0.265625,0.015625 0.140625,0.015625 0.140625,0.03125 0.140625,0.109375 0,0 0,0.046875 -0.015625,0.140625 L 1.328125,-0.578125 C 1.25,-0.296875 1.25,-0.25 0.703125,-0.25 0.578125,-0.25 0.5,-0.25 0.5,-0.09375 0.5,-0.09375 0.5,0 0.609375,0 0.8125,0 1.3125,-0.03125 1.515625,-0.03125 1.625,-0.03125 1.875,-0.03125 2,-0.015625 2.125,-0.015625 2.3125,0 2.4375,0 2.484375,0 2.578125,0 2.578125,-0.15625 2.578125,-0.25 2.5,-0.25 2.359375,-0.25 c 0,0 -0.140625,0 -0.265625,-0.015625 C 1.9375,-0.28125 1.9375,-0.296875 1.9375,-0.375 c 0,0 0,-0.046875 0.03125,-0.140625 z m 0.5,-2.109375 c 0.0625,-0.21875 0.0625,-0.25 0.359375,-0.25 h 0.8125 c 0.65625,0 1.046875,0.203125 1.046875,0.703125 0,0.203125 -0.078125,0.765625 -0.421875,1.078125 -0.25,0.21875 -0.65625,0.34375 -1.15625,0.34375 H 2.40625 Z m 0,0"
             id="path6508" /></g></g><g
         style="fill:#000000;fill-opacity:1"
         id="g5114"><g
           id="use5112"
           transform="translate(33.753899,12.20391)"><path
             style="stroke:none"
             d="m 3.21875,-1.578125 h 2.140625 c 0.09375,0 0.25,0 0.25,-0.15625 0,-0.1875 -0.15625,-0.1875 -0.25,-0.1875 H 3.21875 V -4.0625 c 0,-0.078125 0,-0.25 -0.15625,-0.25 -0.171875,0 -0.171875,0.15625 -0.171875,0.25 v 2.140625 H 0.75 c -0.09375,0 -0.265625,0 -0.265625,0.171875 0,0.171875 0.15625,0.171875 0.265625,0.171875 H 2.890625 V 0.5625 c 0,0.09375 0,0.265625 0.15625,0.265625 0.171875,0 0.171875,-0.171875 0.171875,-0.265625 z m 0,0"
             id="path6516" /></g></g><g
         style="fill:#000000;fill-opacity:1"
         id="g5118"><g
           id="use5116"
           transform="translate(39.873821,12.20391)"><path
             style="stroke:none"
             d="M 2.390625,-2.25 H 3.125 c 0.53125,0 0.625,0.09375 0.625,0.3125 0,0.109375 0,0.125 -0.046875,0.328125 -0.015625,0.03125 -0.03125,0.0625 -0.03125,0.078125 0,0.0625 0.0625,0.109375 0.125,0.109375 0.09375,0 0.09375,-0.046875 0.140625,-0.171875 l 0.375,-1.46875 c 0,-0.03125 0.015625,-0.125 0.015625,-0.140625 0,-0.078125 -0.046875,-0.109375 -0.109375,-0.109375 -0.09375,0 -0.109375,0.046875 -0.140625,0.171875 C 3.9375,-2.59375 3.734375,-2.5 3.140625,-2.5 h -0.6875 l 0.4375,-1.75 c 0.046875,-0.203125 0.0625,-0.234375 0.34375,-0.234375 H 4.3125 c 0.921875,0 1.09375,0.21875 1.09375,0.8125 0,0.21875 -0.03125,0.375 -0.03125,0.421875 0,0.0625 0.03125,0.125 0.125,0.125 0.109375,0 0.109375,-0.0625 0.125,-0.1875 L 5.75,-4.515625 c 0.015625,-0.21875 -0.03125,-0.21875 -0.203125,-0.21875 h -3.71875 c -0.140625,0 -0.21875,0 -0.21875,0.15625 0,0.09375 0.078125,0.09375 0.21875,0.09375 0,0 0.140625,0 0.265625,0.015625 C 2.234375,-4.453125 2.25,-4.4375 2.25,-4.375 c 0,0.046875 -0.015625,0.125 -0.03125,0.15625 L 1.3125,-0.578125 C 1.234375,-0.296875 1.234375,-0.25 0.6875,-0.25 c -0.109375,0 -0.203125,0 -0.203125,0.140625 C 0.484375,-0.03125 0.53125,0 0.59375,0 0.796875,0 1.3125,-0.03125 1.515625,-0.03125 l 0.53125,0.015625 C 2.234375,-0.015625 2.421875,0 2.59375,0 2.640625,0 2.75,0 2.75,-0.15625 2.75,-0.25 2.671875,-0.25 2.515625,-0.25 c -0.015625,0 -0.1875,0 -0.375,-0.015625 C 2,-0.28125 1.9375,-0.28125 1.9375,-0.390625 c 0,-0.015625 0,-0.046875 0.015625,-0.125 z m 0,0"
             id="path6512" /></g></g><g
         style="fill:#000000;fill-opacity:1"
         id="g5122"><g
           id="use5120"
           transform="translate(45.993813,12.20391)"><path
             style="stroke:none"
             d="M 5.8125,-4 C 5.875,-4.265625 6,-4.5 6.546875,-4.515625 c 0.03125,0 0.140625,0 0.140625,-0.140625 0,-0.046875 -0.03125,-0.109375 -0.109375,-0.109375 -0.21875,0 -0.484375,0.03125 -0.71875,0.03125 -0.171875,0 -0.5625,-0.03125 -0.734375,-0.03125 -0.03125,0 -0.140625,0 -0.140625,0.15625 0,0.09375 0.09375,0.09375 0.15625,0.09375 0.328125,0.015625 0.4375,0.125 0.4375,0.296875 0,0.046875 0,0.09375 -0.03125,0.15625 l -0.75,3.046875 -1.765625,-3.625 c -0.0625,-0.125 -0.078125,-0.125 -0.25,-0.125 H 1.828125 c -0.125,0 -0.21875,0 -0.21875,0.15625 0,0.09375 0.078125,0.09375 0.234375,0.09375 0.140625,0 0.296875,0.015625 0.4375,0.046875 L 1.359375,-0.75 c -0.0625,0.265625 -0.1875,0.484375 -0.734375,0.5 -0.046875,0 -0.140625,0 -0.140625,0.140625 C 0.484375,-0.03125 0.53125,0 0.578125,0 0.8125,0 1.078125,-0.03125 1.3125,-0.03125 1.484375,-0.03125 1.875,0 2.046875,0 2.125,0 2.1875,-0.03125 2.1875,-0.140625 2.1875,-0.25 2.109375,-0.25 2.03125,-0.25 c -0.4375,-0.015625 -0.4375,-0.203125 -0.4375,-0.296875 0,-0.03125 0,-0.0625 0.015625,-0.171875 l 0.90625,-3.5625 2.03125,4.15625 C 4.59375,0 4.625,0 4.703125,0 4.8125,0 4.8125,-0.015625 4.84375,-0.140625 Z m 0,0"
             id="path6520" /></g></g></g><rect
       style="fill:#ff0707;fill-opacity:0.298039;fill-rule:evenodd;stroke:#808000;stroke-width:0.0900331;stroke-linecap:square;stroke-opacity:0.5;paint-order:markers stroke fill"
       id="rect10137"
       width="3.7611578"
       height="1.9035134"
       x="130.67375"
       y="128.83105"
       rx="0.046026837"
       ry="0.07574895" /><rect
       style="fill:#800072;fill-opacity:0.298039;fill-rule:evenodd;stroke:#808000;stroke-width:0.0877883;stroke-linecap:square;stroke-opacity:0.5;paint-order:markers stroke fill"
       id="rect10137-2-22-9"
       width="3.5716262"
       height="1.9057586"
       x="125.01396"
       y="128.82993"
       rx="0.046026837"
       ry="0.07574895" /><g
       id="g71881"
       transform="matrix(-0.80647724,0,0,-0.80647724,152.24274,135.13337)"><path
         id="rect43508-9"
         style="fill:#7f0074;fill-opacity:0.560784;fill-rule:evenodd;stroke:#6b0024;stroke-width:0;stroke-linecap:square;stroke-dasharray:none;stroke-dashoffset:0;stroke-opacity:1;paint-order:markers stroke fill"
         d="m 30.21381,23.266753 a 8.7405624,8.7405624 0 0 0 -0.36846,0.282154 8.7405624,8.7405624 0 0 0 -0.56224,0.515214 8.7405624,8.7405624 0 0 0 -0.51521,0.562239 8.7405624,8.7405624 0 0 0 -0.46405,0.605131 8.7405624,8.7405624 0 0 0 -0.4098,0.642855 8.7405624,8.7405624 0 0 0 -0.35192,0.676445 8.7405624,8.7405624 0 0 0 -0.29197,0.704349 8.7405624,8.7405624 0 0 0 -0.22892,0.727088 8.7405624,8.7405624 0 0 0 -0.16537,0.744657 8.7405624,8.7405624 0 0 0 -0.0992,0.756026 8.7405624,8.7405624 0 0 0 -0.0336,0.761711 8.7405624,8.7405624 0 0 0 0.0336,0.761711 8.7405624,8.7405624 0 0 0 0.0992,0.756026 8.7405624,8.7405624 0 0 0 0.16537,0.744657 8.7405624,8.7405624 0 0 0 0.22892,0.727088 8.7405624,8.7405624 0 0 0 0.29197,0.704349 8.7405624,8.7405624 0 0 0 0.35192,0.676445 8.7405624,8.7405624 0 0 0 0.4098,0.642855 8.7405624,8.7405624 0 0 0 0.46405,0.605131 8.7405624,8.7405624 0 0 0 0.51521,0.562239 8.7405624,8.7405624 0 0 0 0.56224,0.515214 8.7405624,8.7405624 0 0 0 0.36226,0.277503 8.7405624,8.7405624 0 0 0 0.36173,-0.277503 8.7405624,8.7405624 0 0 0 0.56224,-0.515214 8.7405624,8.7405624 0 0 0 0.51521,-0.562239 8.7405624,8.7405624 0 0 0 0.46406,-0.605131 8.7405624,8.7405624 0 0 0 0.40979,-0.642855 8.7405624,8.7405624 0 0 0 0.35192,-0.676445 8.7405624,8.7405624 0 0 0 0.29197,-0.704349 8.7405624,8.7405624 0 0 0 0.22944,-0.727088 8.7405624,8.7405624 0 0 0 0.16485,-0.744657 8.7405624,8.7405624 0 0 0 0.0997,-0.756026 8.7405624,8.7405624 0 0 0 0.0331,-0.761711 8.7405624,8.7405624 0 0 0 -0.004,-0.258899 8.7405624,8.7405624 0 0 0 -0.0119,-0.258899 8.7405624,8.7405624 0 0 0 -0.0191,-0.258382 8.7405624,8.7405624 0 0 0 -0.0269,-0.257349 8.7405624,8.7405624 0 0 0 -0.0341,-0.256831 8.7405624,8.7405624 0 0 0 -0.0424,-0.255799 8.7405624,8.7405624 0 0 0 -0.0496,-0.254248 8.7405624,8.7405624 0 0 0 -0.0568,-0.252698 8.7405624,8.7405624 0 0 0 -0.0646,-0.25063 8.7405624,8.7405624 0 0 0 -0.0718,-0.249081 8.7405624,8.7405624 0 0 0 -0.0796,-0.246496 8.7405624,8.7405624 0 0 0 -0.0863,-0.243913 8.7405624,8.7405624 0 0 0 -0.094,-0.241846 8.7405624,8.7405624 0 0 0 -0.10077,-0.238228 8.7405624,8.7405624 0 0 0 -0.108,-0.235645 8.7405624,8.7405624 0 0 0 -0.11472,-0.232027 8.7405624,8.7405624 0 0 0 -0.12196,-0.228926 8.7405624,8.7405624 0 0 0 -0.12816,-0.224793 8.7405624,8.7405624 0 0 0 -0.13487,-0.221175 8.7405624,8.7405624 0 0 0 -0.14159,-0.217041 8.7405624,8.7405624 0 0 0 -0.1478,-0.212907 8.7405624,8.7405624 0 0 0 -0.15451,-0.207739 8.7405624,8.7405624 0 0 0 -0.1602,-0.203605 8.7405624,8.7405624 0 0 0 -0.16588,-0.198955 8.7405624,8.7405624 0 0 0 -0.17208,-0.193786 8.7405624,8.7405624 0 0 0 -0.17777,-0.188102 8.7405624,8.7405624 0 0 0 -0.18293,-0.183452 8.7405624,8.7405624 0 0 0 -0.18862,-0.177767 8.7405624,8.7405624 0 0 0 -0.19379,-0.172082 8.7405624,8.7405624 0 0 0 -0.19895,-0.165882 8.7405624,8.7405624 0 0 0 -0.20309,-0.160196 8.7405624,8.7405624 0 0 0 -0.0413,-0.03049 z" /><path
         id="path43524-0"
         style="fill:#ff0a0a;fill-opacity:0.559087;fill-rule:evenodd;stroke:#6b0024;stroke-width:0;stroke-linecap:square;stroke-dasharray:none;stroke-dashoffset:0;stroke-opacity:1;paint-order:markers stroke fill"
         d="m 30.21381,23.266753 a 8.7405624,8.7405624 0 0 1 0.0413,0.03049 8.7405624,8.7405624 0 0 1 0.20309,0.160196 8.7405624,8.7405624 0 0 1 0.19895,0.165882 8.7405624,8.7405624 0 0 1 0.19379,0.172082 8.7405624,8.7405624 0 0 1 0.18862,0.177767 8.7405624,8.7405624 0 0 1 0.18293,0.183452 8.7405624,8.7405624 0 0 1 0.17777,0.188102 8.7405624,8.7405624 0 0 1 0.17208,0.193786 8.7405624,8.7405624 0 0 1 0.16588,0.198955 8.7405624,8.7405624 0 0 1 0.1602,0.203605 8.7405624,8.7405624 0 0 1 0.15451,0.207739 8.7405624,8.7405624 0 0 1 0.1478,0.212907 8.7405624,8.7405624 0 0 1 0.14159,0.217041 8.7405624,8.7405624 0 0 1 0.13487,0.221175 8.7405624,8.7405624 0 0 1 0.12816,0.224793 8.7405624,8.7405624 0 0 1 0.12196,0.228926 8.7405624,8.7405624 0 0 1 0.11472,0.232027 8.7405624,8.7405624 0 0 1 0.108,0.235645 8.7405624,8.7405624 0 0 1 0.10077,0.238228 8.7405624,8.7405624 0 0 1 0.094,0.241846 8.7405624,8.7405624 0 0 1 0.0863,0.243913 8.7405624,8.7405624 0 0 1 0.0796,0.246496 8.7405624,8.7405624 0 0 1 0.0718,0.249081 8.7405624,8.7405624 0 0 1 0.0646,0.25063 8.7405624,8.7405624 0 0 1 0.0568,0.252698 8.7405624,8.7405624 0 0 1 0.0496,0.254248 8.7405624,8.7405624 0 0 1 0.0424,0.255799 8.7405624,8.7405624 0 0 1 0.0341,0.256831 8.7405624,8.7405624 0 0 1 0.0269,0.257349 8.7405624,8.7405624 0 0 1 0.0191,0.258382 8.7405624,8.7405624 0 0 1 0.0119,0.258899 8.7405624,8.7405624 0 0 1 0.004,0.258899 8.7405624,8.7405624 0 0 1 -0.0331,0.761711 8.7405624,8.7405624 0 0 1 -0.0997,0.756026 8.7405624,8.7405624 0 0 1 -0.16485,0.744657 8.7405624,8.7405624 0 0 1 -0.22944,0.727088 8.7405624,8.7405624 0 0 1 -0.29197,0.704349 8.7405624,8.7405624 0 0 1 -0.35192,0.676445 8.7405624,8.7405624 0 0 1 -0.40979,0.642855 8.7405624,8.7405624 0 0 1 -0.46406,0.605131 8.7405624,8.7405624 0 0 1 -0.51521,0.562239 8.7405624,8.7405624 0 0 1 -0.56224,0.515214 8.7405624,8.7405624 0 0 1 -0.36173,0.277503 8.7405624,8.7405624 0 0 0 0.24287,0.186552 8.7405624,8.7405624 0 0 0 0.64286,0.409794 8.7405624,8.7405624 0 0 0 0.67644,0.351916 8.7405624,8.7405624 0 0 0 0.70435,0.291972 8.7405624,8.7405624 0 0 0 0.72761,0.229444 8.7405624,8.7405624 0 0 0 0.74414,0.164847 8.7405624,8.7405624 0 0 0 0.75602,0.09974 8.7405624,8.7405624 0 0 0 0.76172,0.03307 8.7405624,8.7405624 0 0 0 0.76171,-0.03307 8.7405624,8.7405624 0 0 0 0.75602,-0.09974 8.7405624,8.7405624 0 0 0 0.74466,-0.164847 8.7405624,8.7405624 0 0 0 0.72709,-0.229444 8.7405624,8.7405624 0 0 0 0.70435,-0.291972 8.7405624,8.7405624 0 0 0 0.67644,-0.351916 8.7405624,8.7405624 0 0 0 0.64337,-0.409794 8.7405624,8.7405624 0 0 0 0.60462,-0.464055 8.7405624,8.7405624 0 0 0 0.56224,-0.515214 8.7405624,8.7405624 0 0 0 0.51521,-0.562239 8.7405624,8.7405624 0 0 0 0.46405,-0.605131 8.7405624,8.7405624 0 0 0 0.4098,-0.642855 8.7405624,8.7405624 0 0 0 0.35243,-0.676445 8.7405624,8.7405624 0 0 0 0.29146,-0.704349 8.7405624,8.7405624 0 0 0 0.22944,-0.727088 8.7405624,8.7405624 0 0 0 0.16485,-0.744657 8.7405624,8.7405624 0 0 0 0.0997,-0.756026 8.7405624,8.7405624 0 0 0 0.0331,-0.761711 8.7405624,8.7405624 0 0 0 -0.004,-0.258899 8.7405624,8.7405624 0 0 0 -0.0114,-0.258899 8.7405624,8.7405624 0 0 0 -0.0196,-0.258382 8.7405624,8.7405624 0 0 0 -0.0264,-0.257349 8.7405624,8.7405624 0 0 0 -0.0346,-0.256831 8.7405624,8.7405624 0 0 0 -0.0419,-0.255799 8.7405624,8.7405624 0 0 0 -0.0496,-0.254248 8.7405624,8.7405624 0 0 0 -0.0574,-0.252698 8.7405624,8.7405624 0 0 0 -0.0646,-0.25063 8.7405624,8.7405624 0 0 0 -0.0718,-0.249081 8.7405624,8.7405624 0 0 0 -0.0796,-0.246496 8.7405624,8.7405624 0 0 0 -0.0863,-0.243913 8.7405624,8.7405624 0 0 0 -0.094,-0.241846 8.7405624,8.7405624 0 0 0 -0.10077,-0.238228 8.7405624,8.7405624 0 0 0 -0.108,-0.235645 8.7405624,8.7405624 0 0 0 -0.11473,-0.232027 8.7405624,8.7405624 0 0 0 -0.12195,-0.228926 8.7405624,8.7405624 0 0 0 -0.12816,-0.224793 8.7405624,8.7405624 0 0 0 -0.13487,-0.221175 8.7405624,8.7405624 0 0 0 -0.1416,-0.217041 8.7405624,8.7405624 0 0 0 -0.14779,-0.212907 8.7405624,8.7405624 0 0 0 -0.15452,-0.207739 8.7405624,8.7405624 0 0 0 -0.16019,-0.203605 8.7405624,8.7405624 0 0 0 -0.16588,-0.198955 8.7405624,8.7405624 0 0 0 -0.17209,-0.193786 8.7405624,8.7405624 0 0 0 -0.17776,-0.188102 8.7405624,8.7405624 0 0 0 -0.18294,-0.183452 8.7405624,8.7405624 0 0 0 -0.18862,-0.177767 8.7405624,8.7405624 0 0 0 -0.19378,-0.172082 8.7405624,8.7405624 0 0 0 -0.19844,-0.165882 8.7405624,8.7405624 0 0 0 -0.20361,-0.160196 8.7405624,8.7405624 0 0 0 -0.20825,-0.153996 8.7405624,8.7405624 0 0 0 -0.21291,-0.148312 8.7405624,8.7405624 0 0 0 -0.21704,-0.141076 8.7405624,8.7405624 0 0 0 -0.22066,-0.135393 8.7405624,8.7405624 0 0 0 -0.22531,-0.128157 8.7405624,8.7405624 0 0 0 -0.22841,-0.121956 8.7405624,8.7405624 0 0 0 -0.23254,-0.114722 8.7405624,8.7405624 0 0 0 -0.23513,-0.108004 8.7405624,8.7405624 0 0 0 -0.23874,-0.100769 8.7405624,8.7405624 0 0 0 -0.24133,-0.09405 8.7405624,8.7405624 0 0 0 -0.24443,-0.0863 8.7405624,8.7405624 0 0 0 -0.2465,-0.07958 8.7405624,8.7405624 0 0 0 -0.24856,-0.07183 8.7405624,8.7405624 0 0 0 -0.25115,-0.0646 8.7405624,8.7405624 0 0 0 -0.2527,-0.05684 8.7405624,8.7405624 0 0 0 -0.25425,-0.04961 8.7405624,8.7405624 0 0 0 -0.25528,-0.04237 8.7405624,8.7405624 0 0 0 -0.25683,-0.03411 8.7405624,8.7405624 0 0 0 -0.25786,-0.02687 8.7405624,8.7405624 0 0 0 -0.25839,-0.01912 8.7405624,8.7405624 0 0 0 -0.2589,-0.01188 8.7405624,8.7405624 0 0 0 -0.25889,-0.0036 8.7405624,8.7405624 0 0 0 -0.76172,0.03307 8.7405624,8.7405624 0 0 0 -0.75602,0.09974 8.7405624,8.7405624 0 0 0 -0.74414,0.164848 8.7405624,8.7405624 0 0 0 -0.72761,0.229443 8.7405624,8.7405624 0 0 0 -0.70435,0.291972 8.7405624,8.7405624 0 0 0 -0.67644,0.351916 8.7405624,8.7405624 0 0 0 -0.64286,0.409794 8.7405624,8.7405624 0 0 0 -0.23667,0.181901 z" /></g><path
       id="path43522-8"
       style="fill:#00747f;fill-opacity:0.55;fill-rule:evenodd;stroke:#6b0024;stroke-width:0;stroke-linecap:square;stroke-dasharray:none;stroke-dashoffset:0;stroke-opacity:1;paint-order:markers stroke fill"
       d="m 132.12027,117.79082 a 7.0490648,7.0490648 0 0 0 0.61429,-0.0267 7.0490648,7.0490648 0 0 0 0.60974,-0.0805 7.0490648,7.0490648 0 0 0 0.60054,-0.13294 7.0490648,7.0490648 0 0 0 0.58638,-0.18505 7.0490648,7.0490648 0 0 0 0.56802,-0.23547 7.0490648,7.0490648 0 0 0 0.54555,-0.2838 7.0490648,7.0490648 0 0 0 0.51844,-0.33049 7.0490648,7.0490648 0 0 0 0.48804,-0.37426 7.0490648,7.0490648 0 0 0 0.45343,-0.41551 7.0490648,7.0490648 0 0 0 0.41551,-0.45342 7.0490648,7.0490648 0 0 0 0.37424,-0.48803 7.0490648,7.0490648 0 0 0 0.3305,-0.51845 7.0490648,7.0490648 0 0 0 0.28381,-0.54553 7.0490648,7.0490648 0 0 0 0.23546,-0.56805 7.0490648,7.0490648 0 0 0 0.18504,-0.58637 7.0490648,7.0490648 0 0 0 0.13296,-0.60055 7.0490648,7.0490648 0 0 0 0.0804,-0.60972 7.0490648,7.0490648 0 0 0 0.0267,-0.61431 7.0490648,7.0490648 0 0 0 -0.0267,-0.6143 7.0490648,7.0490648 0 0 0 -0.0804,-0.60972 7.0490648,7.0490648 0 0 0 -0.13296,-0.60054 7.0490648,7.0490648 0 0 0 -0.18504,-0.58638 7.0490648,7.0490648 0 0 0 -0.23546,-0.56805 7.0490648,7.0490648 0 0 0 -0.28381,-0.54553 7.0490648,7.0490648 0 0 0 -0.3305,-0.51844 7.0490648,7.0490648 0 0 0 -0.37424,-0.48804 7.0490648,7.0490648 0 0 0 -0.41551,-0.45343 7.0490648,7.0490648 0 0 0 -0.45343,-0.4155 7.0490648,7.0490648 0 0 0 -0.48804,-0.37426 7.0490648,7.0490648 0 0 0 -0.51844,-0.33049 7.0490648,7.0490648 0 0 0 -0.54555,-0.28381 7.0490648,7.0490648 0 0 0 -0.56802,-0.23547 7.0490648,7.0490648 0 0 0 -0.58638,-0.18503 7.0490648,7.0490648 0 0 0 -0.60054,-0.13295 7.0490648,7.0490648 0 0 0 -0.60974,-0.0805 7.0490648,7.0490648 0 0 0 -0.61429,-0.0267 7.0490648,7.0490648 0 0 0 -0.61431,0.0267 7.0490648,7.0490648 0 0 0 -0.60973,0.0805 7.0490648,7.0490648 0 0 0 -0.60053,0.13295 7.0490648,7.0490648 0 0 0 -0.58638,0.18503 7.0490648,7.0490648 0 0 0 -0.56805,0.23547 7.0490648,7.0490648 0 0 0 -0.54553,0.28381 7.0490648,7.0490648 0 0 0 -0.51887,0.33049 7.0490648,7.0490648 0 0 0 -0.19589,0.15045 7.0490648,7.0490648 0 0 1 0.29217,0.22381 7.0490648,7.0490648 0 0 1 0.45342,0.4155 7.0490648,7.0490648 0 0 1 0.41551,0.45343 7.0490648,7.0490648 0 0 1 0.37426,0.48804 7.0490648,7.0490648 0 0 1 0.33049,0.51844 7.0490648,7.0490648 0 0 1 0.2838,0.54553 7.0490648,7.0490648 0 0 1 0.23547,0.56805 7.0490648,7.0490648 0 0 1 0.18463,0.58638 7.0490648,7.0490648 0 0 1 0.13336,0.60054 7.0490648,7.0490648 0 0 1 0.08,0.60972 7.0490648,7.0490648 0 0 1 0.0272,0.6143 7.0490648,7.0490648 0 0 1 -0.0272,0.61431 7.0490648,7.0490648 0 0 1 -0.08,0.60972 7.0490648,7.0490648 0 0 1 -0.13336,0.60055 7.0490648,7.0490648 0 0 1 -0.18463,0.58637 7.0490648,7.0490648 0 0 1 -0.23547,0.56805 7.0490648,7.0490648 0 0 1 -0.2838,0.54553 7.0490648,7.0490648 0 0 1 -0.33049,0.51845 7.0490648,7.0490648 0 0 1 -0.37426,0.48803 7.0490648,7.0490648 0 0 1 -0.41551,0.45342 7.0490648,7.0490648 0 0 1 -0.45342,0.41551 7.0490648,7.0490648 0 0 1 -0.29716,0.22755 7.0490648,7.0490648 0 0 0 0.13462,0.0996 7.0490648,7.0490648 0 0 0 0.1717,0.11961 7.0490648,7.0490648 0 0 0 0.17504,0.11378 7.0490648,7.0490648 0 0 0 0.17837,0.10922 7.0490648,7.0490648 0 0 0 0.18129,0.10334 7.0490648,7.0490648 0 0 0 0.1842,0.0984 7.0490648,7.0490648 0 0 0 0.18755,0.0925 7.0490648,7.0490648 0 0 0 0.18963,0.0871 7.0490648,7.0490648 0 0 0 0.19254,0.0813 7.0490648,7.0490648 0 0 0 0.19463,0.0758 7.0490648,7.0490648 0 0 0 0.19712,0.0696 7.0490648,7.0490648 0 0 0 0.1988,0.0642 7.0490648,7.0490648 0 0 0 0.20088,0.058 7.0490648,7.0490648 0 0 0 0.20213,0.0521 7.0490648,7.0490648 0 0 0 0.20378,0.0458 7.0490648,7.0490648 0 0 0 0.20504,0.04 7.0490648,7.0490648 0 0 0 0.20631,0.0342 7.0490648,7.0490648 0 0 0 0.20672,0.0275 7.0490648,7.0490648 0 0 0 0.20795,0.0217 7.0490648,7.0490648 0 0 0 0.20838,0.0154 7.0490648,7.0490648 0 0 0 0.20879,0.009 7.0490648,7.0490648 0 0 0 0.20881,0.003 z" /><text
       id="text2043-8-6-0-3"
       y="111.68649"
       x="132.85007"
       style="font-style:normal;font-variant:normal;font-weight:normal;font-stretch:normal;font-size:2.56057px;line-height:1;font-family:Arial;-inkscape-font-specification:'Arial Normal';font-variant-ligatures:normal;font-variant-position:normal;font-variant-caps:normal;font-variant-numeric:normal;font-variant-alternates:normal;text-indent:0;text-align:center;text-decoration:none;text-decoration-line:none;text-decoration-style:solid;text-decoration-color:#000000;letter-spacing:0px;word-spacing:0px;text-transform:none;writing-mode:lr-tb;direction:ltr;text-orientation:mixed;dominant-baseline:auto;baseline-shift:baseline;text-anchor:middle;white-space:normal;shape-padding:0;vector-effect:none;fill:#000001;fill-opacity:1;stroke:none;stroke-width:0.491568;stroke-linecap:butt;stroke-linejoin:miter;stroke-miterlimit:4;stroke-dasharray:none;stroke-dashoffset:0;stroke-opacity:1;marker:none"
       xml:space="preserve"><tspan
         y="111.68649"
         x="132.85007"
         id="tspan2041-6-7-1-56"
         sodipodi:role="line"
         style="font-style:normal;font-variant:normal;font-weight:normal;font-stretch:normal;font-size:2.56057px;font-family:Arial;-inkscape-font-specification:'Arial Normal';font-variant-ligatures:normal;font-variant-caps:normal;font-variant-numeric:normal;stroke-width:0.491568">FP</tspan></text><text
       id="text2043-8-6-0-2"
       y="111.53106"
       x="122.4688"
       style="font-style:normal;font-variant:normal;font-weight:normal;font-stretch:normal;font-size:2.56057px;line-height:1;font-family:Arial;-inkscape-font-specification:'Arial Normal';font-variant-ligatures:normal;font-variant-position:normal;font-variant-caps:normal;font-variant-numeric:normal;font-variant-alternates:normal;text-indent:0;text-align:center;text-decoration:none;text-decoration-line:none;text-decoration-style:solid;text-decoration-color:#000000;letter-spacing:0px;word-spacing:0px;text-transform:none;writing-mode:lr-tb;direction:ltr;text-orientation:mixed;dominant-baseline:auto;baseline-shift:baseline;text-anchor:middle;white-space:normal;shape-padding:0;vector-effect:none;fill:#000001;fill-opacity:1;stroke:none;stroke-width:0.491568;stroke-linecap:butt;stroke-linejoin:miter;stroke-miterlimit:4;stroke-dasharray:none;stroke-dashoffset:0;stroke-opacity:1;marker:none"
       xml:space="preserve"><tspan
         y="111.53106"
         x="122.4688"
         id="tspan2041-6-7-1-9"
         sodipodi:role="line"
         style="font-style:normal;font-variant:normal;font-weight:normal;font-stretch:normal;font-size:2.56057px;font-family:Arial;-inkscape-font-specification:'Arial Normal';font-variant-ligatures:normal;font-variant-caps:normal;font-variant-numeric:normal;stroke-width:0.491568">FN</tspan></text><text
       id="text2043-8-6-0-1"
       y="111.5743"
       x="127.73415"
       style="font-style:normal;font-variant:normal;font-weight:normal;font-stretch:normal;font-size:2.56057px;line-height:1;font-family:Arial;-inkscape-font-specification:'Arial Normal';font-variant-ligatures:normal;font-variant-position:normal;font-variant-caps:normal;font-variant-numeric:normal;font-variant-alternates:normal;text-indent:0;text-align:center;text-decoration:none;text-decoration-line:none;text-decoration-style:solid;text-decoration-color:#000000;letter-spacing:0px;word-spacing:0px;text-transform:none;writing-mode:lr-tb;direction:ltr;text-orientation:mixed;dominant-baseline:auto;baseline-shift:baseline;text-anchor:middle;white-space:normal;shape-padding:0;vector-effect:none;fill:#000001;fill-opacity:1;stroke:none;stroke-width:0.491568;stroke-linecap:butt;stroke-linejoin:miter;stroke-miterlimit:4;stroke-dasharray:none;stroke-dashoffset:0;stroke-opacity:1;marker:none"
       xml:space="preserve"><tspan
         y="111.5743"
         x="127.73415"
         id="tspan2041-6-7-1-2"
         sodipodi:role="line"
         style="font-style:normal;font-variant:normal;font-weight:normal;font-stretch:normal;font-size:2.56057px;font-family:Arial;-inkscape-font-specification:'Arial Normal';font-variant-ligatures:normal;font-variant-caps:normal;font-variant-numeric:normal;stroke-width:0.491568">TP</tspan></text><text
       id="text2043-8-6-0-9"
       y="121.42471"
       x="134.22812"
       style="font-style:normal;font-variant:normal;font-weight:normal;font-stretch:normal;font-size:2.56057px;line-height:1;font-family:Arial;-inkscape-font-specification:'Arial Normal';font-variant-ligatures:normal;font-variant-position:normal;font-variant-caps:normal;font-variant-numeric:normal;font-variant-alternates:normal;text-indent:0;text-align:center;text-decoration:none;text-decoration-line:none;text-decoration-style:solid;text-decoration-color:#000000;letter-spacing:0px;word-spacing:0px;text-transform:none;writing-mode:lr-tb;direction:ltr;text-orientation:mixed;dominant-baseline:auto;baseline-shift:baseline;text-anchor:middle;white-space:normal;shape-padding:0;vector-effect:none;fill:#000001;fill-opacity:1;stroke:none;stroke-width:0.491568;stroke-linecap:butt;stroke-linejoin:miter;stroke-miterlimit:4;stroke-dasharray:none;stroke-dashoffset:0;stroke-opacity:1;marker:none"
       xml:space="preserve"><tspan
         y="121.42471"
         x="134.22812"
         id="tspan2041-6-7-1-36"
         sodipodi:role="line"
         style="font-style:normal;font-variant:normal;font-weight:normal;font-stretch:normal;font-size:2.56057px;font-family:Arial;-inkscape-font-specification:'Arial Normal';font-variant-ligatures:normal;font-variant-caps:normal;font-variant-numeric:normal;stroke-width:0.491568">Reference</tspan></text><text
       id="text2043-8-6-0-7"
       y="121.35973"
       x="121.19586"
       style="font-style:normal;font-variant:normal;font-weight:normal;font-stretch:normal;font-size:2.56057px;line-height:1;font-family:Arial;-inkscape-font-specification:'Arial Normal';font-variant-ligatures:normal;font-variant-position:normal;font-variant-caps:normal;font-variant-numeric:normal;font-variant-alternates:normal;text-indent:0;text-align:center;text-decoration:none;text-decoration-line:none;text-decoration-style:solid;text-decoration-color:#000000;letter-spacing:0px;word-spacing:0px;text-transform:none;writing-mode:lr-tb;direction:ltr;text-orientation:mixed;dominant-baseline:auto;baseline-shift:baseline;text-anchor:middle;white-space:normal;shape-padding:0;vector-effect:none;fill:#000001;fill-opacity:1;stroke:none;stroke-width:0.491568;stroke-linecap:butt;stroke-linejoin:miter;stroke-miterlimit:4;stroke-dasharray:none;stroke-dashoffset:0;stroke-opacity:1;marker:none"
       xml:space="preserve"><tspan
         y="121.35973"
         x="121.19586"
         sodipodi:role="line"
         style="font-style:normal;font-variant:normal;font-weight:normal;font-stretch:normal;font-size:2.56057px;font-family:Arial;-inkscape-font-specification:'Arial Normal';font-variant-ligatures:normal;font-variant-caps:normal;font-variant-numeric:normal;stroke-width:0.491568"
         id="tspan69375">Query</tspan></text><text
       xml:space="preserve"
       style="font-style:normal;font-variant:normal;font-weight:normal;font-stretch:normal;font-size:2.83042px;line-height:1;font-family:Arial;-inkscape-font-specification:Arial;text-align:center;letter-spacing:0px;word-spacing:0px;text-anchor:middle;fill:#382a54;fill-opacity:1;stroke-width:0"
       x="133.70174"
       y="87.652939"
       id="text153"><tspan
         sodipodi:role="line"
         id="tspan153"
         style="font-style:italic;fill:#000000;fill-opacity:1;stroke-width:0"
         x="133.70174"
         y="87.652939">Reference</tspan></text><text
       xml:space="preserve"
       style="font-style:normal;font-variant:normal;font-weight:normal;font-stretch:normal;font-size:2.83042px;line-height:1;font-family:Arial;-inkscape-font-specification:Arial;text-align:center;letter-spacing:0px;word-spacing:0px;text-anchor:middle;fill:#000000;fill-opacity:1;stroke-width:0"
       x="116.88123"
       y="87.58963"
       id="text154"><tspan
         sodipodi:role="line"
         id="tspan154"
         style="font-style:italic;stroke-width:0"
         x="116.88123"
         y="87.58963">Query</tspan></text><text
       xml:space="preserve"
       style="font-style:normal;font-variant:normal;font-weight:normal;font-stretch:normal;font-size:2.83042px;line-height:1;font-family:Arial;-inkscape-font-specification:Arial;text-align:center;letter-spacing:0px;word-spacing:0px;text-anchor:middle;fill:#000000;fill-opacity:1;stroke-width:0;stroke-linecap:butt;stroke-linejoin:round"
       x="126.19783"
       y="83.178795"
       id="text154-2"><tspan
         sodipodi:role="line"
         id="tspan154-8"
         style="font-style:italic;stroke-width:0"
         x="126.19783"
         y="83.178795">XS</tspan></text><rect
       style="fill:#7f0074;fill-opacity:0.3;fill-rule:evenodd;stroke:#6b0024;stroke-width:0;stroke-linecap:square;stroke-linejoin:round;stroke-dasharray:none;stroke-dashoffset:0;stroke-opacity:1;paint-order:markers stroke fill"
       id="rect147-4"
       width="22.850742"
       height="2.8800569"
       x="119.00819"
       y="90.076134" /><rect
       style="fill:url(#linearGradient161);stroke:none;stroke-width:0.103438;stroke-linecap:butt;stroke-linejoin:round;stroke-dasharray:none;stroke-opacity:1"
       id="rect159-5"
       width="12.449258"
       height="0.12987441"
       x="130.05865"
       y="92.825584" /><rect
       style="fill:url(#linearGradient160);stroke:none;stroke-width:0.114762;stroke-dasharray:none;stroke-opacity:1"
       id="rect159"
       width="15.311327"
       height="0.12998466"
       x="114.64966"
       y="92.795067" /><path
       inkscape:connector-curvature="0"
       id="path50"
       style="fill:#bebebe;fill-opacity:1;fill-rule:nonzero;stroke:#000000;stroke-width:0.164304;stroke-linecap:butt;stroke-linejoin:round;stroke-miterlimit:10;stroke-dasharray:none;stroke-opacity:1"
       d="m 113.48596,90.18238 h 7.07248 v 2.657706 h -7.07248 z" /><path
       inkscape:connector-curvature="0"
       id="path152"
       style="fill:#003580;fill-opacity:1;fill-rule:nonzero;stroke:#000000;stroke-width:0.164;stroke-linecap:butt;stroke-linejoin:round;stroke-miterlimit:10;stroke-dasharray:none;stroke-opacity:1"
       d="m 130.15651,90.1487 h 7.07248 v 2.657706 h -7.07248 z" /><text
       xml:space="preserve"
       style="font-style:normal;font-variant:normal;font-weight:normal;font-stretch:normal;font-size:2.46944px;line-height:1;font-family:arial;-inkscape-font-specification:arial;text-align:center;letter-spacing:0px;word-spacing:0px;text-anchor:middle;fill:#000000;fill-opacity:1;stroke:none;stroke-width:0.116248;stroke-dasharray:none;stroke-opacity:1"
       x="117.03004"
       y="92.393867"
       id="text162"><tspan
         sodipodi:role="line"
         id="tspan162"
         style="font-size:2.46944px;stroke-width:0.116248"
         x="117.03004"
         y="92.393867">chr1</tspan></text><text
       xml:space="preserve"
       style="font-style:normal;font-variant:normal;font-weight:normal;font-stretch:normal;font-size:2.46944px;line-height:1;font-family:arial;-inkscape-font-specification:arial;text-align:center;letter-spacing:0px;word-spacing:0px;text-anchor:middle;fill:#ffffff;fill-opacity:1;stroke:none;stroke-width:0.116248;stroke-linecap:butt;stroke-linejoin:round;stroke-dasharray:none;stroke-opacity:1"
       x="133.70059"
       y="92.360184"
       id="text162-9"><tspan
         sodipodi:role="line"
         id="tspan162-9"
         style="font-size:2.46944px;fill:#ffffff;fill-opacity:1;stroke-width:0.116248"
         x="133.70059"
         y="92.360184">chr1</tspan></text><rect
       style="fill:#000000;fill-opacity:1;stroke:none;stroke-width:0.0678582;stroke-dasharray:none;stroke-opacity:1"
       id="rect163"
       width="0.71695209"
       height="0.42274716"
       x="121.39835"
       y="92.372322" /><rect
       style="fill:#000000;fill-opacity:1;stroke:none;stroke-width:0.0678582;stroke-dasharray:none;stroke-opacity:1"
       id="rect164"
       width="0.71695209"
       height="0.42274716"
       x="122.40423"
       y="92.372322" /><rect
       style="fill:#000000;fill-opacity:1;stroke:none;stroke-width:0.0678582;stroke-dasharray:none;stroke-opacity:1"
       id="use164"
       width="0.71695209"
       height="0.42274716"
       x="124.14868"
       y="92.372322" /><rect
       style="fill:#000000;fill-opacity:1;stroke:none;stroke-width:0.0678582;stroke-dasharray:none;stroke-opacity:1"
       id="rect165"
       width="0.71695209"
       height="0.42274716"
       x="137.95567"
       y="92.406914" /><rect
       style="fill:#000000;fill-opacity:1;stroke:none;stroke-width:0.0678582;stroke-dasharray:none;stroke-opacity:1"
       id="rect166"
       width="0.71695209"
       height="0.42274716"
       x="138.87926"
       y="92.40284" /><rect
       style="fill:#ff0909;fill-opacity:0.3;fill-rule:evenodd;stroke:#6b0024;stroke-width:0;stroke-linecap:square;stroke-dasharray:none;stroke-dashoffset:0;stroke-opacity:1;paint-order:markers stroke fill"
       id="rect146"
       width="28.22031"
       height="2.8036485"
       x="113.63862"
       y="98.881195" /><path
       inkscape:connector-curvature="0"
       id="path50-5"
       style="fill:#bebebe;fill-opacity:1;fill-rule:nonzero;stroke:#000000;stroke-width:0.164304;stroke-linecap:butt;stroke-linejoin:round;stroke-miterlimit:10;stroke-dasharray:none;stroke-opacity:1"
       d="m 113.6304,98.949425 h 7.07248 v 2.657705 h -7.07248 z" /><rect
       style="fill:url(#linearGradient167);stroke:none;stroke-width:0.131224;stroke-linecap:butt;stroke-linejoin:round;stroke-dasharray:none;stroke-opacity:1"
       id="rect159-9"
       width="16.213671"
       height="0.16049317"
       x="113.55473"
       y="101.51414" /><text
       xml:space="preserve"
       style="font-style:normal;font-variant:normal;font-weight:normal;font-stretch:normal;font-size:2.46944px;line-height:1;font-family:arial;-inkscape-font-specification:arial;text-align:center;letter-spacing:0px;word-spacing:0px;text-anchor:middle;fill:#000000;fill-opacity:1;stroke:none;stroke-width:0.116248;stroke-linecap:butt;stroke-linejoin:round;stroke-dasharray:none;stroke-opacity:1"
       x="117.16845"
       y="101.16091"
       id="text162-8"><tspan
         sodipodi:role="line"
         id="tspan162-7"
         style="font-size:2.46944px;stroke-width:0.116248"
         x="117.16845"
         y="101.16091">chr3</tspan></text><rect
       style="fill:#000000;fill-opacity:1;stroke:none;stroke-width:0.069471;stroke-linecap:butt;stroke-linejoin:round;stroke-dasharray:none;stroke-opacity:1"
       id="rect163-0"
       width="0.71692216"
       height="0.44310015"
       x="121.09686"
       y="101.06917" /><rect
       style="fill:#000000;fill-opacity:1;stroke:none;stroke-width:0.069471;stroke-linecap:butt;stroke-linejoin:round;stroke-dasharray:none;stroke-opacity:1"
       id="rect164-0"
       width="0.71692216"
       height="0.44310015"
       x="122.51088"
       y="101.06917" /><rect
       style="fill:#000000;fill-opacity:1;stroke:none;stroke-width:0.069471;stroke-linecap:butt;stroke-linejoin:round;stroke-dasharray:none;stroke-opacity:1"
       id="rect164-0-6"
       width="0.71692216"
       height="0.44310015"
       x="124.71275"
       y="101.07308" /><rect
       style="fill:#007580;fill-opacity:0.3;fill-rule:evenodd;stroke:#6b0024;stroke-width:0;stroke-linecap:square;stroke-dasharray:none;stroke-dashoffset:0;stroke-opacity:1;paint-order:markers stroke fill"
       id="rect145"
       width="28.381046"
       height="2.9042594"
       x="113.47788"
       y="94.482727" /><rect
       style="fill:url(#linearGradient166);stroke:none;stroke-width:0.103847;stroke-linecap:butt;stroke-linejoin:round;stroke-dasharray:none;stroke-opacity:1"
       id="rect159-5-3"
       width="12.455436"
       height="0.13083988"
       x="130.05135"
       y="97.226486" /><path
       inkscape:connector-curvature="0"
       id="path51"
       style="fill:#003580;fill-opacity:1;fill-rule:nonzero;stroke:#000000;stroke-width:0.164304;stroke-linecap:butt;stroke-linejoin:round;stroke-miterlimit:10;stroke-dasharray:none;stroke-opacity:1"
       d="m 130.11457,94.518631 h 7.07248 v 2.657703 h -7.07248 z" /><text
       xml:space="preserve"
       style="font-style:normal;font-variant:normal;font-weight:normal;font-stretch:normal;font-size:2.46944px;line-height:1;font-family:arial;-inkscape-font-specification:arial;text-align:center;letter-spacing:0px;word-spacing:0px;text-anchor:middle;fill:#ffffff;fill-opacity:1;stroke:none;stroke-width:0.116248;stroke-linecap:butt;stroke-linejoin:round;stroke-dasharray:none;stroke-opacity:1"
       x="133.66046"
       y="96.730118"
       id="text162-9-3"><tspan
         sodipodi:role="line"
         id="tspan162-9-1"
         style="font-size:2.46944px;fill:#ffffff;fill-opacity:1;stroke-width:0.116248"
         x="133.66046"
         y="96.730118">chr2</tspan></text><rect
       style="fill:#000000;fill-opacity:1;stroke:none;stroke-width:0.0681269;stroke-linecap:butt;stroke-linejoin:round;stroke-dasharray:none;stroke-opacity:1"
       id="rect165-0"
       width="0.71730787"
       height="0.42588979"
       x="137.54149"
       y="96.804413" /><rect
       style="fill:#000000;fill-opacity:1;stroke:none;stroke-width:0.0681269;stroke-linecap:butt;stroke-linejoin:round;stroke-dasharray:none;stroke-opacity:1"
       id="rect166-3"
       width="0.71730787"
       height="0.42588979"
       x="138.46556"
       y="96.800308" /><rect
       style="fill:#000000;fill-opacity:1;stroke:none;stroke-width:0.0681269;stroke-linecap:butt;stroke-linejoin:round;stroke-dasharray:none;stroke-opacity:1"
       id="rect176"
       width="0.71730787"
       height="0.42588979"
       x="139.37671"
       y="96.800598" /><rect
       style="fill:#000000;fill-opacity:1;stroke:none;stroke-width:0.0681269;stroke-linecap:butt;stroke-linejoin:round;stroke-dasharray:none;stroke-opacity:1"
       id="rect177"
       width="0.71730787"
       height="0.42588979"
       x="140.28784"
       y="96.800598" /></g></svg>
