<?xml version="1.0" encoding="UTF-8" standalone="no"?>
<!-- Created with Inkscape (http://www.inkscape.org/) -->

<svg
   width="34.535271mm"
   height="28.926874mm"
   viewBox="0 0 34.535271 28.926874"
   version="1.1"
   id="svg1"
   xml:space="preserve"
   inkscape:version="1.3.2 (1:1.3.2+202311252150+091e20ef0f)"
   sodipodi:docname="ref_genome_heatmap_conceptual_modified_bedbase_docs.svg"
   inkscape:export-filename="../Downloads/ref_genome_heatmap_conceptual.png"
   inkscape:export-xdpi="141.11111"
   inkscape:export-ydpi="141.11111"
   xmlns:inkscape="http://www.inkscape.org/namespaces/inkscape"
   xmlns:sodipodi="http://sodipodi.sourceforge.net/DTD/sodipodi-0.dtd"
   xmlns="http://www.w3.org/2000/svg"
   xmlns:svg="http://www.w3.org/2000/svg"><sodipodi:namedview
     id="namedview1"
     pagecolor="#ffffff"
     bordercolor="#000000"
     borderopacity="0.25"
     inkscape:showpageshadow="2"
     inkscape:pageopacity="0.0"
     inkscape:pagecheckerboard="0"
     inkscape:deskcolor="#d1d1d1"
     inkscape:document-units="mm"
     inkscape:zoom="1.1717647"
     inkscape:cx="689.98494"
     inkscape:cy="287.6004"
     inkscape:window-width="2560"
     inkscape:window-height="1325"
     inkscape:window-x="0"
     inkscape:window-y="0"
     inkscape:window-maximized="1"
     inkscape:current-layer="layer1"
     inkscape:export-bgcolor="#ffffffff"><inkscape:page
       x="0"
       y="2.4978095e-15"
       width="34.535271"
       height="28.926874"
       id="page2"
       margin="0"
       bleed="0" /></sodipodi:namedview><defs
     id="defs1"><style
       type="text/css"
       id="style6">
   
    .fil1 {fill:none}
    .fil0 {fill:black}
   
  </style><style
       type="text/css"
       id="style1">*{stroke-linejoin: round; stroke-linecap: butt}</style><style
       type="text/css"
       id="style1-6">*{stroke-linejoin: round; stroke-linecap: butt}</style></defs><g
     inkscape:label="Layer 1"
     inkscape:groupmode="layer"
     id="layer1"
     transform="translate(-106.07679,-133.58332)"><path
       inkscape:connector-curvature="0"
       id="path1062-47-0-28-5-2-3"
       d="m 120.2257,144.48195 h 17.02564"
       style="fill:none;stroke:#999999;stroke-width:0.0376346;stroke-linecap:butt;stroke-linejoin:miter;stroke-miterlimit:4;stroke-dasharray:none;stroke-opacity:1"
       sodipodi:nodetypes="cc"
       inkscape:export-filename="../Downloads/path1062-47-0-28-5-2-3.svg"
       inkscape:export-xdpi="439.03809"
       inkscape:export-ydpi="439.03809" /><path
       inkscape:connector-curvature="0"
       id="path1062-47-0-28-5-2-3-3"
       d="m 121.11167,153.02456 h 16.82369"
       style="fill:none;stroke:#999999;stroke-width:0.0374107;stroke-linecap:butt;stroke-linejoin:miter;stroke-miterlimit:4;stroke-dasharray:none;stroke-opacity:1"
       sodipodi:nodetypes="cc" /><rect
       style="fill:#800072;fill-opacity:0.298039;fill-rule:evenodd;stroke:#808000;stroke-width:0.0902594;stroke-linecap:square;stroke-opacity:0.5;paint-order:markers stroke fill"
       id="rect10137-2-8"
       width="3.569155"
       height="2.0159583"
       x="129.08188"
       y="158.12987"
       rx="0.046026837"
       ry="0.07574895" /><g
       id="surface1-7"
       transform="matrix(0.30577344,0,0,0.30577344,119.41176,158.42227)"><g
         style="fill:#000000;fill-opacity:1"
         id="g5088"><g
           id="use5086"
           transform="translate(-0.28398401,8.7660198)"><path
             style="stroke:none"
             d="m 3.734375,-6.125 c 0.0625,-0.234375 0.09375,-0.328125 0.28125,-0.359375 C 4.109375,-6.5 4.421875,-6.5 4.625,-6.5 c 0.703125,0 1.8125,0 1.8125,0.984375 0,0.34375 -0.15625,1.03125 -0.546875,1.421875 -0.265625,0.25 -0.78125,0.578125 -1.6875,0.578125 H 3.09375 Z m 1.4375,2.734375 c 1.015625,-0.21875 2.1875,-0.921875 2.1875,-1.921875 0,-0.859375 -0.890625,-1.5 -2.203125,-1.5 H 2.328125 c -0.203125,0 -0.296875,0 -0.296875,0.203125 C 2.03125,-6.5 2.125,-6.5 2.3125,-6.5 c 0.015625,0 0.203125,0 0.375,0.015625 0.1875,0.03125 0.265625,0.03125 0.265625,0.171875 0,0.03125 0,0.0625 -0.03125,0.1875 l -1.34375,5.34375 C 1.484375,-0.390625 1.46875,-0.3125 0.671875,-0.3125 0.5,-0.3125 0.40625,-0.3125 0.40625,-0.109375 0.40625,0 0.53125,0 0.546875,0 c 0.28125,0 0.984375,-0.03125 1.25,-0.03125 0.28125,0 1,0.03125 1.28125,0.03125 0.078125,0 0.1875,0 0.1875,-0.203125 0,-0.109375 -0.078125,-0.109375 -0.28125,-0.109375 -0.359375,0 -0.640625,0 -0.640625,-0.171875 0,-0.0625 0.015625,-0.109375 0.03125,-0.171875 l 0.65625,-2.640625 h 1.1875 c 0.90625,0 1.078125,0.5625 1.078125,0.90625 0,0.140625 -0.078125,0.453125 -0.140625,0.6875 C 5.09375,-1.421875 5,-1.0625 5,-0.859375 5,0.21875 6.203125,0.21875 6.328125,0.21875 c 0.84375,0 1.203125,-1 1.203125,-1.140625 0,-0.125 -0.109375,-0.125 -0.125,-0.125 -0.09375,0 -0.109375,0.0625 -0.125,0.140625 C 7.03125,-0.171875 6.59375,0 6.375,0 6.046875,0 5.96875,-0.21875 5.96875,-0.609375 c 0,-0.3125 0.0625,-0.8125 0.109375,-1.140625 0.015625,-0.140625 0.03125,-0.328125 0.03125,-0.46875 0,-0.765625 -0.671875,-1.078125 -0.9375,-1.171875 z m 0,0"
             id="path6492" /></g></g><g
         style="fill:#000000;fill-opacity:1"
         id="g5092"><g
           id="use5090"
           transform="translate(10.119916,8.7660198)"><path
             style="stroke:none"
             d="m 6.84375,-3.265625 c 0.15625,0 0.34375,0 0.34375,-0.1875 C 7.1875,-3.65625 7,-3.65625 6.859375,-3.65625 h -5.96875 c -0.140625,0 -0.328125,0 -0.328125,0.203125 0,0.1875 0.1875,0.1875 0.328125,0.1875 z m 0.015625,1.9375 c 0.140625,0 0.328125,0 0.328125,-0.203125 0,-0.1875 -0.1875,-0.1875 -0.34375,-0.1875 H 0.890625 c -0.140625,0 -0.328125,0 -0.328125,0.1875 0,0.203125 0.1875,0.203125 0.328125,0.203125 z m 0,0"
             id="path6488" /></g></g><g
         style="fill:#000000;fill-opacity:1"
         id="g5096"><g
           id="use5094"
           transform="translate(31.485916,4.8421898)"><path
             style="stroke:none"
             d="m 3.390625,-4.21875 c 0.046875,-0.203125 0.0625,-0.21875 0.21875,-0.234375 0.03125,0 0.265625,0 0.40625,0 0.4375,0 0.609375,0 0.78125,0.046875 0.3125,0.09375 0.328125,0.296875 0.328125,0.546875 0,0.109375 0,0.203125 -0.046875,0.5625 L 5.0625,-3.21875 c 0,0.078125 0.046875,0.109375 0.125,0.109375 0.109375,0 0.109375,-0.0625 0.125,-0.171875 L 5.5,-4.609375 c 0,-0.09375 -0.078125,-0.09375 -0.203125,-0.09375 h -4.28125 c -0.171875,0 -0.1875,0 -0.234375,0.140625 l -0.453125,1.234375 c 0,0.03125 -0.03125,0.09375 -0.03125,0.125 0,0.03125 0.015625,0.09375 0.125,0.09375 0.09375,0 0.09375,-0.03125 0.140625,-0.171875 0.40625,-1.109375 0.640625,-1.171875 1.703125,-1.171875 h 0.28125 c 0.21875,0 0.21875,0 0.21875,0.0625 0,0 0,0.046875 -0.03125,0.140625 L 1.8125,-0.578125 C 1.75,-0.328125 1.734375,-0.25 1,-0.25 c -0.25,0 -0.3125,0 -0.3125,0.15625 C 0.6875,-0.078125 0.703125,0 0.8125,0 1,0 1.21875,-0.015625 1.40625,-0.015625 1.609375,-0.015625 1.8125,-0.03125 2,-0.03125 c 0.203125,0 0.4375,0 0.640625,0.015625 C 2.828125,-0.015625 3.03125,0 3.21875,0 3.28125,0 3.375,0 3.375,-0.15625 3.375,-0.25 3.3125,-0.25 3.09375,-0.25 c -0.125,0 -0.265625,-0.015625 -0.40625,-0.015625 -0.234375,-0.015625 -0.25,-0.046875 -0.25,-0.125 0,-0.0625 0,-0.0625 0.03125,-0.171875 z m 0,0"
             id="path6496" /></g></g><g
         style="fill:#000000;fill-opacity:1"
         id="g5100"><g
           id="use5098"
           transform="translate(37.264046,4.8421898)"><path
             style="stroke:none"
             d="m 2.375,-2.15625 h 1.265625 c 1.171875,0 2.171875,-0.75 2.171875,-1.515625 0,-0.59375 -0.578125,-1.09375 -1.53125,-1.09375 h -2.4375 c -0.140625,0 -0.21875,0 -0.21875,0.15625 0,0.09375 0.078125,0.09375 0.234375,0.09375 0.109375,0 0.140625,0 0.265625,0.015625 0.140625,0.015625 0.140625,0.03125 0.140625,0.109375 0,0 0,0.046875 -0.015625,0.140625 L 1.328125,-0.578125 C 1.25,-0.296875 1.25,-0.25 0.703125,-0.25 0.578125,-0.25 0.5,-0.25 0.5,-0.09375 0.5,-0.09375 0.5,0 0.609375,0 0.8125,0 1.3125,-0.03125 1.515625,-0.03125 1.625,-0.03125 1.875,-0.03125 2,-0.015625 2.125,-0.015625 2.3125,0 2.4375,0 2.484375,0 2.578125,0 2.578125,-0.15625 2.578125,-0.25 2.5,-0.25 2.359375,-0.25 c 0,0 -0.140625,0 -0.265625,-0.015625 C 1.9375,-0.28125 1.9375,-0.296875 1.9375,-0.375 c 0,0 0,-0.046875 0.03125,-0.140625 z m 0.5,-2.109375 c 0.0625,-0.21875 0.0625,-0.25 0.359375,-0.25 h 0.8125 c 0.65625,0 1.046875,0.203125 1.046875,0.703125 0,0.203125 -0.078125,0.765625 -0.421875,1.078125 -0.25,0.21875 -0.65625,0.34375 -1.15625,0.34375 H 2.40625 Z m 0,0"
             id="path6504" /></g></g><path
         style="fill:none;stroke:#000000;stroke-width:4.05;stroke-linecap:butt;stroke-linejoin:miter;stroke-miterlimit:10;stroke-opacity:1"
         d="M 218.28125,77.304688 H 530.58594"
         transform="matrix(0.1,0,0,-0.1,0,14)"
         id="path5102" /><g
         style="fill:#000000;fill-opacity:1"
         id="g5106"><g
           id="use5104"
           transform="translate(21.828899,12.20391)"><path
             style="stroke:none"
             d="m 3.390625,-4.21875 c 0.046875,-0.203125 0.0625,-0.21875 0.21875,-0.234375 0.03125,0 0.265625,0 0.40625,0 0.4375,0 0.609375,0 0.78125,0.046875 0.3125,0.09375 0.328125,0.296875 0.328125,0.546875 0,0.109375 0,0.203125 -0.046875,0.5625 L 5.0625,-3.21875 c 0,0.078125 0.046875,0.109375 0.125,0.109375 0.109375,0 0.109375,-0.0625 0.125,-0.171875 L 5.5,-4.609375 c 0,-0.09375 -0.078125,-0.09375 -0.203125,-0.09375 h -4.28125 c -0.171875,0 -0.1875,0 -0.234375,0.140625 l -0.453125,1.234375 c 0,0.03125 -0.03125,0.09375 -0.03125,0.125 0,0.03125 0.015625,0.09375 0.125,0.09375 0.09375,0 0.09375,-0.03125 0.140625,-0.171875 0.40625,-1.109375 0.640625,-1.171875 1.703125,-1.171875 h 0.28125 c 0.21875,0 0.21875,0 0.21875,0.0625 0,0 0,0.046875 -0.03125,0.140625 L 1.8125,-0.578125 C 1.75,-0.328125 1.734375,-0.25 1,-0.25 c -0.25,0 -0.3125,0 -0.3125,0.15625 C 0.6875,-0.078125 0.703125,0 0.8125,0 1,0 1.21875,-0.015625 1.40625,-0.015625 1.609375,-0.015625 1.8125,-0.03125 2,-0.03125 c 0.203125,0 0.4375,0 0.640625,0.015625 C 2.828125,-0.015625 3.03125,0 3.21875,0 3.28125,0 3.375,0 3.375,-0.15625 3.375,-0.25 3.3125,-0.25 3.09375,-0.25 c -0.125,0 -0.265625,-0.015625 -0.40625,-0.015625 -0.234375,-0.015625 -0.25,-0.046875 -0.25,-0.125 0,-0.0625 0,-0.0625 0.03125,-0.171875 z m 0,0"
             id="path6500" /></g></g><g
         style="fill:#000000;fill-opacity:1"
         id="g5110"><g
           id="use5108"
           transform="translate(27.607027,12.20391)"><path
             style="stroke:none"
             d="m 2.375,-2.15625 h 1.265625 c 1.171875,0 2.171875,-0.75 2.171875,-1.515625 0,-0.59375 -0.578125,-1.09375 -1.53125,-1.09375 h -2.4375 c -0.140625,0 -0.21875,0 -0.21875,0.15625 0,0.09375 0.078125,0.09375 0.234375,0.09375 0.109375,0 0.140625,0 0.265625,0.015625 0.140625,0.015625 0.140625,0.03125 0.140625,0.109375 0,0 0,0.046875 -0.015625,0.140625 L 1.328125,-0.578125 C 1.25,-0.296875 1.25,-0.25 0.703125,-0.25 0.578125,-0.25 0.5,-0.25 0.5,-0.09375 0.5,-0.09375 0.5,0 0.609375,0 0.8125,0 1.3125,-0.03125 1.515625,-0.03125 1.625,-0.03125 1.875,-0.03125 2,-0.015625 2.125,-0.015625 2.3125,0 2.4375,0 2.484375,0 2.578125,0 2.578125,-0.15625 2.578125,-0.25 2.5,-0.25 2.359375,-0.25 c 0,0 -0.140625,0 -0.265625,-0.015625 C 1.9375,-0.28125 1.9375,-0.296875 1.9375,-0.375 c 0,0 0,-0.046875 0.03125,-0.140625 z m 0.5,-2.109375 c 0.0625,-0.21875 0.0625,-0.25 0.359375,-0.25 h 0.8125 c 0.65625,0 1.046875,0.203125 1.046875,0.703125 0,0.203125 -0.078125,0.765625 -0.421875,1.078125 -0.25,0.21875 -0.65625,0.34375 -1.15625,0.34375 H 2.40625 Z m 0,0"
             id="path6508" /></g></g><g
         style="fill:#000000;fill-opacity:1"
         id="g5114"><g
           id="use5112"
           transform="translate(33.753899,12.20391)"><path
             style="stroke:none"
             d="m 3.21875,-1.578125 h 2.140625 c 0.09375,0 0.25,0 0.25,-0.15625 0,-0.1875 -0.15625,-0.1875 -0.25,-0.1875 H 3.21875 V -4.0625 c 0,-0.078125 0,-0.25 -0.15625,-0.25 -0.171875,0 -0.171875,0.15625 -0.171875,0.25 v 2.140625 H 0.75 c -0.09375,0 -0.265625,0 -0.265625,0.171875 0,0.171875 0.15625,0.171875 0.265625,0.171875 H 2.890625 V 0.5625 c 0,0.09375 0,0.265625 0.15625,0.265625 0.171875,0 0.171875,-0.171875 0.171875,-0.265625 z m 0,0"
             id="path6516" /></g></g><g
         style="fill:#000000;fill-opacity:1"
         id="g5118"><g
           id="use5116"
           transform="translate(39.873821,12.20391)"><path
             style="stroke:none"
             d="M 2.390625,-2.25 H 3.125 c 0.53125,0 0.625,0.09375 0.625,0.3125 0,0.109375 0,0.125 -0.046875,0.328125 -0.015625,0.03125 -0.03125,0.0625 -0.03125,0.078125 0,0.0625 0.0625,0.109375 0.125,0.109375 0.09375,0 0.09375,-0.046875 0.140625,-0.171875 l 0.375,-1.46875 c 0,-0.03125 0.015625,-0.125 0.015625,-0.140625 0,-0.078125 -0.046875,-0.109375 -0.109375,-0.109375 -0.09375,0 -0.109375,0.046875 -0.140625,0.171875 C 3.9375,-2.59375 3.734375,-2.5 3.140625,-2.5 h -0.6875 l 0.4375,-1.75 c 0.046875,-0.203125 0.0625,-0.234375 0.34375,-0.234375 H 4.3125 c 0.921875,0 1.09375,0.21875 1.09375,0.8125 0,0.21875 -0.03125,0.375 -0.03125,0.421875 0,0.0625 0.03125,0.125 0.125,0.125 0.109375,0 0.109375,-0.0625 0.125,-0.1875 L 5.75,-4.515625 c 0.015625,-0.21875 -0.03125,-0.21875 -0.203125,-0.21875 h -3.71875 c -0.140625,0 -0.21875,0 -0.21875,0.15625 0,0.09375 0.078125,0.09375 0.21875,0.09375 0,0 0.140625,0 0.265625,0.015625 C 2.234375,-4.453125 2.25,-4.4375 2.25,-4.375 c 0,0.046875 -0.015625,0.125 -0.03125,0.15625 L 1.3125,-0.578125 C 1.234375,-0.296875 1.234375,-0.25 0.6875,-0.25 c -0.109375,0 -0.203125,0 -0.203125,0.140625 C 0.484375,-0.03125 0.53125,0 0.59375,0 0.796875,0 1.3125,-0.03125 1.515625,-0.03125 l 0.53125,0.015625 C 2.234375,-0.015625 2.421875,0 2.59375,0 2.640625,0 2.75,0 2.75,-0.15625 2.75,-0.25 2.671875,-0.25 2.515625,-0.25 c -0.015625,0 -0.1875,0 -0.375,-0.015625 C 2,-0.28125 1.9375,-0.28125 1.9375,-0.390625 c 0,-0.015625 0,-0.046875 0.015625,-0.125 z m 0,0"
             id="path6512" /></g></g><g
         style="fill:#000000;fill-opacity:1"
         id="g5122"><g
           id="use5120"
           transform="translate(45.993813,12.20391)"><path
             style="stroke:none"
             d="M 5.8125,-4 C 5.875,-4.265625 6,-4.5 6.546875,-4.515625 c 0.03125,0 0.140625,0 0.140625,-0.140625 0,-0.046875 -0.03125,-0.109375 -0.109375,-0.109375 -0.21875,0 -0.484375,0.03125 -0.71875,0.03125 -0.171875,0 -0.5625,-0.03125 -0.734375,-0.03125 -0.03125,0 -0.140625,0 -0.140625,0.15625 0,0.09375 0.09375,0.09375 0.15625,0.09375 0.328125,0.015625 0.4375,0.125 0.4375,0.296875 0,0.046875 0,0.09375 -0.03125,0.15625 l -0.75,3.046875 -1.765625,-3.625 c -0.0625,-0.125 -0.078125,-0.125 -0.25,-0.125 H 1.828125 c -0.125,0 -0.21875,0 -0.21875,0.15625 0,0.09375 0.078125,0.09375 0.234375,0.09375 0.140625,0 0.296875,0.015625 0.4375,0.046875 L 1.359375,-0.75 c -0.0625,0.265625 -0.1875,0.484375 -0.734375,0.5 -0.046875,0 -0.140625,0 -0.140625,0.140625 C 0.484375,-0.03125 0.53125,0 0.578125,0 0.8125,0 1.078125,-0.03125 1.3125,-0.03125 1.484375,-0.03125 1.875,0 2.046875,0 2.125,0 2.1875,-0.03125 2.1875,-0.140625 2.1875,-0.25 2.109375,-0.25 2.03125,-0.25 c -0.4375,-0.015625 -0.4375,-0.203125 -0.4375,-0.296875 0,-0.03125 0,-0.0625 0.015625,-0.171875 l 0.90625,-3.5625 2.03125,4.15625 C 4.59375,0 4.625,0 4.703125,0 4.8125,0 4.8125,-0.015625 4.84375,-0.140625 Z m 0,0"
             id="path6520" /></g></g></g><rect
       style="fill:#ff0707;fill-opacity:0.298039;fill-rule:evenodd;stroke:#808000;stroke-width:0.0900331;stroke-linecap:square;stroke-opacity:0.5;paint-order:markers stroke fill"
       id="rect10137"
       width="3.7611578"
       height="1.9035134"
       x="131.7486"
       y="160.56166"
       rx="0.046026837"
       ry="0.07574895" /><rect
       style="fill:#800072;fill-opacity:0.298039;fill-rule:evenodd;stroke:#808000;stroke-width:0.0877883;stroke-linecap:square;stroke-opacity:0.5;paint-order:markers stroke fill"
       id="rect10137-2-22-9"
       width="3.5716262"
       height="1.9057586"
       x="126.08881"
       y="160.56053"
       rx="0.046026837"
       ry="0.07574895" /><rect
       style="fill:#ff0909;fill-opacity:0.3;fill-rule:evenodd;stroke:#6b0024;stroke-width:0;stroke-linecap:square;stroke-linejoin:round;stroke-dasharray:none;stroke-dashoffset:0;stroke-opacity:1;paint-order:markers stroke fill"
       id="rect32797-6-4-8-8"
       width="1.6036859"
       height="8.6400375"
       x="138.86412"
       y="144.42328" /><rect
       style="fill:#7f0074;fill-opacity:0.3;fill-rule:evenodd;stroke:#6b0024;stroke-width:0;stroke-linecap:square;stroke-linejoin:round;stroke-dasharray:none;stroke-dashoffset:0;stroke-opacity:1;paint-order:markers stroke fill"
       id="rect32797-2-9"
       width="6.3972526"
       height="9.0859261"
       x="119.52824"
       y="142.19759" /><text
       xml:space="preserve"
       style="font-style:normal;font-variant:normal;font-weight:normal;font-stretch:normal;font-size:2.83042px;line-height:1;font-family:Arial;-inkscape-font-specification:Arial;text-align:center;letter-spacing:0px;word-spacing:0px;text-anchor:middle;fill:#382a54;fill-opacity:1;stroke-width:0;stroke-linecap:butt;stroke-linejoin:round"
       x="112.51917"
       y="152.54605"
       id="text153-0"><tspan
         sodipodi:role="line"
         id="tspan153-1"
         style="font-style:italic;fill:#000000;fill-opacity:1;stroke-width:0"
         x="112.51917"
         y="152.54605">Reference</tspan></text><text
       xml:space="preserve"
       style="font-style:normal;font-variant:normal;font-weight:normal;font-stretch:normal;font-size:2.83042px;line-height:1;font-family:Arial;-inkscape-font-specification:Arial;text-align:center;letter-spacing:0px;word-spacing:0px;text-anchor:middle;fill:#000000;fill-opacity:1;stroke-width:0;stroke-linecap:butt;stroke-linejoin:round"
       x="112.87106"
       y="143.69167"
       id="text154-0"><tspan
         sodipodi:role="line"
         id="tspan154-1"
         style="font-style:italic;stroke-width:0"
         x="112.87106"
         y="143.69167">Query</tspan></text><text
       xml:space="preserve"
       style="font-style:normal;font-variant:normal;font-weight:normal;font-stretch:normal;font-size:2.83042px;line-height:1;font-family:Arial;-inkscape-font-specification:Arial;text-align:center;letter-spacing:0px;word-spacing:0px;text-anchor:middle;fill:#000000;fill-opacity:1;stroke-width:0;stroke-linecap:butt;stroke-linejoin:round"
       x="129.48128"
       y="135.55963"
       id="text154-2-8"><tspan
         sodipodi:role="line"
         id="tspan154-8-3"
         style="font-style:italic;stroke-width:0"
         x="129.48128"
         y="135.55963">OOBR</tspan></text><path
       inkscape:connector-curvature="0"
       id="path152-7"
       style="fill:#003580;fill-opacity:1;fill-rule:nonzero;stroke:#000000;stroke-width:0.164;stroke-linecap:butt;stroke-linejoin:round;stroke-miterlimit:10;stroke-dasharray:none;stroke-opacity:1"
       d="m 119.55281,150.32991 h 8.28605 v 2.64478 h -8.28605 z" /><path
       inkscape:connector-curvature="0"
       id="path50-53"
       style="fill:#bebebe;fill-opacity:1;fill-rule:nonzero;stroke:#000000;stroke-width:0.164;stroke-linecap:butt;stroke-linejoin:round;stroke-miterlimit:10;stroke-dasharray:none;stroke-opacity:1"
       d="m 119.54544,141.76001 h 6.36286 v 2.65951 h -6.36286 z" /><path
       inkscape:connector-curvature="0"
       id="path50-53-8"
       style="fill:#bebebe;fill-opacity:1;fill-rule:nonzero;stroke:#000000;stroke-width:0.164304;stroke-linecap:butt;stroke-linejoin:round;stroke-miterlimit:10;stroke-dasharray:none;stroke-opacity:1"
       d="m 133.45742,141.76091 h 7.07248 v 2.65771 h -7.07248 z" /><path
       inkscape:connector-curvature="0"
       id="path53"
       style="fill:#003580;fill-opacity:1;fill-rule:nonzero;stroke:#000000;stroke-width:0.179182;stroke-linecap:butt;stroke-linejoin:round;stroke-miterlimit:10;stroke-dasharray:none;stroke-opacity:1"
       d="m 133.44828,150.3143 h 5.31726 v 2.676 h -5.31726 z" /><text
       xml:space="preserve"
       style="font-style:normal;font-variant:normal;font-weight:normal;font-stretch:normal;font-size:2.46944px;line-height:1;font-family:arial;-inkscape-font-specification:arial;text-align:center;letter-spacing:0px;word-spacing:0px;text-anchor:middle;fill:#ffffff;fill-opacity:1;stroke:none;stroke-width:0.116248;stroke-linecap:butt;stroke-linejoin:round;stroke-dasharray:none;stroke-opacity:1"
       x="122.47795"
       y="152.53102"
       id="text162-9-5"><tspan
         sodipodi:role="line"
         id="tspan162-9-0"
         style="font-size:2.46944px;fill:#ffffff;fill-opacity:1;stroke-width:0.116248"
         x="122.47795"
         y="152.53102">chr1</tspan></text><text
       xml:space="preserve"
       style="font-style:normal;font-variant:normal;font-weight:normal;font-stretch:normal;font-size:2.46944px;line-height:1;font-family:arial;-inkscape-font-specification:arial;text-align:center;letter-spacing:0px;word-spacing:0px;text-anchor:middle;fill:#ffffff;fill-opacity:1;stroke:none;stroke-width:0.116248;stroke-linecap:butt;stroke-linejoin:round;stroke-dasharray:none;stroke-opacity:1"
       x="136.27281"
       y="152.53418"
       id="text162-9-5-3"><tspan
         sodipodi:role="line"
         id="tspan162-9-0-5"
         style="font-size:2.46944px;fill:#ffffff;fill-opacity:1;stroke-width:0.116248"
         x="136.27281"
         y="152.53418">chr2</tspan></text></g><text
     xml:space="preserve"
     style="font-style:normal;font-variant:normal;font-weight:normal;font-stretch:normal;font-size:2.46944px;line-height:1;font-family:arial;-inkscape-font-specification:arial;text-align:center;letter-spacing:0px;word-spacing:0px;text-anchor:middle;fill:#000000;fill-opacity:1;stroke:none;stroke-width:0.116248;stroke-linecap:butt;stroke-linejoin:round;stroke-dasharray:none;stroke-opacity:1"
     x="16.420486"
     y="10.465652"
     id="text162-96"><tspan
       sodipodi:role="line"
       id="tspan162-2"
       style="font-size:2.46944px;stroke-width:0.116248"
       x="16.420486"
       y="10.465652">chr1</tspan></text><text
     xml:space="preserve"
     style="font-style:normal;font-variant:normal;font-weight:normal;font-stretch:normal;font-size:2.46944px;line-height:1;font-family:arial;-inkscape-font-specification:arial;text-align:center;letter-spacing:0px;word-spacing:0px;text-anchor:middle;fill:#000000;fill-opacity:1;stroke:none;stroke-width:0.116248;stroke-linecap:butt;stroke-linejoin:round;stroke-dasharray:none;stroke-opacity:1"
     x="30.240868"
     y="10.323882"
     id="text162-96-9"><tspan
       sodipodi:role="line"
       id="tspan162-2-9"
       style="font-size:2.46944px;stroke-width:0.116248"
       x="30.240868"
       y="10.323882">chr2</tspan></text></svg>
