<?xml version="1.0" encoding="UTF-8" standalone="no"?>
<!-- Created with Inkscape (http://www.inkscape.org/) -->

<svg
   width="48"
   height="56"
   viewBox="0 0 12.7 14.816665"
   version="1.1"
   id="svg1"
   xml:space="preserve"
   inkscape:version="1.3.2 (1:1.3.2+202311252150+091e20ef0f)"
   sodipodi:docname="geniml_logo.svg"
   xmlns:inkscape="http://www.inkscape.org/namespaces/inkscape"
   xmlns:sodipodi="http://sodipodi.sourceforge.net/DTD/sodipodi-0.dtd"
   xmlns="http://www.w3.org/2000/svg"
   xmlns:svg="http://www.w3.org/2000/svg"><sodipodi:namedview
     id="namedview1"
     pagecolor="#ffffff"
     bordercolor="#000000"
     borderopacity="0.25"
     inkscape:showpageshadow="2"
     inkscape:pageopacity="0.0"
     inkscape:pagecheckerboard="0"
     inkscape:deskcolor="#d1d1d1"
     inkscape:document-units="mm"
     inkscape:zoom="9.1368588"
     inkscape:cx="52.260849"
     inkscape:cy="4.4325956"
     inkscape:window-width="2488"
     inkscape:window-height="1343"
     inkscape:window-x="1272"
     inkscape:window-y="27"
     inkscape:window-maximized="1"
     inkscape:current-layer="layer1" /><defs
     id="defs1" /><g
     inkscape:label="Layer 1"
     inkscape:groupmode="layer"
     id="layer1"><path
       style="-inkscape-font-specification:cream;stroke-width:0.632509"
       d="m 31.084418,9.0693971 c 0.330591,-0.303605 0.546488,-0.742145 0.546488,-1.234659 -0.0067,-0.87708 -0.701664,-1.612478 -1.578744,-1.659705 -0.958042,-0.05397 -1.75416,0.715157 -1.75416,1.659705 0,0.917561 0.742144,1.659706 1.652958,1.666452 0.303605,0 1.005269,0.05397 1.005269,0.6004629 0,0.600462 -1.187432,0.782625 -1.875602,0.465527 -0.04723,-0.02699 -0.107948,-0.0067 -0.141682,0.03373 l -0.195657,0.276617 c -0.04048,0.05397 -0.02699,0.128189 0.02699,0.16867 1.025509,0.613956 2.806657,0.24963 2.806657,-0.944548 0,-0.4048059 -0.175416,-0.7219049 -0.485768,-0.9310539 -0.03373,-0.02699 -0.04048,-0.07421 -0.0067,-0.101202 z m -2.111739,-1.099723 c -0.08771,-0.654437 0.465527,-1.207672 1.119963,-1.126711 0.445287,0.06072 0.809613,0.4183 0.863587,0.863587 0.08096,0.654436 -0.472274,1.207671 -1.119964,1.12671 -0.452033,-0.06072 -0.809612,-0.4183 -0.863586,-0.863586 z m 6.22811,-0.39806 c 0,-0.580222 -0.566728,-1.308873 -1.322367,-1.389834 -0.931054,-0.09445 -1.75416,0.45878 -1.875602,1.389834 -0.141682,1.06599 0.634197,1.929576 1.679946,1.929576 0.425047,0 0.85684,-0.134935 1.254899,-0.526248 0.05397,-0.04723 0.05397,-0.134935 0,-0.182163 l -0.269871,-0.263124 c -0.04723,-0.04723 -0.128188,-0.04723 -0.175416,0 -0.215896,0.195657 -0.532994,0.323845 -0.796118,0.323845 -0.465528,0 -0.897321,-0.195656 -1.025509,-0.715157 -0.0067,-0.04048 0.02024,-0.07421 0.06072,-0.07421 h 2.064512 c 0.18891,0 0.391313,-0.148429 0.398059,-0.337338 0.0067,-0.08771 0.0067,-0.155176 0.0067,-0.155176 z M 33.69626,6.7485081 c 0.539741,0 0.782625,0.391313 0.883826,0.735398 0.01349,0.04048 -0.01349,0.08771 -0.06072,0.08771 h -1.733919 c -0.04723,0 -0.07422,-0.04723 -0.06072,-0.08771 0.09445,-0.377819 0.465527,-0.735398 0.971535,-0.735398 z m 4.696583,0.8366 c 0,-0.715158 -0.452034,-1.416822 -1.416822,-1.416822 -0.350832,0 -0.600462,0.128189 -0.762385,0.350832 v -0.175416 c -0.0067,-0.06072 -0.05397,-0.114695 -0.121442,-0.114695 h -0.404806 c -0.06747,0 -0.121442,0.05397 -0.121442,0.121442 l -0.0067,1.160444 0.02024,1.868855 c 0,0.06747 0.05397,0.121442 0.121442,0.121442 h 0.377819 c 0.06747,0 0.121442,-0.05397 0.121442,-0.121442 l 0.02024,-1.79464 c 0,-1.052496 1.50453,-1.052496 1.50453,0 l 0.02699,1.79464 c 0,0.06747 0.05397,0.121442 0.121442,0.121442 h 0.377819 c 0.06072,0 0.114695,-0.05397 0.114695,-0.121442 z m 1.275973,-2.13198 c 0,0.229391 -0.195656,0.4183 -0.425046,0.4183 -0.236137,0 -0.425047,-0.188909 -0.425047,-0.4183 0,-0.236137 0.18891,-0.425046 0.425047,-0.425046 0.22939,0 0.425046,0.188909 0.425046,0.425046 z m -0.22939,0.715158 h -0.391313 c -0.06747,0 -0.121442,0.05397 -0.121442,0.121442 l -0.02024,1.079483 v 0.931054 l 0.02024,1.08623 c 0,0.06072 0.05397,0.114695 0.121442,0.114695 h 0.391313 c 0.06747,0 0.114695,-0.05397 0.114695,-0.114695 l 0.02699,-1.08623 v -0.931054 l -0.02699,-1.079483 c 0,-0.06747 -0.04723,-0.121442 -0.114695,-0.121442 z m 5.654625,1.416822 c 0,-0.715158 -0.445287,-1.416822 -1.416822,-1.416822 -0.404806,0 -0.775878,0.148429 -1.045749,0.506008 -0.445287,-0.580222 -1.477543,-0.708411 -1.882349,-0.155176 v -0.175416 c -0.0067,-0.06072 -0.05397,-0.114695 -0.121442,-0.114695 h -0.404806 c -0.06747,0 -0.121442,0.05397 -0.121442,0.121442 l -0.0067,1.160444 0.02024,1.868855 c 0,0.06747 0.05397,0.121442 0.121442,0.121442 h 0.377819 c 0.06747,0 0.121442,-0.05397 0.121442,-0.121442 l 0.02024,-1.79464 c 0,-1.052496 1.50453,-1.052496 1.50453,0 l 0.02699,1.79464 c 0,0.06747 0.05397,0.121442 0.121441,0.121442 h 0.37782 c 0.06747,0 0.121441,-0.05397 0.121441,-0.121442 l 0.02024,-1.79464 c 0,-1.059243 1.504529,-1.04575 1.504529,0 l 0.02024,1.79464 c 0,0.06747 0.05397,0.121442 0.121442,0.121442 h 0.377819 c 0.06747,0 0.121442,-0.05397 0.121442,-0.121442 z M 46.1204,4.4343661 h -0.398059 c -0.06072,0 -0.114695,0.04723 -0.114695,0.114695 l -0.02024,1.079483 v 2.671721 l 0.02024,1.08623 c 0,0.06072 0.05397,0.114695 0.114695,0.114695 H 46.1204 c 0.06072,0 0.114695,-0.05397 0.114695,-0.114695 l 0.02024,-1.08623 v -2.671721 l -0.02024,-1.079483 c 0,-0.06747 -0.05397,-0.114695 -0.114695,-0.114695 z"
       id="text54"
       aria-label="geniml" /><g
       id="g146"
       transform="matrix(0.73388297,0,0,0.73388297,8.9871672,26.099255)"><path
         style="font-variation-settings:normal;opacity:1;vector-effect:none;fill:none;fill-opacity:1;stroke:#18181b;stroke-width:0.178901;stroke-linecap:butt;stroke-linejoin:miter;stroke-miterlimit:4;stroke-dasharray:none;stroke-dashoffset:0;stroke-opacity:1;-inkscape-stroke:none;paint-order:fill markers stroke;stop-color:#000000;stop-opacity:1"
         d="m 21.987507,-20.761573 -3.625616,-0.97148"
         id="path57" /><path
         style="font-variation-settings:normal;opacity:1;vector-effect:none;fill:none;fill-opacity:1;stroke:#18181b;stroke-width:0.178901;stroke-linecap:butt;stroke-linejoin:miter;stroke-miterlimit:4;stroke-dasharray:none;stroke-dashoffset:0;stroke-opacity:1;-inkscape-stroke:none;paint-order:fill markers stroke;stop-color:#000000;stop-opacity:1"
         d="M 23.779387,-23.028272 22.229763,-25.7123"
         id="path58" /><path
         style="font-variation-settings:normal;opacity:1;vector-effect:none;fill:none;fill-opacity:1;stroke:#18181b;stroke-width:0.178901;stroke-linecap:butt;stroke-linejoin:miter;stroke-miterlimit:4;stroke-dasharray:none;stroke-dashoffset:0;stroke-opacity:1;-inkscape-stroke:none;paint-order:fill markers stroke;stop-color:#000000;stop-opacity:1"
         d="m 16.567628,-30.050875 3.625616,0.97148"
         id="path56" /><path
         style="font-variation-settings:normal;opacity:1;vector-effect:none;fill:none;fill-opacity:1;stroke:#18181b;stroke-width:0.178901;stroke-linecap:butt;stroke-linejoin:miter;stroke-miterlimit:4;stroke-dasharray:none;stroke-dashoffset:0;stroke-opacity:1;-inkscape-stroke:none;paint-order:fill markers stroke;stop-color:#000000;stop-opacity:1"
         d="m 14.775748,-27.784176 1.549624,2.684028"
         id="path55" /><path
         style="fill:none;stroke:#18181b;stroke-width:0.178901;stroke-dasharray:none;paint-order:fill markers stroke"
         d="m 17.321096,-27.625986 4.139319,4.290724"
         id="path1" /><path
         fill="#00998e"
         d="m 23.781981,-29.856273 -1.500857,-0.382685 a 0.02843576,0.02764455 87.312192 0 1 -0.01762,-0.01422 l -0.0039,-0.0083 -0.05042,-0.291496 a 0.02246883,0.02257455 14.780021 0 1 0.02217,-0.02658 H 23.6019 q 0.01853,0 0.02248,0.01855 z"
         id="path2"
         style="stroke-width:0.0306422" /><path
         fill="#f3a4ff"
         d="m 22.259557,-30.261524 0.0039,0.0083 a 0.02843576,0.02764455 87.312192 0 0 0.01762,0.01422 l 1.500857,0.382684 c 0.137905,0.02442 0.26366,0.07326 0.399743,0.09521 q 0.181342,0.02937 0.348408,0.0915 a 0.0501197,0.05100403 0 0 1 0.03281,0.04791 l -0.0043,1.361344 q -3.03e-4,0.05193 -0.05103,0.05657 -0.139424,0.01206 -0.27095,-0.0476 -0.01823,-0.0084 -0.05316,0.01236 -0.0046,-0.02133 -0.0164,-0.02442 -0.734745,-0.178669 -1.46224,-0.387322 -0.0565,-0.01638 -0.03918,0.02504 c -0.04496,-0.04977 -0.218705,-0.08779 -0.292517,-0.109117 q -0.110871,-0.04791 -0.160991,-0.05966 -0.415538,-0.09985 -0.82257,-0.168777 -0.110568,9.27e-4 -0.362077,-0.04297 -0.118161,-0.0204 -0.593235,-0.04266 -0.393668,-0.07017 -0.841708,0.02813 -0.519118,0.08686 -0.975359,0.409887 -0.100543,0.07141 -0.183773,0.0915 0.01063,-0.105099 0.06227,-0.214835 c 0.156131,-0.331371 0.344763,-0.593192 0.623915,-0.860886 0.337776,-0.323953 0.723242,-0.568772 1.179787,-0.68469 q 0.713219,-0.181142 1.434335,-0.06121 c 0.121806,0.0204 0.325626,0.02906 0.485705,0.09397 q 0.02035,0.0083 0.0401,-0.01453 z"
         id="path11"
         style="fill:#00aad4;stroke-width:0.0306422" /><path
         fill="#3b78eb"
         d="m 20.434289,-29.048864 0.134867,0.157958 1.13544,1.184839 -0.403388,0.40525 -1.24145,-1.241407 -0.467177,-0.478511 q 0.44804,-0.0983 0.841708,-0.02813 z"
         id="path12"
         style="stroke-width:0.0306422" /><path
         fill="#bb62c8"
         d="m 20.434289,-29.048864 q 0.475074,0.02226 0.593235,0.04266 0.251509,0.04389 0.362077,0.04297 -0.02339,0.01978 -0.0243,0.02349 -0.0027,0.01267 0.0079,0.01917 -0.397616,-0.05162 -0.804042,0.02967 z"
         id="path13"
         style="fill:#004455;fill-opacity:1;stroke-width:0.0306422" /><path
         fill="#bb62c8"
         d="m 19.592581,-29.020735 0.467177,0.478511 q -0.207162,0.209889 -0.330486,0.505712 -0.174356,-0.176195 -0.327449,-0.332298 c -0.105707,-0.107882 -0.260319,-0.207417 -0.383644,-0.0949 -0.174052,0.158267 -0.0027,0.361665 0.106618,0.477583 q 0.256978,0.272022 0.508488,0.539097 c 0.0046,0.391958 0.0729,0.740332 0.144588,1.118689 q -0.0076,0.01329 -0.01944,0.0019 -0.182861,-0.178983 -0.617232,-0.625346 c -0.07533,-0.07759 -0.211414,-0.187942 -0.315298,-0.100153 -0.120287,0.101699 -0.01853,0.305406 0.0568,0.402468 q 0.238145,0.308497 0.506057,0.619158 l -1.029124,-0.346827 q -0.0565,-0.251002 -0.08991,-0.577737 c -0.05407,-0.527041 -0.02521,-1.073866 0.163724,-1.564432 q 0.08323,-0.02009 0.183773,-0.0915 0.456241,-0.323026 0.975359,-0.409887 z"
         id="path14"
         style="fill:#004455;stroke-width:0.0306422" /><path
         fill="#acdc48"
         d="m 21.389601,-28.963239 q 0.407032,0.06893 0.82257,0.168777 0.05012,0.01175 0.160991,0.05966 l 0.158864,0.190415 -0.333828,0.354555 q -0.364202,-0.325498 -0.72871,-0.67418 c -0.02795,-0.02689 -0.06227,-0.03895 -0.09629,-0.05657 q -0.01063,-0.0065 -0.0079,-0.01917 9.13e-4,-0.0037 0.0243,-0.02349 z"
         id="path15"
         style="stroke-width:0.0306422" /><path
         fill="#ffffff"
         d="m 21.373198,-28.920581 c 0.03402,0.01762 0.06835,0.02967 0.09629,0.05657 q 0.364507,0.348682 0.72871,0.67418 0.04405,0.03678 0.0811,0.07573 c 0.165243,0.174032 0.355698,0.331681 0.52975,0.497676 q 0.05832,0.05564 0.07837,0.09861 c 0.05711,0.37712 0.0647,0.751768 0.08657,1.055628 q -0.03493,-6.16e-4 -0.06652,-0.03308 -0.578655,-0.59381 -1.162777,-1.181748 -0.01701,-0.01731 -0.0401,-0.02906 l -1.13544,-1.184839 q 0.406426,-0.0813 0.804042,-0.02967 z"
         id="path16"
         style="stroke-width:0.0306422" /><path
         fill="#ffffff"
         d="m 22.373162,-28.734803 c 0.07381,0.02133 0.247561,0.05935 0.292517,0.109118 l 0.0565,0.19567 q -0.03281,0.01917 -0.06075,-0.01113 -0.05954,-0.06522 -0.1294,-0.103244 z"
         id="path17"
         style="stroke-width:0.0306422" /><path
         fill="#00998e"
         d="m 24.183547,-28.238982 q 0.07989,0.390103 0.101758,0.706019 -0.191062,0.424107 -0.376961,0.666144 -0.238448,0.310042 -0.611764,0.605247 -0.04556,0.03617 -0.102366,0.03895 l -0.220223,-0.239564 c -0.02187,-0.303861 -0.02946,-0.678508 -0.08657,-1.055629 q 0.05133,0.04019 0.09811,0.07017 c 0.145499,0.09335 0.366633,0.379593 0.554658,0.37032 0.176178,-0.0087 0.224475,-0.161358 0.141854,-0.300151 q -0.05376,-0.08964 -0.126059,-0.164449 -0.388504,-0.400923 -0.780349,-0.799063 c -0.02582,-0.02597 -0.03888,-0.05719 -0.05346,-0.08902 l -0.0565,-0.19567 q -0.01731,-0.04142 0.03918,-0.02504 0.727495,0.208652 1.462281,0.387321 0.01185,0.0031 0.0164,0.02442 z"
         id="path18"
         style="stroke-width:0.0306422" /><path
         fill="#4bcfff"
         d="m 22.532026,-28.544388 q 0.06986,0.03802 0.1294,0.103244 0.02795,0.03029 0.06075,0.01113 c 0.01458,0.03184 0.02764,0.06306 0.05346,0.08903 q 0.391845,0.398141 0.780349,0.799063 0.07229,0.07481 0.126059,0.16445 c 0.08262,0.138793 0.03432,0.291496 -0.141854,0.300151 -0.188025,0.0093 -0.409159,-0.276967 -0.554658,-0.37032 q -0.04678,-0.02998 -0.09811,-0.07017 -0.02005,-0.04297 -0.07837,-0.09861 c -0.174052,-0.165995 -0.364507,-0.323644 -0.52975,-0.497676 q -0.03706,-0.03895 -0.0811,-0.07573 z"
         id="path19"
         style="stroke-width:0.0306422" /><path
         fill="#ffffff"
         d="m 20.059758,-28.542224 1.24145,1.241407 q 0.0322,0.051 0.04313,0.06213 0.636672,0.643269 1.270306,1.289011 0.0164,0.017 0.01063,0.0544 -0.316209,0.136629 -0.622395,0.173723 l -1.110834,-1.127962 a 0.01069979,0.01105708 29.512881 0 0 -0.01549,0 l -0.308616,0.310661 q -0.0094,0.0099 -0.02308,0.01267 l -0.01063,0.0022 q -0.0061,-0.01638 0.0082,-0.02998 0.147625,-0.141884 0.286745,-0.292114 c 0.007,-0.0074 0.01428,-0.0087 0.02096,-0.01329 a 0.02001943,0.01951132 71.942248 0 0 0.003,-0.03091 l -1.123898,-1.146198 q 0.123324,-0.295823 0.330486,-0.505712 z"
         id="path20"
         style="stroke-width:0.0306422" /><path
         fill="#acdc48"
         d="m 19.729272,-28.036512 1.123896,1.1462 a 0.02001943,0.01951132 71.942248 0 1 -0.003,0.03091 c -0.0067,0.0046 -0.01397,0.0059 -0.02096,0.01329 q -0.13912,0.150229 -0.286746,0.292114 -0.01428,0.0136 -0.0082,0.02998 l -0.01367,0.0037 c -0.153092,-0.07419 -0.294946,-0.287786 -0.417056,-0.411433 -0.0893,-0.09057 -0.17557,-0.199688 -0.253028,-0.282222 q -0.107529,-0.114372 -0.217185,-0.233073 -0.25151,-0.267075 -0.508488,-0.539097 c -0.109352,-0.115918 -0.28067,-0.319316 -0.106618,-0.477583 0.123325,-0.112518 0.277937,-0.01298 0.383644,0.0949 q 0.153093,0.156103 0.327449,0.332298 z"
         id="path21"
         style="stroke-width:0.0306422" /><path
         fill="#f3a4ff"
         d="m 21.704596,-27.706067 q 0.02309,0.01175 0.0401,0.02906 0.584122,0.587937 1.162776,1.181748 0.03159,0.03246 0.06652,0.03308 l 0.220223,0.239564 q -0.007,0.03586 -0.03584,0.05379 -0.257889,0.159195 -0.533092,0.273567 0.0058,-0.0374 -0.01063,-0.0544 -0.633635,-0.645742 -1.270307,-1.289011 -0.01093,-0.01113 -0.04313,-0.06213 z"
         id="path22"
         style="stroke-width:0.0306422" /><path
         fill="#00c8b4"
         d="m 24.285305,-27.532963 q 0.02977,0.08006 0.03463,0.145903 0.09872,1.326105 -0.781564,2.284052 -0.469302,0.510659 -1.025176,0.719003 -0.09416,0.03524 -0.356305,0.09366 c -0.48267,0.107572 -1.046745,0.111281 -1.533058,0.02627 q -0.16099,-0.02844 -0.320766,-0.05348 l -0.647607,-0.151158 -0.81923,-0.227509 q -0.02005,-0.02318 -0.04981,-0.03277 -0.506058,-0.202161 -1.044616,-0.297987 c -0.305579,-0.06522 -0.63728,-0.140029 -0.94863,-0.1187 q -0.09143,-0.02133 -0.295251,-0.01175 -0.317121,0.01546 -0.511221,0.04853 -0.05802,0.02751 -0.222045,0.0507 -0.189847,0.02658 -0.402477,0.174341 -0.0064,-0.0062 -0.03918,-0.0071 -0.01914,-3.09e-4 -0.03767,0.0087 -0.480541,0.234618 -0.771236,0.634304 -0.0565,0.07728 -0.113908,0.06151 3.04e-4,-0.09984 0.02703,-0.195051 c 0.174053,-0.612053 0.519424,-1.251612 1.011508,-1.655317 0.257281,-0.211125 0.558303,-0.403395 0.888486,-0.467382 0.184683,-0.03586 0.370885,-0.07759 0.554658,-0.0847 q 0.313172,-0.01206 0.546153,0.02071 0.366329,0.05131 0.931619,0.191034 l 1.029124,0.346827 0.565594,0.146211 q 0.121502,0.04575 0.253332,0.04513 0.07685,0.04668 0.174052,0.06831 0.416449,0.09243 0.871171,0.08253 0.354787,0.02844 0.749973,-0.03338 0.306186,-0.03709 0.622396,-0.173722 0.275203,-0.114373 0.533092,-0.273568 0.02886,-0.01793 0.03584,-0.05379 0.0568,-0.0028 0.102366,-0.03895 0.373316,-0.295204 0.611764,-0.605247 0.185899,-0.242037 0.376961,-0.666144 z"
         id="path23"
         style="stroke-width:0.0306422" /><path
         fill="#ffffff"
         d="m 19.633285,-27.447029 q 0.109656,0.118701 0.217185,0.233073 c 0.07746,0.08253 0.163725,0.191652 0.253028,0.282222 0.12211,0.123647 0.263964,0.337245 0.417057,0.411433 0.0094,0.02906 0.01397,0.05348 0.03554,0.07666 q 0.34203,0.365684 0.696816,0.755478 -0.454722,0.0099 -0.871171,-0.08253 -0.0972,-0.02164 -0.174052,-0.06831 -0.06683,-0.109427 -0.161598,-0.181141 c -0.07837,-0.08717 -0.225083,-0.203398 -0.268216,-0.308188 -0.07169,-0.378357 -0.140032,-0.726731 -0.144588,-1.118689 z"
         id="path24"
         style="stroke-width:0.0306422" /><path
         fill="#4bcfff"
         d="m 19.777873,-26.32834 c 0.04313,0.10479 0.189847,0.221017 0.268216,0.308188 -0.01397,0.07079 -0.101758,0.04915 -0.09173,0.13601 l -0.565594,-0.146211 q -0.267912,-0.310661 -0.506057,-0.619158 c -0.07533,-0.09706 -0.177089,-0.30077 -0.0568,-0.402468 0.103884,-0.08779 0.239967,0.02257 0.315298,0.100153 q 0.434371,0.446363 0.617232,0.62534 0.01185,0.01144 0.01944,-0.0019 z"
         id="path25"
         style="stroke-width:0.0306422" /><path
         fill="#4bcfff"
         d="m 22.002883,-25.721547 q -0.395186,0.06182 -0.749973,0.03338 -0.354786,-0.389794 -0.696815,-0.755477 c -0.02157,-0.02318 -0.02612,-0.0476 -0.03554,-0.07666 l 0.01367,-0.0037 0.01063,-0.0022 q 0.01367,-0.0028 0.02308,-0.01267 l 0.308616,-0.31066 a 0.01069979,0.01105708 29.512881 0 1 0.01549,0 z"
         id="path26"
         style="stroke-width:0.0306422" /><path
         fill="#acdc48"
         d="m 20.046089,-26.020152 q 0.09477,0.07171 0.161598,0.181141 -0.13183,6.17e-4 -0.253332,-0.04513 c -0.01002,-0.08686 0.07776,-0.06522 0.09173,-0.13601 z"
         id="path27"
         style="stroke-width:0.0306422" /><path
         fill="#ffffff"
         d="m 16.793168,-25.145665 1.272737,1.150527 0.957438,0.88747 q -0.02643,0.455327 -0.258193,0.823792 l -1.183128,-1.202458 -1.595326,-1.622547 q 0.1941,-0.03308 0.511221,-0.04853 0.20382,-0.0096 0.295251,0.01175 z"
         id="path28"
         style="stroke-width:0.0306422" /><path
         fill="#f3a4ff"
         d="m 17.741798,-25.026965 0.68588,0.667998 -0.361773,0.363829 -1.272737,-1.150527 c 0.31135,-0.02133 0.643051,0.05348 0.94863,0.1187 z"
         id="path29"
         style="stroke-width:0.0306422" /><path
         fill="#4bcfff"
         d="m 15.986696,-25.108881 1.595326,1.622547 -0.42374,0.421324 q -0.588678,-0.595047 -1.171282,-1.189476 -0.0027,-0.0028 -0.08353,-0.0949 -0.05133,-0.05842 -0.115123,-0.100154 l -0.42617,-0.434307 q 0.21263,-0.147757 0.402477,-0.174341 0.164028,-0.02318 0.222045,-0.0507 z"
         id="path30"
         style="stroke-width:0.0306422" /><path
         fill="#ffffff"
         d="m 17.741798,-25.026965 q 0.538558,0.09583 1.044616,0.297987 -0.0049,0.06121 0.01002,0.123028 0.09781,0.403396 0.184075,0.789481 l -0.552831,-0.542498 z"
         id="path31"
         style="stroke-width:0.0306422" /><path
         fill="#00998e"
         d="m 15.362174,-24.883845 0.42617,0.434307 q -0.08171,0.462128 -0.04313,0.951457 -0.0887,-0.06955 -0.164332,-0.145902 c -0.133349,-0.134465 -0.243916,-0.230291 -0.36876,-0.344664 -0.09629,-0.0881 -0.26123,-0.181141 -0.375138,-0.07295 -0.129704,0.12241 0.0073,0.326735 0.105403,0.424725 q 0.394882,0.393503 0.782778,0.795353 0.03949,0.0408 0.07047,0.08037 0.04891,0.103554 0.05468,0.141266 0.04982,0.339409 0.148537,0.665525 -0.07351,0.008 -0.131223,-0.02658 -0.293732,-0.353628 -0.593843,-0.6952 c -0.09933,-0.113445 -0.290086,-0.214217 -0.402476,-0.07635 -0.128185,0.15703 0.003,0.301387 0.09052,0.422251 q 0.04526,0.06182 0.07989,0.140338 -0.274291,-0.07481 -0.520941,-0.115918 -0.01245,-0.0019 -0.0325,-0.02257 c -0.137905,-0.591338 -0.195619,-1.252226 -0.08809,-1.858093 q 0.05741,0.01577 0.113908,-0.06151 0.290695,-0.399686 0.771236,-0.634304 0.01853,-0.009 0.03767,-0.0087 0.03281,9.27e-4 0.03918,0.0071 z"
         id="path32"
         style="stroke-width:0.0306422" /><path
         fill="#bb62c8"
         d="m 18.786414,-24.728978 q 0.02977,0.0096 0.04982,0.03277 0.296465,0.297678 0.59445,0.595047 c 0.07351,0.07326 0.189847,0.130138 0.28553,0.07264 0.209895,-0.125809 -0.02217,-0.323334 -0.06075,-0.44018 l 0.647607,0.151158 c 0.09173,0.421015 0.13912,0.84914 0.07715,1.271391 q -0.05893,0.103554 -0.114516,0.208653 c -0.266697,0.503548 -0.696816,0.760733 -1.231426,0.910344 q 0.02916,-0.04359 -0.01093,-0.08933 -0.13183,-0.150848 -0.258193,-0.267385 0.231767,-0.368465 0.258193,-0.823792 0.109352,0.09057 0.367241,0.337863 c 0.08414,0.08068 0.219008,0.08903 0.309831,0.01391 0.125755,-0.103863 0.05468,-0.284077 -0.0407,-0.395977 q -0.149751,-0.175886 -0.679197,-0.664597 -0.08627,-0.386085 -0.184076,-0.789481 -0.01488,-0.06182 -0.01002,-0.123028 z"
         id="path33"
         style="fill:#004455;stroke-width:0.0306422" /><path
         fill="#4bcfff"
         d="m 18.836229,-24.696212 0.81923,0.227509 c 0.03858,0.116846 0.270646,0.314371 0.06075,0.440181 -0.09568,0.05749 -0.212021,6.16e-4 -0.285531,-0.07264 q -0.297984,-0.297369 -0.59445,-0.595047 z"
         id="path34"
         style="stroke-width:0.0306422" /><path
         fill="#ffffff"
         d="m 17.158282,-23.06501 1.180092,1.199367 q -0.1051,0.01236 -0.155827,0.0677 -0.293732,0.07913 -0.598702,0.05348 l -0.903067,-0.855321 -0.935567,-0.89829 q -0.03858,-0.489329 0.04313,-0.951457 0.06379,0.04173 0.115123,0.100154 0.0808,0.09212 0.08353,0.0949 0.582604,0.594429 1.171282,1.189475 z"
         id="path35"
         style="stroke-width:0.0306422" /><path
         fill="#3b78eb"
         d="m 18.427678,-24.358967 0.552836,0.542498 q 0.529446,0.488711 0.679197,0.664597 c 0.09538,0.1119 0.166459,0.292114 0.0407,0.395977 -0.09082,0.07512 -0.22569,0.06677 -0.309831,-0.01391 q -0.257889,-0.247292 -0.367241,-0.337863 l -0.957438,-0.88747 z"
         id="path36"
         style="stroke-width:0.0306422" /><path
         fill="#acdc48"
         d="m 15.745211,-23.498081 0.935567,0.89829 -0.35023,0.361973 -0.534914,-0.523332 q -0.03098,-0.03957 -0.07047,-0.08037 -0.387896,-0.40185 -0.782778,-0.795353 c -0.09811,-0.09799 -0.235107,-0.302315 -0.105403,-0.424725 0.113908,-0.10819 0.278847,-0.01515 0.375138,0.07295 0.124844,0.114373 0.235411,0.210199 0.36876,0.344664 q 0.07564,0.07635 0.164332,0.145902 z"
         id="path37"
         style="stroke-width:0.0306422" /><path
         fill="#acdc48"
         d="m 17.582022,-23.486334 1.183128,1.202458 q 0.126363,0.116537 0.258193,0.267385 0.0401,0.04575 0.01093,0.08933 -0.317424,0.120865 -0.628167,0.121483 -0.07169,-0.0476 -0.06774,-0.05997 l -1.180092,-1.199367 z"
         id="path38"
         style="stroke-width:0.0306422" /><path
         fill="#f3a4ff"
         d="m 20.38022,-23.046154 c 0.05498,0.476656 -0.167066,1.102305 -0.406729,1.471389 -0.369063,0.569081 -1.006039,1.075721 -1.692831,1.230897 -0.396401,0.08964 -0.789157,0.08563 -1.189204,0.07079 -0.215363,-0.008 -0.413108,-0.04791 -0.620269,-0.09057 q -0.02855,-0.0059 -0.06986,0.009 -0.01701,-0.0071 -0.03736,-0.01175 -0.722332,-0.164759 -1.426741,-0.396595 -0.02521,-0.0083 -0.06561,-0.009 -0.03038,-0.03091 -0.05741,-0.03709 -0.309831,-0.06986 -0.626345,-0.136011 -0.05377,-0.01144 -0.05346,-0.06708 l 0.0039,-1.329814 q 3.04e-4,-0.04235 0.0407,-0.03246 0.132134,0.03246 0.272166,0.05842 0.02096,0.004 0.03706,-0.01236 0.02005,0.02071 0.0325,0.02257 0.246649,0.04111 0.520941,0.115918 0.303452,0.07172 0.629686,0.170014 c 0.0644,0.01947 0.129096,0.02689 0.196226,0.03895 q 0.05771,0.03462 0.131222,0.02658 0.04222,0.03833 0.08779,0.04451 0.309224,0.04111 0.615106,0.103554 0.01428,0.0028 0.02552,-0.0068 0.0076,-0.0065 0.01671,-0.0096 0.409766,0.08532 0.839885,0.07821 0.30497,0.02566 0.598702,-0.05348 l 0.223563,-0.0077 q 0.310743,-6.17e-4 0.628167,-0.121483 c 0.53461,-0.149611 0.964729,-0.406796 1.231426,-0.910344 q 0.05559,-0.105099 0.114516,-0.208653 z"
         id="path39"
         style="fill:#00aad4;stroke-width:0.0306422" /><path
         fill="#4bcfff"
         d="m 15.867624,-21.980943 c -0.06713,-0.01206 -0.13183,-0.01947 -0.196226,-0.03895 q -0.326234,-0.0983 -0.629686,-0.170014 -0.03463,-0.07851 -0.07989,-0.140338 c -0.08748,-0.120864 -0.218704,-0.265221 -0.09052,-0.422251 0.11239,-0.137866 0.303148,-0.03709 0.402476,0.07635 q 0.300111,0.341572 0.593843,0.6952 z"
         id="path40"
         style="stroke-width:0.0306422" /><path
         fill="#ffffff"
         d="m 15.795634,-22.76115 0.534914,0.523332 q 9.11e-4,0.01978 0.02126,0.04111 c 0.105403,0.111591 0.235107,0.248839 0.392149,0.37403 q -0.0091,0.0031 -0.01671,0.0096 -0.01124,0.0096 -0.02552,0.0068 -0.305882,-0.06244 -0.615105,-0.10355 -0.04556,-0.0062 -0.08779,-0.04451 -0.09872,-0.326116 -0.148537,-0.665525 -0.0058,-0.03771 -0.05468,-0.141266 z"
         id="path41"
         style="stroke-width:0.0306422" /><path
         fill="#4bcfff"
         d="m 16.680778,-22.599791 0.903067,0.855321 q -0.430119,0.0071 -0.839885,-0.07821 c -0.157042,-0.125191 -0.286746,-0.262439 -0.392149,-0.374029 q -0.02035,-0.02133 -0.02126,-0.04111 z"
         id="path42"
         style="stroke-width:0.0306422" /><path
         fill="#bb62c8"
         d="m 18.338374,-21.865643 q -0.004,0.01236 0.06774,0.05997 l -0.223565,0.0077 q 0.05073,-0.05533 0.155827,-0.0677 z"
         id="path43"
         style="stroke-width:0.0306422" /><path
         fill="#00998e"
         d="m 14.871609,-20.771993 q 0.0404,6.17e-4 0.06561,0.009 0.704409,0.231836 1.426741,0.396595 0.02035,0.0046 0.03736,0.01175 l 0.05559,0.312516 a 0.01669108,0.01610016 87.417163 0 1 -0.0158,0.01947 l -1.357485,3.08e-4 a 0.0473798,0.04791904 3.6719556 0 1 -0.04617,-0.03709 z"
         id="path44"
         style="stroke-width:0.0306422" /><path
         style="fill:none;stroke:#18181b;stroke-width:0.178901;stroke-dasharray:none;paint-order:fill markers stroke"
         d="m 16.319959,-29.448073 0.211779,0.783693"
         id="path49" /><path
         style="fill:none;stroke:#18181b;stroke-width:0.178901;stroke-dasharray:none;paint-order:fill markers stroke"
         d="m 15.537834,-29.563351 -0.534289,0.720363"
         id="path50" /><path
         style="fill:none;stroke:#18181b;stroke-width:0.178901;stroke-dasharray:none;paint-order:fill markers stroke"
         d="m 15.280316,-28.037425 0.827864,0.07837"
         id="path51" /><path
         style="fill:none;stroke:#18181b;stroke-width:0.178901;stroke-dasharray:none;paint-order:fill markers stroke"
         d="m 22.673332,-22.825861 0.673843,0.09796"
         id="path52" /><path
         style="fill:none;stroke:#18181b;stroke-width:0.178901;stroke-dasharray:none;paint-order:fill markers stroke"
         d="m 22.230521,-22.179314 0.192527,0.724917"
         id="path53" /><path
         style="fill:none;stroke:#18181b;stroke-width:0.178901;stroke-dasharray:none;paint-order:fill markers stroke"
         d="m 23.655218,-21.963798 -0.513721,0.680986"
         id="path54"
         sodipodi:nodetypes="cc" /><ellipse
         style="fill:#00c8b4;fill-opacity:1;stroke:#004455;stroke-width:0.214696;stroke-dasharray:none;stroke-opacity:1;paint-order:fill markers stroke"
         id="ellipse44"
         cx="31.39711"
         cy="-4.4965701"
         transform="matrix(0.58198838,-0.8131971,0.80339707,0.59544366,0,0)"
         rx="0.83722514"
         ry="0.8327446" /><ellipse
         style="font-variation-settings:normal;opacity:1;vector-effect:none;fill:#00c8b4;fill-opacity:1;stroke:#004455;stroke-width:0.214696;stroke-linecap:butt;stroke-linejoin:miter;stroke-miterlimit:4;stroke-dasharray:none;stroke-dashoffset:0;stroke-opacity:1;-inkscape-stroke:none;paint-order:fill markers stroke;stop-color:#000000;stop-opacity:1"
         id="ellipse45"
         cx="33.741158"
         cy="-4.4310412"
         transform="matrix(0.58198838,-0.8131971,0.80339707,0.59544366,0,0)"
         rx="0.83722514"
         ry="0.8327446" /><ellipse
         style="font-variation-settings:normal;opacity:1;vector-effect:none;fill:#00c8b4;fill-opacity:1;stroke:#004455;stroke-width:0.214696;stroke-linecap:butt;stroke-linejoin:miter;stroke-miterlimit:4;stroke-dasharray:none;stroke-dashoffset:0;stroke-opacity:1;-inkscape-stroke:none;paint-order:fill markers stroke;stop-color:#000000;stop-opacity:1"
         id="ellipse46"
         cx="32.531143"
         cy="-2.6168747"
         transform="matrix(0.58198838,-0.8131971,0.80339707,0.59544366,0,0)"
         rx="0.83722514"
         ry="0.8327446" /><ellipse
         style="font-variation-settings:normal;opacity:1;vector-effect:none;fill:#00c8b4;fill-opacity:1;stroke:#004455;stroke-width:0.214681;stroke-linecap:butt;stroke-linejoin:miter;stroke-miterlimit:4;stroke-dasharray:none;stroke-dashoffset:0;stroke-opacity:1;-inkscape-stroke:none;paint-order:fill markers stroke;stop-color:#000000;stop-opacity:1"
         id="ellipse47"
         cx="22.019281"
         cy="-22.848463"
         rx="0.82765436"
         ry="0.84225768" /><ellipse
         style="font-variation-settings:normal;opacity:1;vector-effect:none;fill:#00c8b4;fill-opacity:1;stroke:#004455;stroke-width:0.214681;stroke-linecap:butt;stroke-linejoin:miter;stroke-miterlimit:4;stroke-dasharray:none;stroke-dashoffset:0;stroke-opacity:1;-inkscape-stroke:none;paint-order:fill markers stroke;stop-color:#000000;stop-opacity:1"
         id="ellipse48"
         cx="24.052511"
         cy="-22.554579"
         rx="0.82765436"
         ry="0.84225768" /><ellipse
         style="font-variation-settings:normal;opacity:1;vector-effect:none;fill:#00c8b4;fill-opacity:1;stroke:#004455;stroke-width:0.214681;stroke-linecap:butt;stroke-linejoin:miter;stroke-miterlimit:4;stroke-dasharray:none;stroke-dashoffset:0;stroke-opacity:1;-inkscape-stroke:none;paint-order:fill markers stroke;stop-color:#000000;stop-opacity:1"
         id="ellipse49"
         cx="22.689348"
         cy="-20.75458"
         rx="0.82765436"
         ry="0.84225768" /></g><path
       style="font-variation-settings:normal;vector-effect:none;fill:none;fill-opacity:1;stroke:#18181b;stroke-width:0.162638;stroke-linecap:butt;stroke-linejoin:miter;stroke-miterlimit:4;stroke-dasharray:none;stroke-dashoffset:0;stroke-opacity:1;-inkscape-stroke:none;paint-order:fill markers stroke;stop-color:#000000"
       d="M 8.6618288,10.286313 5.3657971,9.4031452"
       id="path59" /><path
       style="font-variation-settings:normal;vector-effect:none;fill:none;fill-opacity:1;stroke:#18181b;stroke-width:0.162638;stroke-linecap:butt;stroke-linejoin:miter;stroke-miterlimit:4;stroke-dasharray:none;stroke-dashoffset:0;stroke-opacity:1;-inkscape-stroke:none;paint-order:fill markers stroke;stop-color:#000000"
       d="M 10.290819,8.2256673 8.8820627,5.7856294"
       id="path60" /><path
       style="font-variation-settings:normal;vector-effect:none;fill:none;fill-opacity:1;stroke:#18181b;stroke-width:0.162638;stroke-linecap:butt;stroke-linejoin:miter;stroke-miterlimit:4;stroke-dasharray:none;stroke-dashoffset:0;stroke-opacity:1;-inkscape-stroke:none;paint-order:fill markers stroke;stop-color:#000000"
       d="M 3.7346405,1.8414498 7.0306722,2.724618"
       id="path61" /><path
       style="font-variation-settings:normal;vector-effect:none;fill:none;fill-opacity:1;stroke:#18181b;stroke-width:0.162638;stroke-linecap:butt;stroke-linejoin:miter;stroke-miterlimit:4;stroke-dasharray:none;stroke-dashoffset:0;stroke-opacity:1;-inkscape-stroke:none;paint-order:fill markers stroke;stop-color:#000000"
       d="M 2.1056502,3.902096 3.5144066,6.3421341"
       id="path62" /><path
       style="fill:none;stroke:#18181b;stroke-width:0.162638;stroke-dasharray:none;paint-order:fill markers stroke"
       d="M 4.4196149,4.0459058 8.1826518,7.946584"
       id="path63" /><path
       fill="#00998e"
       d="M 10.293177,2.0183616 8.9287548,1.6704644 A 0.02585083,0.02513154 87.312192 0 1 8.9127365,1.657537 L 8.909191,1.6499915 8.8633544,1.3849938 A 0.02042632,0.02052242 14.780021 0 1 8.8835091,1.36083 h 1.2459569 q 0.01685,0 0.02044,0.016864 z"
       id="path64"
       style="stroke-width:0.0278567" /><path
       fill="#f3a4ff"
       d="m 8.9091483,1.6499497 0.00355,0.00755 a 0.02585083,0.02513154 87.312192 0 0 0.016018,0.012927 l 1.3644227,0.3478964 c 0.125368,0.0222 0.239692,0.0666 0.363404,0.086555 q 0.164857,0.0267 0.316736,0.083182 a 0.0455636,0.04636754 0 0 1 0.02983,0.043555 l -0.0039,1.2375919 q -2.76e-4,0.047209 -0.04639,0.051427 -0.12675,0.010964 -0.24632,-0.043273 -0.01657,-0.00764 -0.04833,0.011236 -0.0042,-0.019391 -0.01491,-0.0222 Q 9.9752929,3.3039665 9.3139304,3.114281 9.2625665,3.09939 9.278312,3.1370447 C 9.2374391,3.091799 9.0794883,3.0572352 9.0123861,3.0378469 Q 8.9115938,2.9942922 8.8660299,2.9836103 8.4882661,2.8928371 8.1182351,2.8301758 8.0177182,2.8310186 7.7890725,2.791112 7.6816528,2.7725665 7.2497651,2.75233 6.8918833,2.6885387 6.4845721,2.7779028 6.0126441,2.8568669 5.5978774,3.1505293 5.5064742,3.2154478 5.4308102,3.2337116 5.4404739,3.1381665 5.4874196,3.038406 C 5.6293576,2.7371581 5.8008421,2.4991378 6.054618,2.2557783 6.3616887,1.9612741 6.7121141,1.7387102 7.1271572,1.6333296 Q 7.7755415,1.4686542 8.4311049,1.5776839 c 0.1107333,0.018545 0.2960252,0.026418 0.4415523,0.085428 q 0.0185,0.00755 0.036455,-0.013209 z"
       id="path65"
       style="fill:#00aad4;stroke-width:0.0278567" /><path
       fill="#3b78eb"
       d="M 7.2498051,2.7523736 7.3724121,2.8959726 8.4046357,3.9731045 8.0379174,4.3415155 6.9093206,3.2129578 6.4846121,2.7779456 q 0.4073112,-0.089364 0.765193,-0.025572 z"
       id="path66"
       style="stroke-width:0.0278567" /><path
       fill="#bb62c8"
       d="m 7.2498051,2.7523736 q 0.4318877,0.020237 0.5393074,0.038782 0.2286457,0.0399 0.3291626,0.039064 -0.021264,0.017982 -0.022091,0.021355 -0.00245,0.011518 0.00718,0.017427 -0.3614709,-0.046927 -0.730951,0.026973 z"
       id="path67"
       style="fill:#004455;fill-opacity:1;stroke-width:0.0278567" /><path
       fill="#bb62c8"
       d="M 6.4846121,2.7779456 6.9093206,3.2129578 Q 6.7209906,3.403767 6.6088772,3.6726984 6.450371,3.5125203 6.3111948,3.3706077 C 6.215097,3.2725327 6.0745399,3.1820459 5.9624257,3.2843346 c -0.1582299,0.1438798 -0.00245,0.328788 0.096926,0.4341686 q 0.2336175,0.247294 0.4622642,0.4900907 c 0.00418,0.3563273 0.066273,0.6730326 0.1314443,1.0169953 q -0.00691,0.012082 -0.017673,0.00173 Q 6.4691492,5.0646038 6.0742645,4.6588172 C 6.0057823,4.5882804 5.8820689,4.4879599 5.7876284,4.5677685 5.678276,4.6602226 5.7707829,4.8454118 5.8392651,4.9336504 Q 6.0557616,5.2141037 6.2993193,5.4965243 L 5.3637471,5.1812254 Q 5.3123832,4.9530405 5.2820103,4.6560072 C 5.2328555,4.1768765 5.259092,3.6797603 5.4308511,3.2337889 Q 5.5065151,3.2155251 5.5979183,3.1506066 6.0126851,2.8569451 6.484613,2.7779801 Z"
       id="path68"
       style="fill:#004455;stroke-width:0.0278567" /><path
       fill="#acdc48"
       d="m 8.1182751,2.8302149 q 0.370031,0.062664 0.7477948,0.1534345 0.045564,0.010682 0.1463562,0.054237 L 9.1568487,3.2109915 8.8533671,3.5333159 Q 8.5222727,3.2374071 8.1909,2.9204218 C 8.165491,2.8959758 8.134291,2.8850128 8.103363,2.8689938 q -0.00966,-0.00591 -0.00718,-0.017427 8.301e-4,-0.00336 0.022091,-0.021355 z"
       id="path69"
       style="stroke-width:0.0278567" /><path
       fill="#ffffff"
       d="m 8.1033632,2.8689951 c 0.030927,0.016018 0.062137,0.026973 0.087537,0.051428 q 0.3313717,0.3169853 0.6624671,0.6128941 0.040046,0.033436 0.073728,0.068846 C 9.077317,3.7603749 9.2504588,3.9036929 9.4086887,4.0545983 q 0.053018,0.050582 0.071246,0.089646 c 0.051918,0.3428381 0.058818,0.683429 0.0787,0.9596668 Q 9.5268797,5.1033504 9.4981614,5.0738375 8.9721086,4.5340074 8.4410859,3.9995156 8.4256222,3.9837791 8.4046311,3.9730972 L 7.3724076,2.8959653 q 0.3694801,-0.07391 0.7309511,-0.026973 z"
       id="path70"
       style="stroke-width:0.0278567" /><path
       fill="#ffffff"
       d="m 9.0124261,3.0378851 c 0.0671,0.019391 0.2250566,0.053955 0.2659259,0.099199 L 9.329716,3.3149668 Q 9.299889,3.3323938 9.274488,3.3048488 9.22036,3.2455578 9.156851,3.2109898 Z"
       id="path71"
       style="stroke-width:0.0278567" /><path
       fill="#00998e"
       d="m 10.658239,3.4886338 q 0.07263,0.354641 0.09251,0.6418388 -0.173694,0.3855538 -0.342694,0.6055886 -0.216772,0.2818578 -0.5561516,0.5502274 -0.041418,0.032882 -0.09306,0.035409 L 9.5586371,5.1039113 C 9.5387552,4.8276726 9.5318552,4.4870826 9.4799367,4.1442436 q 0.046664,0.036536 0.089191,0.063791 c 0.1322725,0.084864 0.3333045,0.3450864 0.5042373,0.3366563 0.160163,-0.00791 0.20407,-0.1466898 0.128959,-0.2728659 Q 10.153451,4.1903338 10.087724,4.1223253 9.7345371,3.7578479 9.3783126,3.3959006 c -0.023473,-0.023609 -0.035346,-0.051991 -0.0486,-0.080928 L 9.2783484,3.1370902 q -0.015736,-0.037655 0.035618,-0.022764 0.6613625,0.1896846 1.3293536,0.3521118 0.01077,0.00282 0.01491,0.0222 z"
       id="path72"
       style="stroke-width:0.0278567" /><path
       fill="#4bcfff"
       d="m 9.1568487,3.2109906 q 0.063509,0.034564 0.117637,0.093859 0.025409,0.027537 0.055228,0.010118 c 0.013255,0.028946 0.025127,0.057327 0.0486,0.080937 q 0.3562246,0.3619483 0.7094113,0.7264247 0.06572,0.068009 0.1146,0.1495008 c 0.07511,0.1261761 0.0312,0.2649978 -0.128959,0.272866 C 9.9024335,4.5531503 9.7014015,4.2929062 9.569129,4.2080394 Q 9.5266015,4.1807847 9.4799376,4.1442481 9.4617103,4.1051843 9.4086918,4.0546022 C 9.2504619,3.9036969 9.0773201,3.7603789 8.9270984,3.6021671 q -0.033691,-0.035409 -0.073728,-0.068846 z"
       id="path73"
       style="stroke-width:0.0278567" /><path
       fill="#ffffff"
       d="m 6.9093206,3.2129578 1.1285968,1.1285577 q 0.029273,0.046364 0.039209,0.056482 0.5787957,0.5847931 1.1548297,1.1718343 0.014909,0.015455 0.00966,0.049455 Q 8.9541558,5.7434956 8.6758035,5.7772175 L 7.6659491,4.7517922 a 0.00972713,0.01005194 29.512881 0 0 -0.014082,0 L 7.3713058,5.0342128 q -0.00855,0.009 -0.020982,0.011518 l -0.00966,0.002 Q 7.3351147,5.03284 7.3481147,5.0204763 7.48232,4.8914902 7.6087934,4.7549168 c 0.00636,-0.00673 0.012982,-0.00791 0.019055,-0.012082 a 0.01819958,0.01773766 71.942248 0 0 0.00273,-0.0281 L 6.6088445,3.6727311 Q 6.7209578,3.4037997 6.9092879,3.2129906 Z"
       id="path74"
       style="stroke-width:0.0278567" /><path
       fill="#acdc48"
       d="m 6.6088772,3.6726984 1.021729,1.0420054 a 0.01819958,0.01773766 71.942248 0 1 -0.00273,0.0281 c -0.00609,0.00418 -0.0127,0.00536 -0.019055,0.012082 q -0.1264734,0.1365725 -0.2606796,0.2655595 -0.012982,0.012364 -0.00745,0.027255 l -0.012427,0.00336 C 7.1890875,4.983618 7.0601287,4.7894388 6.949119,4.6770318 6.8679368,4.594695 6.7895091,4.4954963 6.7190924,4.420465 Q 6.6213382,4.3164899 6.5216504,4.2085794 6.2930038,3.9657827 6.0593862,3.7184886 C 5.9599748,3.6131081 5.8042303,3.4281999 5.9624602,3.28432 6.0745745,3.1820304 6.2151316,3.27252 6.3112293,3.3705932 q 0.1391762,0.1419126 0.2976825,0.3020907 z"
       id="path75"
       style="stroke-width:0.0278567" /><path
       fill="#f3a4ff"
       d="m 8.4046357,3.9731045 q 0.020991,0.010682 0.036455,0.026418 0.5310228,0.534491 1.0570746,1.074322 0.028718,0.029509 0.060473,0.030073 L 9.758842,5.3217041 q -0.00636,0.0326 -0.032582,0.0489 -0.2344457,0.1447235 -0.4846316,0.2486986 0.00527,-0.034 -0.00966,-0.049455 Q 8.6559297,4.982807 8.077134,4.398014 8.0671976,4.3878958 8.0379247,4.3415319 Z"
       id="path76"
       style="stroke-width:0.0278567" /><path
       fill="#00c8b4"
       d="m 10.750747,4.1304726 q 0.02706,0.072782 0.03148,0.1326398 0.08975,1.2055563 -0.710516,2.0764217 -0.4266409,0.4642376 -0.9319835,0.6536422 -0.0856,0.032037 -0.3239153,0.085146 C 8.377021,7.1761155 7.8642229,7.1794873 7.4221178,7.1022042 Q 7.2757625,7.0763495 7.1305109,7.0535857 L 6.5417742,6.9161687 5.7970157,6.7093412 Q 5.7787884,6.6882684 5.7517337,6.6795501 5.2916786,6.4957667 4.8020778,6.4086517 C 4.5242773,6.3493605 4.2227294,6.281352 3.9396824,6.3007421 Q 3.8565638,6.2813511 3.671271,6.2900602 3.3829777,6.3041148 3.2065223,6.3341786 3.1537765,6.3591878 3.0046621,6.3802698 2.832073,6.4044335 2.638772,6.5387624 q -0.00582,-0.00564 -0.035618,-0.00645 -0.0174,-2.809e-4 -0.034246,0.00791 -0.4368577,0.2132899 -0.7011272,0.5766427 -0.051364,0.070255 -0.1035533,0.055918 2.764e-4,-0.090764 0.024573,-0.17732 C 1.9470312,6.4390437 2.2610064,5.8576234 2.7083579,5.490617 2.9422509,5.2986841 3.2159087,5.1238923 3.5160766,5.065722 3.6839711,5.033122 3.8532465,4.995185 4.0203138,4.988722 Q 4.3050171,4.977758 4.5168191,5.007549 4.8498472,5.054195 5.3637499,5.1812172 L 6.299322,5.4965161 6.813501,5.6294359 q 0.110457,0.041591 0.2303031,0.041028 0.069864,0.042436 0.1582299,0.0621 0.3785919,0.084028 0.7919777,0.075028 Q 8.316547,5.8334469 8.6758089,5.7772459 8.9541613,5.7435279 9.2416264,5.619316 9.4918122,5.51534 9.726258,5.3706165 q 0.026236,-0.0163 0.032582,-0.0489 0.051637,-0.00255 0.09306,-0.035409 0.339379,-0.2683687 0.556151,-0.5502274 0.169001,-0.2200348 0.342694,-0.6055886 z"
       id="path77"
       style="stroke-width:0.0278567" /><path
       fill="#ffffff"
       d="m 6.5216159,4.2085948 q 0.099688,0.1079106 0.1974419,0.2118857 c 0.070419,0.075028 0.1488417,0.17423 0.2300267,0.2565668 0.1110096,0.1124069 0.2399685,0.3065879 0.3791447,0.3740319 0.00855,0.026418 0.0127,0.048618 0.032309,0.069691 q 0.310938,0.3324417 0.6334724,0.6868017 -0.4133858,0.009 -0.7919777,-0.075028 -0.088364,-0.019673 -0.15823,-0.0621 -0.060755,-0.09948 -0.146908,-0.1646745 C 6.8256493,5.4265239 6.6922731,5.3208615 6.6530611,5.2255974 6.587888,4.8816347 6.5257586,4.5649294 6.5216168,4.2086021 Z"
       id="path78"
       style="stroke-width:0.0278567" /><path
       fill="#4bcfff"
       d="m 6.6530602,5.2255901 c 0.039209,0.095264 0.1725891,0.2009256 0.243834,0.2801724 -0.0127,0.064355 -0.092508,0.044682 -0.083391,0.1236461 L 6.2993238,5.4964888 Q 6.0557662,5.2140683 5.8392696,4.933615 C 5.7707874,4.8453781 5.6782788,4.6601863 5.787633,4.5677331 c 0.094441,-0.079809 0.2181529,0.020518 0.286636,0.091049 q 0.3948848,0.4057867 0.5611229,0.5684939 0.010773,0.0104 0.017673,-0.00173 z"
       id="path79"
       style="stroke-width:0.0278567" /><path
       fill="#4bcfff"
       d="M 8.6758071,5.777223 Q 8.3165452,5.833423 7.9940099,5.807569 7.6714755,5.453209 7.3605384,5.1207682 c -0.019609,-0.021073 -0.023746,-0.043273 -0.032309,-0.069691 l 0.012427,-0.00336 0.00966,-0.002 q 0.012427,-0.00255 0.020982,-0.011518 L 7.6518636,4.7517749 a 0.00972713,0.01005194 29.512881 0 1 0.014082,0 z"
       id="path80"
       style="stroke-width:0.0278567" /><path
       fill="#acdc48"
       d="m 6.8968942,5.5057625 q 0.086155,0.065191 0.146908,0.1646745 -0.119846,5.609e-4 -0.230303,-0.041027 c -0.00911,-0.078964 0.070691,-0.059291 0.083391,-0.1236461 z"
       id="path81"
       style="stroke-width:0.0278567" /><path
       fill="#ffffff"
       d="M 3.9396779,6.3007548 5.0967176,7.3466936 5.9671203,8.1534887 Q 5.9430929,8.5674245 5.7323981,8.9023944 L 4.6568216,7.8092451 3.2065177,6.334195 Q 3.3829732,6.304122 3.6712665,6.290077 3.8565584,6.281347 3.9396779,6.300759 Z"
       id="path82"
       style="stroke-width:0.0278567" /><path
       fill="#f3a4ff"
       d="M 4.8020733,6.4086645 5.4256038,7.0159383 5.0967176,7.3466936 3.9396779,6.3007548 c 0.2830469,-0.019391 0.5845949,0.048618 0.8623954,0.1079097 z"
       id="path83"
       style="stroke-width:0.0278567" /><path
       fill="#4bcfff"
       d="M 3.2065177,6.334195 4.6568216,7.8092451 4.2716014,8.1922689 Q 3.7364368,7.6513143 3.2067941,7.1109215 3.2043395,7.108376 3.1308573,7.0246483 3.0841934,6.9715389 3.0261995,6.9335987 L 2.6387702,6.5387724 Q 2.8320712,6.4044472 3.0046603,6.3802798 3.1537774,6.3592069 3.2065204,6.3341886 Z"
       id="path84"
       style="stroke-width:0.0278567" /><path
       fill="#ffffff"
       d="m 4.8020733,6.4086645 q 0.4896007,0.087119 0.9496558,0.2708984 -0.00445,0.055646 0.00911,0.1118442 0.088919,0.3667255 0.1673418,0.7177137 L 5.4256038,7.0159383 Z"
       id="path85"
       style="stroke-width:0.0278567" /><path
       fill="#00998e"
       d="M 2.6387675,6.5387742 3.0261968,6.9336006 Q 2.9519146,7.3537191 2.9869875,7.798566 2.9063507,7.7353384 2.837594,7.6659271 C 2.716367,7.5436856 2.615851,7.4565706 2.5023559,7.3525946 2.4148191,7.2725032 2.2648728,7.1879201 2.1613196,7.286276 2.0434062,7.3975584 2.167956,7.5833094 2.257141,7.6723917 q 0.3589855,0.3577318 0.71162,0.7230519 0.0359,0.037091 0.064064,0.073064 0.044464,0.09414 0.049709,0.1284243 0.045291,0.3085553 0.1350344,0.6050259 -0.066828,0.00727 -0.1192943,-0.024164 Q 2.831244,8.8563124 2.5584143,8.5457908 c -0.0903,-0.1031324 -0.2637159,-0.1947438 -0.3658891,-0.06941 -0.1165325,0.1427553 0.00273,0.2739896 0.082291,0.3838666 q 0.041146,0.0562 0.072628,0.1275806 Q 2.0980874,8.9198191 1.873859,8.882448 1.8625407,8.8807207 1.8443134,8.8619297 C 1.7189445,8.3243469 1.666477,7.7235365 1.7642311,7.1727454 q 0.052191,0.014336 0.1035533,-0.055918 0.2642695,-0.3633528 0.7011273,-0.5766428 0.016846,-0.00818 0.034246,-0.00791 0.029827,8.427e-4 0.035618,0.00645 z"
       id="path86"
       style="stroke-width:0.0278567" /><path
       fill="#bb62c8"
       d="m 5.7517291,6.6795629 q 0.027064,0.00873 0.045291,0.029791 0.269515,0.2706178 0.5404119,0.5409547 c 0.066828,0.0666 0.1725891,0.1183079 0.2595741,0.066037 0.1908148,-0.1143727 -0.020154,-0.2939418 -0.055227,-0.400166 l 0.5887367,0.137417 c 0.083391,0.3827429 0.1264734,0.7719495 0.070137,1.1558161 q -0.053573,0.09414 -0.104106,0.1896855 C 6.8540931,8.8568715 6.4630738,9.0906772 5.9770621,9.226688 Q 6.0035711,9.187061 5.9671221,9.145478 5.8472796,9.0083432 5.7324036,8.9023999 5.943102,8.56743 5.9671257,8.1534942 6.0665372,8.235831 6.3009829,8.460644 c 0.076491,0.073346 0.1990992,0.080937 0.281666,0.012645 0.1143233,-0.094421 0.049709,-0.2582532 -0.037,-0.359981 Q 6.4095108,7.9534113 5.9281937,7.5091263 5.849766,7.1581381 5.760851,6.7914125 5.747324,6.7352125 5.751741,6.6795683 Z"
       id="path87"
       style="fill:#004455;stroke-width:0.0278567" /><path
       fill="#4bcfff"
       d="m 5.7970157,6.7093503 0.7447585,0.2068274 c 0.035073,0.1062242 0.2460431,0.2857933 0.055227,0.4001667 -0.086982,0.052264 -0.1927473,5.6e-4 -0.259575,-0.066037 Q 6.0665308,6.9799708 5.7970148,6.709353 Z"
       id="path88"
       style="stroke-width:0.0278567" /><path
       fill="#ffffff"
       d="M 4.2716014,8.1922689 5.3444179,9.2826082 Q 5.248872,9.2938447 5.2027563,9.344154 4.9357258,9.4160908 4.6584789,9.3927725 L 3.8375046,8.6152039 2.9869848,7.7985723 q -0.035073,-0.4448468 0.039209,-0.8649654 0.057991,0.037937 0.1046578,0.09105 0.073455,0.083746 0.075937,0.086273 0.5296428,0.5403928 1.0648074,1.0813465 z"
       id="path89"
       style="stroke-width:0.0278567" /><path
       fill="#3b78eb"
       d="m 5.4256038,7.0159383 0.5025808,0.4931825 q 0.4813171,0.4442851 0.617455,0.6041823 c 0.08671,0.1017278 0.1513272,0.2655595 0.037,0.3599809 -0.082564,0.068291 -0.2051738,0.0607 -0.281666,-0.012645 Q 6.0665281,8.2358264 5.9671166,8.1534887 L 5.0967139,7.3466936 Z"
       id="path90"
       style="stroke-width:0.0278567" /><path
       fill="#acdc48"
       d="M 2.9869848,7.798566 3.8375046,8.6151975 3.5191121,8.9442656 3.0328241,8.4685067 Q 3.0046603,8.4325338 2.9687601,8.3954427 2.6161256,8.0301226 2.2571401,7.6723908 C 2.1679487,7.5833085 2.0434053,7.3975575 2.1613186,7.2862751 2.2648719,7.1879201 2.4148172,7.2725023 2.502355,7.3525937 2.6158501,7.4565696 2.7163661,7.5436846 2.8375931,7.6659262 q 0.068764,0.069409 0.1493935,0.1326389 z"
       id="path91"
       style="stroke-width:0.0278567" /><path
       fill="#acdc48"
       d="M 4.6568216,7.8092451 5.7323981,8.9023944 Q 5.8472742,9.0083377 5.9671203,9.145473 6.0035753,9.187064 5.9770603,9.226682 5.6884879,9.3365603 5.4059928,9.3371222 5.3408197,9.2938492 5.3444107,9.2826037 L 4.2715942,8.1922644 Z"
       id="path92"
       style="stroke-width:0.0278567" /><path
       fill="#f3a4ff"
       d="M 7.2006512,8.2094108 C 7.2506333,8.6427367 7.0487723,9.2115115 6.8308957,9.5470442 6.4953821,10.064393 5.91631,10.524977 5.2919504,10.666047 c -0.3603664,0.08149 -0.7174192,0.07785 -1.0811002,0.06435 -0.1957855,-0.0073 -0.3755547,-0.04355 -0.5638838,-0.08234 q -0.025955,-0.0054 -0.063509,0.0082 -0.015464,-0.0065 -0.033964,-0.01068 -0.6566688,-0.149781 -1.297044,-0.360542 -0.022918,-0.0075 -0.059646,-0.0082 -0.027618,-0.0281 -0.052191,-0.03372 -0.281666,-0.06351 -0.5694075,-0.123647 -0.048882,-0.0104 -0.0486,-0.06098 l 0.00355,-1.2089279 q 2.764e-4,-0.0385 0.037,-0.029509 0.1201224,0.029509 0.2474249,0.053109 0.019055,0.00364 0.033691,-0.011236 0.018227,0.018827 0.029546,0.020518 0.2242275,0.037373 0.4735852,0.1053805 0.2758669,0.0652 0.5724448,0.154559 c 0.058546,0.0177 0.1173606,0.024446 0.1783882,0.035409 q 0.052464,0.031473 0.1192933,0.024164 0.038382,0.034846 0.07981,0.040464 0.2811142,0.037373 0.5591902,0.09414 0.012982,0.00255 0.0232,-0.00618 0.00691,-0.00591 0.015191,-0.00873 0.3725165,0.077564 0.7635358,0.0711 0.2772469,0.023327 0.5442774,-0.048618 l 0.2032401,-0.007 Q 5.6884625,9.3365758 5.9770312,9.226697 C 6.4630429,9.0906863 6.8540622,8.8568806 7.0965152,8.3991073 q 0.050537,-0.095545 0.104106,-0.1896856 z"
       id="path93"
       style="fill:#00aad4;stroke-width:0.0278567" /><path
       fill="#4bcfff"
       d="M 3.0982699,9.1777895 C 3.0372423,9.1668258 2.9784238,9.1600894 2.9198817,9.1423802 Q 2.6233038,9.0530161 2.3474369,8.9878213 2.3159549,8.9164482 2.2748092,8.8602406 C 2.1952816,8.7503637 2.0759864,8.6191293 2.1925179,8.476374 2.2946912,8.3510407 2.4681084,8.4426557 2.5584071,8.5457835 q 0.2728296,0.3105216 0.5398601,0.6320033 z"
       id="path94"
       style="stroke-width:0.0278567" /><path
       fill="#ffffff"
       d="m 3.0328241,8.4685067 0.486288,0.4757589 q 8.282e-4,0.017982 0.019327,0.037373 c 0.095822,0.1014469 0.2137348,0.2262184 0.356501,0.340029 q -0.00827,0.00282 -0.015191,0.00873 -0.010218,0.00873 -0.0232,0.00618 Q 3.5784733,9.2798128 3.29736,9.2424399 3.2559416,9.2368035 3.2175505,9.201976 3.1278046,8.9055054 3.0825162,8.5969501 3.0772434,8.5626681 3.0328068,8.4685258 Z"
       id="path95"
       style="stroke-width:0.0278567" /><path
       fill="#4bcfff"
       d="m 3.8375046,8.6151975 0.8209743,0.7775686 q -0.3910193,0.00645 -0.7635358,-0.0711 C 3.7521769,9.2078551 3.6342636,9.0830836 3.5384422,8.9816376 q -0.0185,-0.019391 -0.019327,-0.037373 z"
       id="path96"
       style="stroke-width:0.0278567" /><path
       fill="#bb62c8"
       d="m 5.3444179,9.2826082 q -0.00364,0.011236 0.061582,0.054519 l -0.203242,0.007 q 0.046118,-0.0503 0.1416617,-0.061546 z"
       id="path97"
       style="stroke-width:0.0278567" /><path
       fill="#00998e"
       d="m 2.192797,10.276841 q 0.036728,5.61e-4 0.059646,0.0082 0.6403751,0.210761 1.297044,0.360542 0.0185,0.0042 0.033964,0.01068 l 0.050537,0.284107 a 0.01517379,0.01463659 87.417163 0 1 -0.014364,0.0177 l -1.2340837,2.8e-4 a 0.04307277,0.04356299 3.6719556 0 1 -0.041973,-0.03372 z"
       id="path98"
       style="stroke-width:0.0278567" /><path
       style="fill:none;stroke:#18181b;stroke-width:0.162638;stroke-dasharray:none;paint-order:fill markers stroke"
       d="M 3.5094857,2.3894545 3.702013,3.1019063"
       id="path99" /><path
       style="fill:none;stroke:#18181b;stroke-width:0.162638;stroke-dasharray:none;paint-order:fill markers stroke"
       d="M 2.7984592,2.2846557 2.3127394,2.9395346"
       id="path100" /><path
       style="fill:none;stroke:#18181b;stroke-width:0.162638;stroke-dasharray:none;paint-order:fill markers stroke"
       d="m 2.5643507,3.6718684 0.7526076,0.071246"
       id="path101" /><path
       style="fill:none;stroke:#18181b;stroke-width:0.162638;stroke-dasharray:none;paint-order:fill markers stroke"
       d="m 9.2853094,8.4096782 0.6125877,0.089055"
       id="path102" /><path
       style="fill:none;stroke:#18181b;stroke-width:0.162638;stroke-dasharray:none;paint-order:fill markers stroke"
       d="M 8.8827518,8.9974513 9.0577773,9.6564702"
       id="path103" /><path
       style="fill:none;stroke:#18181b;stroke-width:0.162638;stroke-dasharray:none;paint-order:fill markers stroke"
       d="M 10.177938,9.193376 9.7109161,9.8124574"
       id="path139"
       sodipodi:nodetypes="cc" /><path
       style="-inkscape-font-specification:cream;stroke-width:0.343145"
       d="m 2.7134315,13.059237 c 0.17935,-0.164709 0.296477,-0.402623 0.296477,-0.669819 -0.00364,-0.475827 -0.380662,-0.87479 -0.8564899,-0.900412 -0.51975,-0.02928 -0.9516549,0.387982 -0.9516549,0.900412 0,0.497789 0.402623,0.900413 0.8967519,0.904073 0.1647099,0 0.5453719,0.02928 0.5453719,0.325759 0,0.325758 -0.6441979,0.424584 -1.0175389,0.252554 -0.025627,-0.01464 -0.058564,-0.0036 -0.076864,0.0183 l -0.1061461,0.150068 c -0.021964,0.02928 -0.014646,0.06954 0.014646,0.09151 0.556352,0.333079 1.5226488,0.135427 1.5226488,-0.51243 0,-0.219613 -0.095165,-0.391643 -0.2635359,-0.505109 -0.0183,-0.01464 -0.021964,-0.04026 -0.00364,-0.0549 z M 1.5677846,12.462623 c -0.047582,-0.355041 0.252555,-0.655178 0.607595,-0.611256 0.241574,0.03294 0.439226,0.226934 0.4685079,0.468508 0.043918,0.35504 -0.2562149,0.655177 -0.6075959,0.611255 -0.245234,-0.03294 -0.439225,-0.226933 -0.468507,-0.468507 z M 4.9466177,12.24667 c 0,-0.314778 -0.307458,-0.710081 -0.7174019,-0.754003 -0.505109,-0.05124 -0.951655,0.248894 -1.017539,0.754003 -0.076864,0.578314 0.34406,1.046821 0.911393,1.046821 0.2305939,0 0.4648469,-0.0732 0.6807999,-0.285497 0.029282,-0.02562 0.029282,-0.0732 0,-0.09883 L 4.6574607,12.76642 c -0.025627,-0.02562 -0.069546,-0.02562 -0.095166,0 -0.1171261,0.106147 -0.2891561,0.17569 -0.4319041,0.17569 -0.2525549,0 -0.4868089,-0.106146 -0.5563529,-0.387982 -0.00364,-0.02196 0.010982,-0.04026 0.032946,-0.04026 h 1.120025 c 0.1024859,0 0.2122929,-0.08052 0.215952,-0.18301 0.00364,-0.04758 0.00364,-0.08418 0.00364,-0.08418 z m -0.816227,-0.446546 c 0.2928161,0 0.424584,0.212293 0.4794871,0.398963 0.00727,0.02196 -0.00727,0.04758 -0.032937,0.04758 h -0.940674 c -0.025627,0 -0.040264,-0.02562 -0.032946,-0.04758 0.051237,-0.204972 0.252555,-0.398963 0.5270699,-0.398963 z m 2.5479587,0.453867 c 0,-0.387983 -0.2452349,-0.768645 -0.7686449,-0.768645 -0.190331,0 -0.325759,0.06954 -0.413604,0.190331 v -0.09517 c -0.00364,-0.03294 -0.029282,-0.06222 -0.065882,-0.06222 h -0.219613 c -0.0366,0 -0.065882,0.02928 -0.065882,0.06588 l -0.00364,0.629557 0.010982,1.013878 c 0,0.0366 0.029282,0.06588 0.065882,0.06588 H 5.422922 c 0.0366,0 0.065882,-0.02928 0.065882,-0.06588 l 0.010982,-0.973615 c 0,-0.570994 0.816227,-0.570994 0.816227,0 l 0.014646,0.973615 c 0,0.0366 0.029282,0.06588 0.065882,0.06588 h 0.204972 c 0.032936,0 0.062219,-0.02928 0.062219,-0.06588 z m 0.6922318,-1.156628 c 0,0.124448 -0.1061451,0.226934 -0.230593,0.226934 -0.128107,0 -0.230593,-0.102486 -0.230593,-0.226934 0,-0.128107 0.102486,-0.230593 0.230593,-0.230593 0.1244479,0 0.230593,0.102486 0.230593,0.230593 z m -0.124447,0.387983 h -0.212292 c -0.0366,0 -0.065882,0.02928 -0.065882,0.06588 l -0.010982,0.585634 v 0.505109 l 0.010982,0.589294 c 0,0.03294 0.029282,0.06222 0.065882,0.06222 h 0.212292 c 0.0366,0 0.062228,-0.02928 0.062228,-0.06222 l 0.014646,-0.589294 V 12.136864 L 7.3083618,11.55123 c 0,-0.0366 -0.025627,-0.06588 -0.062228,-0.06588 z m 3.0677098,0.768645 c 0,-0.387983 -0.241574,-0.768645 -0.7686451,-0.768645 -0.2196121,0 -0.420924,0.08052 -0.567333,0.274516 C 8.736292,11.445084 8.1762799,11.37554 7.956667,11.675677 v -0.09517 c -0.00364,-0.03294 -0.029282,-0.06222 -0.065882,-0.06222 H 7.6711719 c -0.0366,0 -0.065882,0.02928 -0.065882,0.06588 l -0.00364,0.629557 0.010982,1.013878 c 0,0.0366 0.029282,0.06588 0.065882,0.06588 h 0.204971 c 0.0366,0 0.065882,-0.02928 0.065882,-0.06588 l 0.010982,-0.973615 c 0,-0.570994 0.8162269,-0.570994 0.8162269,0 l 0.014646,0.973615 c 0,0.0366 0.029282,0.06588 0.065882,0.06588 H 9.06208 c 0.0366,0 0.065882,-0.02928 0.065882,-0.06588 l 0.010982,-0.973615 c 0,-0.574654 0.816227,-0.567334 0.816227,0 l 0.010982,0.973615 c 0,0.0366 0.029282,0.06588 0.065882,0.06588 h 0.204972 c 0.0366,0 0.06588,-0.02928 0.06588,-0.06588 z m 0.556808,-1.70932 h -0.215953 c -0.03295,0 -0.06223,0.02562 -0.06223,0.06222 l -0.01098,0.585634 v 1.449444 l 0.01098,0.589294 c 0,0.03294 0.02928,0.06222 0.06223,0.06222 h 0.215953 c 0.03294,0 0.06222,-0.02928 0.06222,-0.06222 l 0.01098,-0.589294 v -1.449444 l -0.01098,-0.585634 c 0,-0.0366 -0.02928,-0.06222 -0.06222,-0.06222 z"
       id="path140"
       aria-label="geniml" /><ellipse
       style="fill:#00c8b4;fill-opacity:1;stroke:#00998e;stroke-width:0.195179;stroke-dasharray:none;stroke-opacity:1;paint-order:fill markers stroke"
       id="ellipse140"
       cx="-1.6332625"
       cy="3.6733589"
       transform="matrix(0.58198838,-0.8131971,0.80339706,0.59544366,0,0)"
       rx="0.7611177"
       ry="0.75704449" /><ellipse
       style="font-variation-settings:normal;vector-effect:none;fill:#00c8b4;fill-opacity:1;stroke:#00998e;stroke-width:0.195179;stroke-linecap:butt;stroke-linejoin:miter;stroke-miterlimit:4;stroke-dasharray:none;stroke-dashoffset:0;stroke-opacity:1;-inkscape-stroke:none;paint-order:fill markers stroke;stop-color:#000000"
       id="ellipse141"
       cx="0.49770096"
       cy="3.7329309"
       transform="matrix(0.58198838,-0.8131971,0.80339706,0.59544366,0,0)"
       rx="0.7611177"
       ry="0.75704449" /><ellipse
       style="font-variation-settings:normal;vector-effect:none;fill:#00c8b4;fill-opacity:1;stroke:#00998e;stroke-width:0.195179;stroke-linecap:butt;stroke-linejoin:miter;stroke-miterlimit:4;stroke-dasharray:none;stroke-dashoffset:0;stroke-opacity:1;-inkscape-stroke:none;paint-order:fill markers stroke;stop-color:#000000"
       id="ellipse142"
       cx="-0.60231781"
       cy="5.3821807"
       transform="matrix(0.58198838,-0.8131971,0.80339706,0.59544366,0,0)"
       rx="0.7611177"
       ry="0.75704449" /><ellipse
       style="font-variation-settings:normal;vector-effect:none;fill:#00c8b4;fill-opacity:1;stroke:#00998e;stroke-width:0.195166;stroke-linecap:butt;stroke-linejoin:miter;stroke-miterlimit:4;stroke-dasharray:none;stroke-dashoffset:0;stroke-opacity:1;-inkscape-stroke:none;paint-order:fill markers stroke;stop-color:#000000"
       id="ellipse143"
       cx="8.6907148"
       cy="8.3891306"
       rx="0.75241697"
       ry="0.76569277" /><ellipse
       style="font-variation-settings:normal;vector-effect:none;fill:#00c8b4;fill-opacity:1;stroke:#00998e;stroke-width:0.195166;stroke-linecap:butt;stroke-linejoin:miter;stroke-miterlimit:4;stroke-dasharray:none;stroke-dashoffset:0;stroke-opacity:1;-inkscape-stroke:none;paint-order:fill markers stroke;stop-color:#000000"
       id="ellipse144"
       cx="10.539115"
       cy="8.6562996"
       rx="0.75241697"
       ry="0.76569277" /><ellipse
       style="font-variation-settings:normal;vector-effect:none;fill:#00c8b4;fill-opacity:1;stroke:#00998e;stroke-width:0.195166;stroke-linecap:butt;stroke-linejoin:miter;stroke-miterlimit:4;stroke-dasharray:none;stroke-dashoffset:0;stroke-opacity:1;-inkscape-stroke:none;paint-order:fill markers stroke;stop-color:#000000"
       id="ellipse145"
       cx="9.2998695"
       cy="10.292671"
       rx="0.75241697"
       ry="0.76569277" /></g></svg>
