<?xml version="1.0" encoding="UTF-8" standalone="no"?>
<!-- Created with Inkscape (http://www.inkscape.org/) -->

<svg
   width="108"
   height="42"
   viewBox="0 0 28.575 11.112498"
   version="1.1"
   id="svg1"
   xml:space="preserve"
   inkscape:version="1.3.2 (1:1.3.2+202311252150+091e20ef0f)"
   sodipodi:docname="geniml_logo_horizontal.svg"
   xmlns:inkscape="http://www.inkscape.org/namespaces/inkscape"
   xmlns:sodipodi="http://sodipodi.sourceforge.net/DTD/sodipodi-0.dtd"
   xmlns="http://www.w3.org/2000/svg"
   xmlns:svg="http://www.w3.org/2000/svg"><sodipodi:namedview
     id="namedview1"
     pagecolor="#ffffff"
     bordercolor="#000000"
     borderopacity="0.25"
     inkscape:showpageshadow="2"
     inkscape:pageopacity="0.0"
     inkscape:pagecheckerboard="0"
     inkscape:deskcolor="#d1d1d1"
     inkscape:document-units="mm"
     inkscape:zoom="17.805153"
     inkscape:cx="29.794745"
     inkscape:cy="5.5321063"
     inkscape:window-width="2488"
     inkscape:window-height="1343"
     inkscape:window-x="1272"
     inkscape:window-y="27"
     inkscape:window-maximized="1"
     inkscape:current-layer="layer1" /><defs
     id="defs1" /><g
     inkscape:label="Layer 1"
     inkscape:groupmode="layer"
     id="layer1"><path
       style="-inkscape-font-specification:cream;stroke-width:0.632509"
       d="m 12.750276,7.2607828 c 0.330591,-0.303605 0.546488,-0.742145 0.546488,-1.234659 -0.0067,-0.87708 -0.701664,-1.612478 -1.578744,-1.659705 -0.958042,-0.05397 -1.7541599,0.715157 -1.7541599,1.659705 0,0.917561 0.7421439,1.659706 1.6529579,1.666452 0.303605,0 1.005269,0.05397 1.005269,0.6004624 0,0.6004617 -1.187432,0.7826247 -1.875602,0.4655267 -0.04723,-0.02699 -0.107948,-0.0067 -0.141682,0.03373 l -0.195657,0.276617 c -0.04048,0.05397 -0.02699,0.128189 0.02699,0.1686697 1.025509,0.6139557 2.806657,0.24963 2.806657,-0.9445474 0,-0.4048054 -0.175416,-0.7219044 -0.485768,-0.9310534 -0.03373,-0.02699 -0.04048,-0.07421 -0.0067,-0.101202 z m -2.111739,-1.099723 c -0.08771,-0.654437 0.465527,-1.207672 1.119963,-1.126711 0.445287,0.06072 0.809613,0.4183 0.863587,0.863587 0.08096,0.654436 -0.472274,1.207671 -1.119964,1.12671 -0.452033,-0.06072 -0.809612,-0.4183 -0.863586,-0.863586 z m 6.22811,-0.39806 c 0,-0.580222 -0.566728,-1.308873 -1.322367,-1.389834 -0.931054,-0.09445 -1.75416,0.45878 -1.875602,1.389834 -0.141682,1.06599 0.634197,1.929576 1.679946,1.929576 0.425047,0 0.85684,-0.134935 1.254899,-0.526248 0.05397,-0.04723 0.05397,-0.134935 0,-0.182163 l -0.269871,-0.263124 c -0.04723,-0.04723 -0.128188,-0.04723 -0.175416,0 -0.215896,0.195657 -0.532994,0.323845 -0.796118,0.323845 -0.465528,0 -0.897321,-0.195656 -1.025509,-0.715157 -0.0067,-0.04048 0.02024,-0.07421 0.06072,-0.07421 h 2.064512 c 0.18891,0 0.391313,-0.148429 0.398059,-0.337338 0.0067,-0.08771 0.0067,-0.155176 0.0067,-0.155176 z m -1.504529,-0.823106 c 0.539741,0 0.782625,0.391313 0.883826,0.735398 0.01349,0.04048 -0.01349,0.08771 -0.06072,0.08771 h -1.733919 c -0.04723,0 -0.07422,-0.04723 -0.06072,-0.08771 0.09445,-0.377819 0.465527,-0.735398 0.971535,-0.735398 z m 4.696583,0.8366 c 0,-0.715158 -0.452034,-1.416822 -1.416822,-1.416822 -0.350832,0 -0.600462,0.128189 -0.762385,0.350832 v -0.175416 c -0.0067,-0.06072 -0.05397,-0.114695 -0.121442,-0.114695 h -0.404806 c -0.06747,0 -0.121442,0.05397 -0.121442,0.121442 l -0.0067,1.160444 0.02024,1.868855 c 0,0.06747 0.05397,0.121442 0.121442,0.121442 h 0.377819 c 0.06747,0 0.121442,-0.05397 0.121442,-0.121442 l 0.02024,-1.79464 c 0,-1.052496 1.50453,-1.052496 1.50453,0 l 0.02699,1.79464 c 0,0.06747 0.05397,0.121442 0.121442,0.121442 h 0.377819 c 0.06072,0 0.114695,-0.05397 0.114695,-0.121442 z m 1.275973,-2.13198 c 0,0.229391 -0.195656,0.4183 -0.425046,0.4183 -0.236137,0 -0.425047,-0.188909 -0.425047,-0.4183 0,-0.236137 0.18891,-0.425046 0.425047,-0.425046 0.22939,0 0.425046,0.188909 0.425046,0.425046 z m -0.22939,0.715158 h -0.391313 c -0.06747,0 -0.121442,0.05397 -0.121442,0.121442 l -0.02024,1.079483 v 0.931054 l 0.02024,1.08623 c 0,0.06072 0.05397,0.114695 0.121442,0.114695 h 0.391313 c 0.06747,0 0.114695,-0.05397 0.114695,-0.114695 l 0.02699,-1.08623 v -0.931054 l -0.02699,-1.079483 c 0,-0.06747 -0.04723,-0.121442 -0.114695,-0.121442 z m 5.654625,1.416822 c 0,-0.715158 -0.445287,-1.416822 -1.416822,-1.416822 -0.404806,0 -0.775878,0.148429 -1.045749,0.506008 -0.445287,-0.580222 -1.477543,-0.708411 -1.882349,-0.155176 v -0.175416 c -0.0067,-0.06072 -0.05397,-0.114695 -0.121442,-0.114695 h -0.404806 c -0.06747,0 -0.121442,0.05397 -0.121442,0.121442 l -0.0067,1.160444 0.02024,1.868855 c 0,0.06747 0.05397,0.121442 0.121442,0.121442 H 22.2801 c 0.06747,0 0.121442,-0.05397 0.121442,-0.121442 l 0.02024,-1.79464 c 0,-1.052496 1.50453,-1.052496 1.50453,0 l 0.02699,1.79464 c 0,0.06747 0.05397,0.121442 0.121441,0.121442 h 0.37782 c 0.06747,0 0.121441,-0.05397 0.121441,-0.121442 l 0.02024,-1.79464 c 0,-1.059243 1.504529,-1.04575 1.504529,0 l 0.02024,1.79464 c 0,0.06747 0.05397,0.121442 0.121442,0.121442 h 0.377819 c 0.06747,0 0.121442,-0.05397 0.121442,-0.121442 z m 1.026349,-3.150742 h -0.398059 c -0.06072,0 -0.114695,0.04723 -0.114695,0.114695 l -0.02024,1.079483 v 2.671721 l 0.02024,1.08623 c 0,0.06072 0.05397,0.114695 0.114695,0.114695 h 0.398059 c 0.06072,0 0.114695,-0.05397 0.114695,-0.114695 l 0.02024,-1.08623 v -2.671721 l -0.02024,-1.079483 c 0,-0.06747 -0.05397,-0.114695 -0.114695,-0.114695 z"
       id="text54"
       aria-label="geniml" /><path
       style="font-variation-settings:normal;vector-effect:none;fill:none;fill-opacity:1;stroke:#18181b;stroke-width:0.131292;stroke-linecap:butt;stroke-linejoin:miter;stroke-miterlimit:4;stroke-dasharray:none;stroke-dashoffset:0;stroke-opacity:1;-inkscape-stroke:none;paint-order:fill markers stroke;stop-color:#000000"
       d="M 6.7892822,9.0540741 4.1285044,8.3411215"
       id="path57" /><path
       style="font-variation-settings:normal;vector-effect:none;fill:none;fill-opacity:1;stroke:#18181b;stroke-width:0.131292;stroke-linecap:butt;stroke-linejoin:miter;stroke-miterlimit:4;stroke-dasharray:none;stroke-dashoffset:0;stroke-opacity:1;-inkscape-stroke:none;paint-order:fill markers stroke;stop-color:#000000"
       d="M 8.1043125,7.3905824 6.9670698,5.4208199"
       id="path58" /><path
       style="font-variation-settings:normal;vector-effect:none;fill:none;fill-opacity:1;stroke:#18181b;stroke-width:0.131292;stroke-linecap:butt;stroke-linejoin:miter;stroke-miterlimit:4;stroke-dasharray:none;stroke-dashoffset:0;stroke-opacity:1;-inkscape-stroke:none;paint-order:fill markers stroke;stop-color:#000000"
       d="M 2.8117253,2.2368136 5.4725032,2.9497662"
       id="path56" /><path
       style="font-variation-settings:normal;vector-effect:none;fill:none;fill-opacity:1;stroke:#18181b;stroke-width:0.131292;stroke-linecap:butt;stroke-linejoin:miter;stroke-miterlimit:4;stroke-dasharray:none;stroke-dashoffset:0;stroke-opacity:1;-inkscape-stroke:none;paint-order:fill markers stroke;stop-color:#000000"
       d="M 1.4966951,3.9003054 2.6339378,5.8700678"
       id="path55" /><path
       style="fill:none;stroke:#18181b;stroke-width:0.131292;stroke-dasharray:none;paint-order:fill markers stroke"
       d="M 3.3646827,4.0163983 6.4024584,7.1652876"
       id="path1" /><path
       fill="#00998e"
       d="M 8.1062161,2.3796287 7.0047628,2.0987827 a 0.02086852,0.02028786 87.312192 0 1 -0.012931,-0.010436 l -0.00286,-0.00609 -0.037002,-0.2139239 a 0.01648949,0.01656708 14.780021 0 1 0.01627,-0.019507 h 1.0058204 q 0.013599,0 0.016498,0.013613 z"
       id="path2"
       style="stroke-width:0.0224878" /><path
       fill="#f3a4ff"
       d="m 6.9889351,2.0822219 0.00286,0.00609 a 0.02086852,0.02028786 87.312192 0 0 0.012931,0.010436 l 1.1014534,0.2808453 c 0.1012061,0.017921 0.1934955,0.053764 0.2933645,0.069873 q 0.1330838,0.021554 0.2556907,0.06715 a 0.03678199,0.03743099 0 0 1 0.024079,0.03516 l -0.00316,0.9990672 q -2.223e-4,0.038111 -0.03745,0.041516 -0.1023209,0.00885 -0.1988456,-0.034933 -0.013379,-0.00616 -0.039013,0.00907 -0.00337,-0.015651 -0.01203,-0.017919 Q 7.8495986,3.4174552 7.3157024,3.2643283 7.274238,3.2523073 7.2869488,3.2827047 C 7.2539535,3.2461794 7.126445,3.2182771 7.0722756,3.2026256 Q 6.9909092,3.1674653 6.954127,3.1588422 6.6491708,3.0855639 6.3504569,3.0349796 6.2693129,3.0356599 6.0847348,3.0034446 5.9980184,2.9884734 5.6493697,2.9721372 5.3604635,2.9206406 5.0316545,2.9927813 4.6506827,3.0565264 4.3158552,3.2935904 q -0.073787,0.052407 -0.1348679,0.06715 0.0078,-0.07713 0.045699,-0.1576638 C 4.3412681,2.9598894 4.4797019,2.7677434 4.6845668,2.5712874 4.9324548,2.3335438 5.2153418,2.1538753 5.5503924,2.068805 Q 6.0738117,1.935868 6.6030264,2.023884 c 0.089391,0.014971 0.2389714,0.021327 0.3564506,0.068963 q 0.014935,0.00609 0.029429,-0.010663 z"
       id="path11"
       style="fill:#00aad4;stroke-width:0.0224878" /><path
       fill="#3b78eb"
       d="M 5.649402,2.9721724 5.7483786,3.0880951 6.5816587,3.9576283 6.2856191,4.2550343 5.3745401,3.3439869 5.0316868,2.9928158 q 0.328809,-0.072141 0.6177152,-0.020643 z"
       id="path12"
       style="stroke-width:0.0224878" /><path
       fill="#bb62c8"
       d="m 5.649402,2.9721724 q 0.3486487,0.016336 0.4353651,0.031308 0.1845781,0.03221 0.2657221,0.031535 -0.017165,0.014516 -0.017833,0.017239 -0.00198,0.0093 0.0058,0.014069 -0.2918036,-0.037883 -0.5900727,0.021774 z"
       id="path13"
       style="fill:#004455;fill-opacity:1;stroke-width:0.0224878" /><path
       fill="#bb62c8"
       d="M 5.0316868,2.9928158 5.3745401,3.3439869 Q 5.2225074,3.4980208 5.132002,3.7151203 5.0040451,3.5858138 4.8916928,3.4712525 C 4.8141162,3.3920797 4.7006491,3.3190327 4.610143,3.401607 4.4824092,3.5177564 4.608163,3.6670268 4.688388,3.752097 q 0.1885918,0.1996323 0.3731707,0.3956341 c 0.00338,0.2876513 0.0535,0.5433171 0.1061107,0.8209868 q -0.00558,0.00975 -0.014267,0.00139 Q 5.0192042,4.8387597 4.7004267,4.5111815 C 4.6451433,4.4542395 4.5452736,4.3732541 4.4690349,4.4376809 4.3807583,4.5123161 4.4554361,4.6618132 4.5107195,4.7330453 Q 4.68549,4.959446 4.8821061,5.1874349 L 4.1268495,4.9329044 Q 4.0853851,4.7486983 4.0608661,4.5089131 C 4.021185,4.1221267 4.0423649,3.7208211 4.1810203,3.3608031 Q 4.2421013,3.3460591 4.3158882,3.2936531 4.6507157,3.0565898 5.0316876,2.992844 Z"
       id="path14"
       style="fill:#004455;stroke-width:0.0224878" /><path
       fill="#acdc48"
       d="m 6.3504892,3.0350111 q 0.2987139,0.050587 0.6036701,0.1238626 0.036782,0.00862 0.1181486,0.043783 L 7.1888955,3.3423995 6.9439048,3.6026014 Q 6.6766231,3.3637239 6.4091169,3.1078321 C 6.3886049,3.088098 6.363418,3.0792474 6.3384513,3.0663164 q -0.0078,-0.00477 -0.0058,-0.014069 6.7e-4,-0.00272 0.017833,-0.017239 z"
       id="path15"
       style="stroke-width:0.0224878" /><path
       fill="#ffffff"
       d="m 6.3384513,3.0663171 c 0.024967,0.012931 0.050161,0.021774 0.070666,0.041516 q 0.2675055,0.2558918 0.5347879,0.4947692 0.032328,0.026992 0.059518,0.055577 c 0.121269,0.1277191 0.2610407,0.243415 0.3887745,0.3652359 q 0.0428,0.040833 0.057514,0.072368 c 0.041912,0.2767619 0.047482,0.5517097 0.063532,0.7747074 Q 7.4876093,4.8700385 7.464426,4.8462138 7.0397609,4.4104267 6.6110837,3.978949 6.5986004,3.9662455 6.581655,3.9576224 L 5.7483749,3.0880892 Q 6.046644,3.0284245 6.3384477,3.0663149 Z"
       id="path16"
       style="stroke-width:0.0224878" /><path
       fill="#ffffff"
       d="m 7.0723079,3.2026564 c 0.054168,0.015654 0.1816808,0.043556 0.2146732,0.08008 l 0.041464,0.1435989 q -0.024079,0.014069 -0.044583,-0.00817 -0.043695,-0.047864 -0.094964,-0.075769 z"
       id="path17"
       style="stroke-width:0.0224878" /><path
       fill="#00998e"
       d="m 8.4009186,3.566531 q 0.05863,0.28629 0.074678,0.5181353 Q 8.3353799,4.3959112 8.1989518,4.5735381 8.0239589,4.8010726 7.7499886,5.0177185 7.7165529,5.0442631 7.674864,5.0463033 L 7.513246,4.8704913 C 7.497196,4.6474929 7.4916259,4.3725459 7.4497138,4.0957832 q 0.03767,0.029495 0.072001,0.051497 C 7.628494,4.2157882 7.7907805,4.425857 7.9287688,4.4190517 8.0580629,4.4126717 8.0935072,4.3006338 8.0328731,4.198776 Q 7.9934198,4.1329903 7.9403608,4.0780893 7.6552443,3.7838587 7.367676,3.4916706 C 7.348727,3.4726116 7.339143,3.4496996 7.328443,3.4263406 L 7.2869782,3.2827414 q -0.012703,-0.030397 0.028753,-0.018376 0.5338962,0.1531261 1.0731431,0.2842483 0.0087,0.00228 0.012036,0.017921 z"
       id="path18"
       style="stroke-width:0.0224878" /><path
       fill="#4bcfff"
       d="m 7.1888955,3.3423988 q 0.051269,0.027902 0.094964,0.075769 0.020512,0.022229 0.044583,0.00817 c 0.0107,0.023367 0.020284,0.046279 0.039233,0.065338 q 0.2875684,0.2921889 0.5726848,0.5864187 0.053052,0.054902 0.092513,0.1206871 C 8.0935075,4.3006371 8.0580609,4.4127032 7.9287699,4.419055 7.7907815,4.4258801 7.628495,4.2157936 7.5217158,4.1472834 Q 7.4873847,4.1252816 7.4497145,4.0957869 7.4350002,4.0642519 7.3922001,4.0234187 C 7.2644663,3.9015978 7.1246946,3.7859018 7.0034256,3.6581827 Q 6.9762279,3.629598 6.9439077,3.6026058 Z"
       id="path19"
       style="stroke-width:0.0224878" /><path
       fill="#ffffff"
       d="m 5.3745401,3.3439869 0.911079,0.9110474 q 0.023631,0.037428 0.031652,0.045596 0.4672427,0.4720841 0.9322559,0.9459832 0.012036,0.012476 0.0078,0.039923 Q 7.0252682,5.3868066 6.8005635,5.4140293 L 5.9853413,4.5862372 a 0.00785239,0.0081146 29.512881 0 0 -0.011368,0 L 5.7474855,4.814226 q -0.0069,0.00727 -0.016938,0.0093 l -0.0078,0.00161 Q 5.7182675,4.813115 5.7287675,4.803134 5.837107,4.6990078 5.9392048,4.5887565 c 0.00514,-0.00543 0.01048,-0.00638 0.015382,-0.00975 a 0.01469192,0.01431903 71.942248 0 0 0.0022,-0.022684 L 5.1319756,3.7151467 Q 5.222481,3.4980473 5.3745137,3.3440133 Z"
       id="path20"
       style="stroke-width:0.0224878" /><path
       fill="#acdc48"
       d="M 5.132002,3.7151203 5.9568102,4.556297 a 0.01469192,0.01431903 71.942248 0 1 -0.0022,0.022684 c -0.00492,0.00338 -0.010252,0.00433 -0.015382,0.00975 q -0.1020978,0.1102505 -0.210438,0.2143775 -0.01048,0.00998 -0.00602,0.022002 l -0.010032,0.00272 C 5.6003867,4.7733825 5.4962825,4.616628 5.406668,4.5258856 5.3411323,4.4594178 5.2778202,4.379338 5.2209751,4.3187677 Q 5.1420614,4.234832 5.0615867,4.1477194 4.8770078,3.9517176 4.688416,3.7520853 C 4.6081644,3.667015 4.4824371,3.5177447 4.6101709,3.4015952 4.700677,3.3190202 4.8141441,3.3920694 4.8917207,3.4712407 Q 5.004073,3.5858021 5.1320299,3.7151086 Z"
       id="path21"
       style="stroke-width:0.0224878" /><path
       fill="#f3a4ff"
       d="m 6.5816587,3.9576283 q 0.016945,0.00862 0.029429,0.021327 0.4286772,0.431477 0.8533415,0.8672647 0.023183,0.023822 0.048818,0.024277 L 7.6748647,5.0463084 Q 7.6697275,5.0726255 7.6485623,5.085784 7.459302,5.2026145 7.2573352,5.2865502 7.2615917,5.2591029 7.249534,5.2466269 6.7845201,4.7727279 6.3172773,4.3006437 6.309256,4.2924756 6.285625,4.2550475 Z"
       id="path22"
       style="stroke-width:0.0224878" /><path
       fill="#00c8b4"
       d="M 8.4755971,4.0846663 Q 8.4974448,4.143421 8.5010114,4.1917421 8.5734604,5.1649479 7.9274349,5.8679689 7.5830222,6.2427329 7.1750757,6.395633 7.1059733,6.421495 6.9135895,6.4643685 C 6.5593662,6.5433137 6.1454012,6.5460357 5.7885044,6.4836476 Q 5.6703566,6.4627759 5.5530997,6.4443995 L 5.0778319,6.3334672 4.476613,6.1665023 Q 4.4618986,6.1494908 4.4400583,6.1424529 4.0686709,5.9940904 3.6734324,5.9237653 C 3.4491732,5.8759015 3.2057434,5.8210004 2.977249,5.8366534 q -0.067099,-0.015654 -0.2166797,-0.00862 -0.2327297,0.011346 -0.3751764,0.035615 -0.04258,0.020189 -0.162955,0.037208 -0.1393255,0.019507 -0.295371,0.1279459 -0.0047,-0.00455 -0.028754,-0.00521 -0.014047,-2.268e-4 -0.027645,0.00638 Q 1.5180071,6.2021558 1.304671,6.4954785 1.2632066,6.552193 1.2210758,6.5406196 1.2212989,6.4673488 1.2409127,6.397475 C 1.3686472,5.9482998 1.6221091,5.4789383 1.9832412,5.1826661 2.1720553,5.027725 2.3929703,4.8866214 2.6352859,4.8396624 2.7708216,4.8133453 2.9074721,4.7827204 3.04234,4.7775025 q 0.2298316,-0.00885 0.4008124,0.015199 0.2688426,0.037656 0.6836993,0.1401966 L 4.8821083,5.1874282 5.2971881,5.29473 q 0.089168,0.033575 0.185916,0.03312 0.056399,0.034258 0.1277338,0.050132 0.3056248,0.067833 0.6393376,0.060567 0.2603721,0.020872 0.5503924,-0.024497 0.2247047,-0.02722 0.4567658,-0.1274916 0.2019668,-0.083936 0.3912272,-0.2007669 0.02118,-0.013159 0.026302,-0.039475 0.041685,-0.00205 0.075125,-0.028585 Q 8.0239581,4.801088 8.1989511,4.5735528 8.3353792,4.3959259 8.4755963,4.084681 Z"
       id="path23"
       style="stroke-width:0.0224878" /><path
       fill="#ffffff"
       d="m 5.0615588,4.1477318 q 0.080475,0.087113 0.1593884,0.1710483 c 0.056847,0.060567 0.120155,0.1406502 0.1856929,0.207118 0.089615,0.090742 0.1937187,0.2474983 0.306071,0.3019436 0.0069,0.021327 0.010252,0.039248 0.026082,0.05626 Q 5.9898033,5.1524705 6.2501747,5.4385336 5.916462,5.4457991 5.6108372,5.3779663 5.5395038,5.3620851 5.4831034,5.3278347 5.434058,5.2475281 5.3645094,5.1948984 C 5.306995,5.1309259 5.1993248,5.0456281 5.1676702,4.9687245 5.1150581,4.6910548 5.0649031,4.435389 5.0615595,4.1477377 Z"
       id="path24"
       style="stroke-width:0.0224878" /><path
       fill="#4bcfff"
       d="m 5.1676695,4.9687186 c 0.031652,0.076904 0.1393255,0.1622007 0.1968391,0.226174 -0.010252,0.051951 -0.074678,0.03607 -0.067319,0.099815 L 4.8821097,5.1874062 Q 4.6854937,4.9594174 4.5107231,4.7330167 c -0.055283,-0.071231 -0.1299626,-0.22073 -0.041684,-0.2953644 0.076239,-0.064428 0.1761077,0.016564 0.2313918,0.073501 q 0.3187775,0.3275782 0.4529761,0.4589264 0.0087,0.0084 0.014267,-0.00139 z"
       id="path25"
       style="stroke-width:0.0224878" /><path
       fill="#4bcfff"
       d="M 6.8005664,5.4140337 Q 6.5105461,5.4594023 6.250174,5.4385307 5.9898026,5.1524675 5.7387934,4.884099 C 5.7229634,4.867088 5.7196244,4.849166 5.7127114,4.827839 l 0.010032,-0.00272 0.0078,-0.00161 q 0.010032,-0.00205 0.016938,-0.0093 L 5.9739706,4.5862232 a 0.00785239,0.0081146 29.512881 0 1 0.011368,0 z"
       id="path26"
       style="stroke-width:0.0224878" /><path
       fill="#acdc48"
       d="m 5.3645086,5.1948926 q 0.06955,0.052627 0.1185941,0.1329363 -0.096748,4.528e-4 -0.1859161,-0.03312 c -0.00735,-0.063745 0.057067,-0.047864 0.067319,-0.099815 z"
       id="path27"
       style="stroke-width:0.0224878" /><path
       fill="#ffffff"
       d="m 2.9772453,5.8366637 0.93404,0.8443522 0.7026475,0.6512991 Q 4.5945362,7.6664717 4.4244493,7.9368819 L 3.5561718,7.0544184 2.3853892,5.8636588 q 0.1424467,-0.024277 0.3751764,-0.035615 0.1495801,-0.00705 0.2166797,0.00862 z"
       id="path28"
       style="stroke-width:0.0224878" /><path
       fill="#f3a4ff"
       d="M 3.6734287,5.9237756 4.1767844,6.414008 3.9112853,6.6810159 2.9772453,5.8366637 c 0.2284945,-0.015654 0.4719242,0.039248 0.6961834,0.087112 z"
       id="path29"
       style="stroke-width:0.0224878" /><path
       fill="#4bcfff"
       d="M 2.3853892,5.8636588 3.5561718,7.0544184 3.2451963,7.363621 Q 2.8131755,6.9269261 2.3856123,6.4906848 2.3836309,6.4886299 2.3243111,6.4210393 2.2866409,6.3781658 2.2398243,6.347538 L 1.9270654,6.0288075 q 0.1560455,-0.1084364 0.295371,-0.1279459 0.1203774,-0.017011 0.162955,-0.037208 z"
       id="path30"
       style="stroke-width:0.0224878" /><path
       fill="#ffffff"
       d="m 3.6734287,5.9237756 q 0.3952386,0.070328 0.7666259,0.2186876 -0.0036,0.044921 0.00735,0.090288 0.071781,0.2960455 0.1350895,0.5793867 L 4.1767844,6.414008 Z"
       id="path31"
       style="stroke-width:0.0224878" /><path
       fill="#00998e"
       d="M 1.9270632,6.0288089 2.2398221,6.3475394 Q 2.1798565,6.6866873 2.2081697,7.0457975 2.1430743,6.994756 2.0875693,6.9387225 C 1.9897067,6.840041 1.9085635,6.7697159 1.8169426,6.6857795 1.746277,6.6211244 1.6252303,6.5528432 1.5416352,6.6322427 c -0.095188,0.089835 0.00536,0.2397853 0.077354,0.3116985 q 0.2897971,0.2887851 0.5744674,0.583696 0.028981,0.029942 0.051717,0.058982 0.035894,0.075996 0.040129,0.1036727 0.036562,0.2490865 0.1090088,0.4884174 -0.053948,0.00587 -0.096302,-0.019507 Q 2.0824431,7.8996814 1.8621967,7.6490075 C 1.7893001,7.5657521 1.6493076,7.4917973 1.5668265,7.5929755 c -0.094073,0.1152417 0.0022,0.2211828 0.066431,0.3098828 Q 1.6664731,7.948227 1.6918874,8.00585 1.49059,7.9509482 1.3095777,7.9207798 1.3004409,7.9193854 1.2857265,7.904216 C 1.1845204,7.4702431 1.1421651,6.9852287 1.2210788,6.5405932 q 0.042132,0.011573 0.083595,-0.045141 0.2133361,-0.2933228 0.565997,-0.4655049 0.013599,-0.0066 0.027645,-0.00638 0.024079,6.803e-4 0.028753,0.00521 z"
       id="path32"
       style="stroke-width:0.0224878" /><path
       fill="#bb62c8"
       d="m 4.4400546,6.1424632 q 0.021848,0.00705 0.036562,0.024049 0.2175706,0.2184608 0.4362567,0.4366949 c 0.053948,0.053764 0.1393255,0.095506 0.2095456,0.053309 0.1540384,-0.092329 -0.01627,-0.2372893 -0.044583,-0.3230406 L 5.5531036,6.4444078 C 5.6204226,6.7533836 5.6552014,7.0675772 5.6097226,7.37746 Q 5.5664747,7.453457 5.5256811,7.5305874 C 5.3299567,7.9001327 5.0142997,8.0888764 4.6219585,8.1986734 q 0.0214,-0.03199 -0.00802,-0.065558 Q 4.5171894,8.0224108 4.4244537,7.9368863 4.5945436,7.6664761 4.6139372,7.3323194 q 0.080252,0.066468 0.2695119,0.2479519 c 0.061749,0.05921 0.1607262,0.065338 0.2273797,0.010208 C 5.2031178,7.5142563 5.1509578,7.382 5.0809598,7.2998785 Q 4.97106,7.1707991 4.5825086,6.8121424 4.5191965,6.5288012 4.4474184,6.2327557 q -0.01092,-0.045369 -0.00735,-0.090288 z"
       id="path33"
       style="fill:#004455;stroke-width:0.0224878" /><path
       fill="#4bcfff"
       d="m 4.476613,6.1665096 0.6012189,0.166965 c 0.028313,0.085751 0.1986225,0.2307115 0.044583,0.3230413 C 5.0521974,6.6987068 4.9668167,6.656968 4.912869,6.6032067 Q 4.6941836,6.3849726 4.4766122,6.1665118 Z"
       id="path34"
       style="stroke-width:0.0224878" /><path
       fill="#ffffff"
       d="M 3.2451963,7.363621 4.1112457,8.243816 Q 4.0341146,8.2528868 3.9968869,8.2934999 3.781322,8.351572 3.5575097,8.3327479 L 2.8947642,7.7050424 2.2081675,7.0458027 q -0.028313,-0.3591103 0.031652,-0.6982581 0.046814,0.030625 0.084487,0.073501 0.059298,0.067605 0.061301,0.069646 0.4275632,0.4362413 0.859584,0.8729354 z"
       id="path35"
       style="stroke-width:0.0224878" /><path
       fill="#3b78eb"
       d="m 4.1767844,6.414008 0.4057169,0.39813 q 0.3885514,0.3586567 0.4984511,0.4877364 c 0.069998,0.082121 0.1221614,0.2143775 0.029869,0.2906008 -0.066651,0.055129 -0.16563,0.049001 -0.2273797,-0.010208 Q 4.6941814,7.3987835 4.6139298,7.332315 L 3.9112824,6.6810159 Z"
       id="path36"
       style="stroke-width:0.0224878" /><path
       fill="#acdc48"
       d="M 2.2081675,7.0457975 2.8947642,7.7050373 2.6377364,7.9706831 2.2451721,7.5866186 Q 2.2224364,7.5575789 2.1934554,7.5276365 1.9087851,7.2327256 1.6189879,6.9439404 C 1.5469867,6.8720272 1.4464469,6.7220766 1.5416344,6.632242 1.6252294,6.552843 1.7462755,6.621124 1.8169418,6.685779 1.9085628,6.769715 1.989706,6.8400404 2.0875685,6.938722 q 0.055511,0.056032 0.1206005,0.107075 z"
       id="path37"
       style="stroke-width:0.0224878" /><path
       fill="#acdc48"
       d="m 3.5561718,7.0544184 0.8682775,0.8824635 q 0.092736,0.085524 0.1894835,0.1962293 0.029429,0.033575 0.00802,0.065558 -0.2329508,0.0887 -0.4609998,0.089154 -0.052612,-0.034933 -0.049713,-0.044011 L 3.2451904,7.3636173 Z"
       id="path38"
       style="stroke-width:0.0224878" /><path
       fill="#f3a4ff"
       d="M 5.6097217,7.3774591 C 5.6500706,7.7272688 5.4871148,8.1864219 5.3112302,8.4572864 5.0403811,8.8749252 4.5729153,9.2467397 4.0688904,9.3606207 3.7779784,9.426406 3.4897415,9.4234631 3.1961538,9.4125723 3.0381026,9.4067012 2.8929809,9.377412 2.7409489,9.3461045 q -0.020952,-0.00433 -0.051269,0.00661 -0.012483,-0.00521 -0.027418,-0.00862 Q 2.1321548,9.2231725 1.6152011,9.053032 1.5967001,9.046942 1.5670511,9.046432 1.5447561,9.023748 1.5249191,9.019212 1.2975394,8.967943 1.0652552,8.919396 1.0257942,8.910996 1.0260222,8.870167 l 0.00286,-0.9759278 q 2.231e-4,-0.03108 0.029869,-0.023822 0.096971,0.023822 0.199738,0.042873 0.015382,0.00294 0.027198,-0.00907 0.014714,0.015199 0.023851,0.016564 0.1810115,0.03017 0.3823097,0.08507 0.2226982,0.052634 0.4621158,0.1247704 c 0.047262,0.014289 0.094741,0.019734 0.1440069,0.028585 q 0.042352,0.025407 0.096302,0.019507 0.030985,0.02813 0.064428,0.032665 0.2269342,0.03017 0.4514158,0.075997 0.01048,0.00205 0.018729,-0.00499 0.00558,-0.00477 0.012263,-0.00705 0.3007203,0.062615 0.6163773,0.057397 0.2238123,0.018831 0.4393772,-0.039248 L 4.160932,8.2878376 Q 4.388981,8.2873848 4.6219331,8.1986836 C 5.0142747,8.0888837 5.3299317,7.90014 5.5256561,7.5305947 q 0.040797,-0.07713 0.084041,-0.1531268 z"
       id="path39"
       style="fill:#00aad4;stroke-width:0.0224878" /><path
       fill="#4bcfff"
       d="M 2.2980043,8.1591993 C 2.2487388,8.1503486 2.2012565,8.1449106 2.1539974,8.1306145 Q 1.9145798,8.0584738 1.6918816,8.0058441 1.6664672,7.948227 1.6332517,7.9028525 c -0.0642,-0.0887 -0.1605032,-0.1946412 -0.066431,-0.3098828 0.082481,-0.1011775 0.2224751,-0.02722 0.2953703,0.056032 q 0.2202463,0.2506739 0.4358112,0.5101955 z"
       id="path40"
       style="stroke-width:0.0224878" /><path
       fill="#ffffff"
       d="m 2.2451721,7.5866186 0.3925643,0.3840645 q 6.685e-4,0.014516 0.015602,0.03017 c 0.077354,0.081895 0.172541,0.1826187 0.2877915,0.2744943 q -0.00668,0.00228 -0.012263,0.00705 -0.00825,0.00705 -0.018729,0.00499 Q 2.6856567,8.2415593 2.4587232,8.2113894 2.4252875,8.2068393 2.3942956,8.1787242 2.3218467,7.9393932 2.2852869,7.6903068 2.2810303,7.662632 2.2451581,7.586634 Z"
       id="path41"
       style="stroke-width:0.0224878" /><path
       fill="#4bcfff"
       d="m 2.8947642,7.7050373 0.6627455,0.6277055 q -0.315657,0.00521 -0.6163773,-0.057397 C 2.8258819,8.1834702 2.7306944,8.0827463 2.6533409,8.0008523 q -0.014934,-0.015654 -0.015602,-0.03017 z"
       id="path42"
       style="stroke-width:0.0224878" /><path
       fill="#bb62c8"
       d="m 4.1112457,8.243816 q -0.00294,0.00907 0.049713,0.044011 l -0.1640705,0.00565 q 0.03723,-0.040606 0.1143587,-0.049684 z"
       id="path43"
       style="stroke-width:0.0224878" /><path
       fill="#00998e"
       d="m 1.5670459,9.0464271 q 0.029649,4.528e-4 0.04815,0.0066 0.5169538,0.1701405 1.047061,0.2910543 0.014934,0.00338 0.027418,0.00862 l 0.040797,0.2293501 a 0.0122493,0.01181563 87.417163 0 1 -0.011595,0.014289 l -0.9962351,2.261e-4 a 0.03477123,0.03516697 3.6719556 0 1 -0.033883,-0.02722 z"
       id="path44"
       style="stroke-width:0.0224878" /><path
       style="fill:none;stroke:#18181b;stroke-width:0.131292;stroke-dasharray:none;paint-order:fill markers stroke"
       d="m 2.6299653,2.6791997 0.155421,0.575139"
       id="path49" /><path
       style="fill:none;stroke:#18181b;stroke-width:0.131292;stroke-dasharray:none;paint-order:fill markers stroke"
       d="M 2.0559771,2.5945992 1.6638715,3.1232613"
       id="path50" /><path
       style="fill:none;stroke:#18181b;stroke-width:0.131292;stroke-dasharray:none;paint-order:fill markers stroke"
       d="m 1.866989,3.7144503 0.6075553,0.057514"
       id="path51" /><path
       style="fill:none;stroke:#18181b;stroke-width:0.131292;stroke-dasharray:none;paint-order:fill markers stroke"
       d="m 7.2925975,7.5391283 0.4945219,0.071891"
       id="path52" /><path
       style="fill:none;stroke:#18181b;stroke-width:0.131292;stroke-dasharray:none;paint-order:fill markers stroke"
       d="M 6.9676261,8.0136182 7.1089184,8.5456224"
       id="path53" /><path
       style="fill:none;stroke:#18181b;stroke-width:0.131292;stroke-dasharray:none;paint-order:fill markers stroke"
       d="M 8.0131869,8.1717817 7.6361758,8.6715457"
       id="path54"
       sodipodi:nodetypes="cc" /><ellipse
       style="fill:#00c8b4;fill-opacity:1;stroke:#00998e;stroke-width:0.157562;stroke-dasharray:none;stroke-opacity:1;paint-order:fill markers stroke"
       id="ellipse44"
       cx="-2.0422959"
       cy="3.2368863"
       transform="matrix(0.58198838,-0.8131971,0.80339707,0.59544366,0,0)"
       rx="0.61442524"
       ry="0.61113709" /><ellipse
       style="font-variation-settings:normal;vector-effect:none;fill:#00c8b4;fill-opacity:1;stroke:#00998e;stroke-width:0.157562;stroke-linecap:butt;stroke-linejoin:miter;stroke-miterlimit:4;stroke-dasharray:none;stroke-dashoffset:0;stroke-opacity:1;-inkscape-stroke:none;paint-order:fill markers stroke;stop-color:#000000"
       id="ellipse45"
       cx="-0.32203943"
       cy="3.284977"
       transform="matrix(0.58198838,-0.8131971,0.80339707,0.59544366,0,0)"
       rx="0.61442524"
       ry="0.61113709" /><ellipse
       style="font-variation-settings:normal;vector-effect:none;fill:#00c8b4;fill-opacity:1;stroke:#00998e;stroke-width:0.157562;stroke-linecap:butt;stroke-linejoin:miter;stroke-miterlimit:4;stroke-dasharray:none;stroke-dashoffset:0;stroke-opacity:1;-inkscape-stroke:none;paint-order:fill markers stroke;stop-color:#000000"
       id="ellipse46"
       cx="-1.2100483"
       cy="4.616363"
       transform="matrix(0.58198838,-0.8131971,0.80339707,0.59544366,0,0)"
       rx="0.61442524"
       ry="0.61113709" /><ellipse
       style="font-variation-settings:normal;vector-effect:none;fill:#00c8b4;fill-opacity:1;stroke:#00998e;stroke-width:0.157551;stroke-linecap:butt;stroke-linejoin:miter;stroke-miterlimit:4;stroke-dasharray:none;stroke-dashoffset:0;stroke-opacity:1;-inkscape-stroke:none;paint-order:fill markers stroke;stop-color:#000000"
       id="ellipse47"
       cx="6.8126011"
       cy="7.522541"
       rx="0.60740143"
       ry="0.61811858" /><ellipse
       style="font-variation-settings:normal;vector-effect:none;fill:#00c8b4;fill-opacity:1;stroke:#00998e;stroke-width:0.157551;stroke-linecap:butt;stroke-linejoin:miter;stroke-miterlimit:4;stroke-dasharray:none;stroke-dashoffset:0;stroke-opacity:1;-inkscape-stroke:none;paint-order:fill markers stroke;stop-color:#000000"
       id="ellipse48"
       cx="8.3047533"
       cy="7.7382178"
       rx="0.60740143"
       ry="0.61811858" /><ellipse
       style="font-variation-settings:normal;vector-effect:none;fill:#00c8b4;fill-opacity:1;stroke:#00998e;stroke-width:0.157551;stroke-linecap:butt;stroke-linejoin:miter;stroke-miterlimit:4;stroke-dasharray:none;stroke-dashoffset:0;stroke-opacity:1;-inkscape-stroke:none;paint-order:fill markers stroke;stop-color:#000000"
       id="ellipse49"
       cx="7.3043513"
       cy="9.059207"
       rx="0.60740143"
       ry="0.61811858" /></g></svg>
