<?xml version="1.0" encoding="UTF-8" standalone="no"?>
<svg
   height="71.000793"
   width="70.714676"
   version="1.1"
   x="0px"
   y="0px"
   viewBox="0 0 70.714675 71.000795"
   style="fill:#000000"
   xml:space="preserve"
   id="svg8"
   sodipodi:docname="bb_docs.svg"
   inkscape:version="1.3.2 (1:1.3.2+202311252150+091e20ef0f)"
   xmlns:inkscape="http://www.inkscape.org/namespaces/inkscape"
   xmlns:sodipodi="http://sodipodi.sourceforge.net/DTD/sodipodi-0.dtd"
   xmlns:xlink="http://www.w3.org/1999/xlink"
   xmlns="http://www.w3.org/2000/svg"
   xmlns:svg="http://www.w3.org/2000/svg"
   xmlns:rdf="http://www.w3.org/1999/02/22-rdf-syntax-ns#"
   xmlns:cc="http://creativecommons.org/ns#"
   xmlns:dc="http://purl.org/dc/elements/1.1/"><metadata
   id="metadata14"><rdf:RDF><cc:Work
       rdf:about=""><dc:format>image/svg+xml</dc:format><dc:type
         rdf:resource="http://purl.org/dc/dcmitype/StillImage" /></cc:Work></rdf:RDF></metadata><defs
   id="defs12"><linearGradient
     id="linearGradient48"
     inkscape:collect="always"><stop
       style="stop-color:#fefefe;stop-opacity:1;"
       offset="0"
       id="stop48" /><stop
       style="stop-color:#e1e1e1;stop-opacity:0;"
       offset="1"
       id="stop49" /></linearGradient><linearGradient
     inkscape:collect="always"
     xlink:href="#linearGradient48"
     id="linearGradient49"
     x1="10.745524"
     y1="35.377358"
     x2="57.650702"
     y2="35.377358"
     gradientUnits="userSpaceOnUse" /></defs><sodipodi:namedview
   pagecolor="#ffffff"
   bordercolor="#666666"
   borderopacity="1"
   objecttolerance="10"
   gridtolerance="10"
   guidetolerance="10"
   inkscape:pageopacity="0"
   inkscape:pageshadow="2"
   inkscape:window-width="1920"
   inkscape:window-height="1163"
   id="namedview10"
   showgrid="false"
   fit-margin-top="3"
   fit-margin-left="3"
   fit-margin-right="3"
   fit-margin-bottom="3"
   inkscape:zoom="8.48"
   inkscape:cx="48.113208"
   inkscape:cy="34.610849"
   inkscape:current-layer="svg8"
   inkscape:window-x="0"
   inkscape:window-y="0"
   inkscape:window-maximized="1"
   inkscape:showpageshadow="0"
   inkscape:pagecheckerboard="0"
   inkscape:deskcolor="#d1d1d1"
   showguides="true"
   inkscape:lockguides="false" /><style
   type="text/css"
   id="style2">
	.st0{fill:none;}
</style>
<g
   id="g4"
   transform="matrix(1.0225126,0,0,1.0225126,-0.03869599,0.31863872)"><g
     id="g1"
     transform="matrix(0.49648655,0,0,0.49648655,-30.100668,46.645734)"><path
       d="m 136.92743,-2.2881494 c 0.57439,-2.43312 0.9,-5.1 0,-7.5 l 12.3,-6.6999996 c 1.2,1.2 2.7,2 4.6,2.2 h 0.5 c 1.7,0 3.3,-0.6 4.5,-1.7 1.4,-1.2 2.2,-2.9 2.4,-4.7 0.1,-1.8 -0.5,-3.6 -1.7,-5 -1.2,-1.4 -2.9,-2.2 -4.7,-2.4 -3.8,-0.3 -7.1,2.6 -7.4,6.4 v 0 c -0.1,0.9 0,1.7 0.3,2.5 l -12.3,6.7 c -0.6,-0.8 -1.4,-1.5 -2.3,-2.1 -1.3,-0.9 -2.8,-1.4 -4.2,-1.7 v -8.3 c 1.7,-0.4 3.2,-1.4 4.2,-2.9 1,-1.5 1.4,-3.4 1.1,-5.2 -0.3,-1.8 -1.4,-3.4 -2.9,-4.4 -1.5,-1 -3.4,-1.4 -5.2,-1.1 -1.8,0.3 -3.4,1.4 -4.4,2.9 -2.1,3.2 -1.3,7.5 1.9,9.6 0.7,0.5 1.5,0.8 2.3,1 v 8.3 c -2.5,0.4 -4.8,1.7 -6.5,3.8 l -12.3,-6.7 c 0.5,-1.6 0.4,-3.4 -0.4,-5 -0.8,-1.7 -2.2,-2.9 -4,-3.5 -1.8,-0.6 -3.599995,-0.5 -5.299994,0.3 -3.4,1.7 -4.9,5.8 -3.2,9.3 1.2,2.5 3.7,3.9 6.299994,3.9 1,0 2,-0.2 3,-0.7 0.8,-0.4 1.5,-0.9 2,-1.5 l 12.3,6.6999996 c -1,2.5 -0.6271,5.07993 0,7.5 0.25826,0.99665 0.8615,1.89234001 1.5,2.70000001 0.64384,0.81439999 1.4,1.49999999 2.3,2.09999999 1.3,0.9 2.7222,1.38823 4.2,1.7 1.04421,0.2203 2.1657,0.36288 3.2,0.1 2.43243,-0.61824 4.78429,-1.96827 6.5,-3.79999999 0.71336,-0.76159 1.16026,-1.78442001 1.4,-2.80000001 z m 13.6,-19.0999996 v 0 c 0.1,-2.1 2,-3.6 4,-3.5 1,0.1 1.9,0.5 2.6,1.3 0.7,0.8 1,1.7 0.9,2.7 -0.1,1 -0.5,1.9 -1.3,2.6 -0.8,0.7 -1.7,1 -2.7,0.9 -2.1,-0.1 -3.6,-1.9 -3.5,-4 z m -48.5,3.6 c -1.9,0.9 -4.099994,0.1 -4.999994,-1.7 -0.9,-1.9 -0.1,-4.1 1.7,-5 0.499999,-0.3 1.099998,-0.4 1.599994,-0.4 0.4,0 0.8,0.1 1.2,0.2 1,0.3 1.7,1 2.2,1.9 0.9,1.9 0.1,4.1 -1.7,5 z m 22.2,-15.6 c 0.6,-0.8 1.4,-1.4 2.4,-1.6 0.2,0 0.5,-0.1 0.7,-0.1 0.7,0 1.5,0.2 2.1,0.7 1.7,1.2 2.2,3.5 1,5.2 -0.6,0.8 -1.4,1.4 -2.4,1.6 -1,0.2 -2,0 -2.8,-0.6 -1.7,-1.2 -2.2,-3.5 -1,-5.2 z m -0.9,33.39999961 c -3.3,-2.20000001 -4.2,-6.70000001 -1.9,-10.00000001 2.2,-3.2999996 6.7,-4.1999996 10,-1.8999996 3.3,2.1999996 4.2,6.6999996 1.9,9.9999996 -2.3,3.2 -6.8,4.1 -10,1.90000001 z"
       id="path6"
       inkscape:connector-curvature="0"
       sodipodi:nodetypes="acccsccsccccccccsssscccccccsccssccaacaaaacccssscccccscccccsccsccccccc"
       style="fill:#008080;stroke:#f9f9f9" /><rect
       style="color:#000000;clip-rule:nonzero;display:inline;overflow:visible;visibility:visible;opacity:1;isolation:auto;mix-blend-mode:normal;color-interpolation:sRGB;color-interpolation-filters:linearRGB;solid-color:#000000;solid-opacity:1;vector-effect:none;fill:#008080;fill-opacity:0.784314;fill-rule:nonzero;stroke:#f9f9f9;stroke-width:1;stroke-linecap:butt;stroke-linejoin:miter;stroke-miterlimit:4;stroke-dasharray:none;stroke-dashoffset:0;stroke-opacity:1;marker:none;paint-order:markers stroke fill;color-rendering:auto;image-rendering:auto;shape-rendering:auto;text-rendering:auto;enable-background:accumulate"
       id="rect883"
       width="20"
       height="5"
       x="92.523514"
       y="15.714679"
       rx="1"
       ry="1" /><rect
       ry="1"
       rx="1.0000001"
       y="22.714664"
       x="92.523514"
       height="4"
       width="20"
       id="rect885"
       style="color:#000000;clip-rule:nonzero;display:inline;overflow:visible;visibility:visible;opacity:1;isolation:auto;mix-blend-mode:normal;color-interpolation:sRGB;color-interpolation-filters:linearRGB;solid-color:#000000;solid-opacity:1;vector-effect:none;fill:#008080;fill-opacity:0.686275;fill-rule:nonzero;stroke:#f9f9f9;stroke-width:1;stroke-linecap:butt;stroke-linejoin:miter;stroke-miterlimit:4;stroke-dasharray:none;stroke-dashoffset:0;stroke-opacity:1;marker:none;paint-order:markers stroke fill;color-rendering:auto;image-rendering:auto;shape-rendering:auto;text-rendering:auto;enable-background:accumulate" /><rect
       style="color:#000000;clip-rule:nonzero;display:inline;overflow:visible;visibility:visible;opacity:1;isolation:auto;mix-blend-mode:normal;color-interpolation:sRGB;color-interpolation-filters:linearRGB;solid-color:#000000;solid-opacity:1;vector-effect:none;fill:#008080;fill-opacity:0.588235;fill-rule:nonzero;stroke:#f9f9f9;stroke-width:1;stroke-linecap:butt;stroke-linejoin:miter;stroke-miterlimit:4;stroke-dasharray:none;stroke-dashoffset:0;stroke-opacity:1;marker:none;paint-order:markers stroke fill;color-rendering:auto;image-rendering:auto;shape-rendering:auto;text-rendering:auto;enable-background:accumulate"
       id="rect887"
       width="20"
       height="3"
       x="92.523514"
       y="28.71468"
       rx="1"
       ry="1" /><rect
       ry="1"
       rx="1"
       y="15.714679"
       x="142.23819"
       height="5"
       width="20"
       id="rect963"
       style="color:#000000;clip-rule:nonzero;display:inline;overflow:visible;visibility:visible;opacity:1;isolation:auto;mix-blend-mode:normal;color-interpolation:sRGB;color-interpolation-filters:linearRGB;solid-color:#000000;solid-opacity:1;vector-effect:none;fill:#008080;fill-opacity:0.784314;fill-rule:nonzero;stroke:#f9f9f9;stroke-width:1;stroke-linecap:butt;stroke-linejoin:miter;stroke-miterlimit:4;stroke-dasharray:none;stroke-dashoffset:0;stroke-opacity:1;marker:none;paint-order:markers stroke fill;color-rendering:auto;image-rendering:auto;shape-rendering:auto;text-rendering:auto;enable-background:accumulate" /><rect
       style="color:#000000;clip-rule:nonzero;display:inline;overflow:visible;visibility:visible;opacity:1;isolation:auto;mix-blend-mode:normal;color-interpolation:sRGB;color-interpolation-filters:linearRGB;solid-color:#000000;solid-opacity:1;vector-effect:none;fill:#008080;fill-opacity:0.686275;fill-rule:nonzero;stroke:#f9f9f9;stroke-width:1;stroke-linecap:butt;stroke-linejoin:miter;stroke-miterlimit:4;stroke-dasharray:none;stroke-dashoffset:0;stroke-opacity:1;marker:none;paint-order:markers stroke fill;color-rendering:auto;image-rendering:auto;shape-rendering:auto;text-rendering:auto;enable-background:accumulate"
       id="rect965"
       width="20"
       height="4"
       x="142.23819"
       y="22.714664"
       rx="1.0000001"
       ry="1" /><rect
       ry="1"
       rx="1"
       y="28.71468"
       x="142.23819"
       height="3"
       width="20"
       id="rect967"
       style="color:#000000;clip-rule:nonzero;display:inline;overflow:visible;visibility:visible;opacity:1;isolation:auto;mix-blend-mode:normal;color-interpolation:sRGB;color-interpolation-filters:linearRGB;solid-color:#000000;solid-opacity:1;vector-effect:none;fill:#008080;fill-opacity:0.588235;fill-rule:nonzero;stroke:#f9f9f9;stroke-width:1;stroke-linecap:butt;stroke-linejoin:miter;stroke-miterlimit:4;stroke-dasharray:none;stroke-dashoffset:0;stroke-opacity:1;marker:none;paint-order:markers stroke fill;color-rendering:auto;image-rendering:auto;shape-rendering:auto;text-rendering:auto;enable-background:accumulate" /><rect
       style="color:#000000;clip-rule:nonzero;display:inline;overflow:visible;visibility:visible;opacity:1;isolation:auto;mix-blend-mode:normal;color-interpolation:sRGB;color-interpolation-filters:linearRGB;solid-color:#000000;solid-opacity:1;vector-effect:none;fill:#008080;fill-opacity:0.784314;fill-rule:nonzero;stroke:#f9f9f9;stroke-width:1;stroke-linecap:butt;stroke-linejoin:miter;stroke-miterlimit:4;stroke-dasharray:none;stroke-dashoffset:0;stroke-opacity:1;marker:none;paint-order:markers stroke fill;color-rendering:auto;image-rendering:auto;shape-rendering:auto;text-rendering:auto;enable-background:accumulate"
       id="rect973"
       width="20"
       height="5"
       x="117.38085"
       y="15.714679"
       rx="1"
       ry="1" /><rect
       ry="1"
       rx="1.0000001"
       y="22.714664"
       x="117.38085"
       height="4"
       width="20"
       id="rect975"
       style="color:#000000;clip-rule:nonzero;display:inline;overflow:visible;visibility:visible;opacity:1;isolation:auto;mix-blend-mode:normal;color-interpolation:sRGB;color-interpolation-filters:linearRGB;solid-color:#000000;solid-opacity:1;vector-effect:none;fill:#008080;fill-opacity:0.686275;fill-rule:nonzero;stroke:#f9f9f9;stroke-width:1;stroke-linecap:butt;stroke-linejoin:miter;stroke-miterlimit:4;stroke-dasharray:none;stroke-dashoffset:0;stroke-opacity:1;marker:none;paint-order:markers stroke fill;color-rendering:auto;image-rendering:auto;shape-rendering:auto;text-rendering:auto;enable-background:accumulate" /><rect
       style="color:#000000;clip-rule:nonzero;display:inline;overflow:visible;visibility:visible;opacity:1;isolation:auto;mix-blend-mode:normal;color-interpolation:sRGB;color-interpolation-filters:linearRGB;solid-color:#000000;solid-opacity:1;vector-effect:none;fill:#008080;fill-opacity:0.588235;fill-rule:nonzero;stroke:#f9f9f9;stroke-width:1;stroke-linecap:butt;stroke-linejoin:miter;stroke-miterlimit:4;stroke-dasharray:none;stroke-dashoffset:0;stroke-opacity:1;marker:none;paint-order:markers stroke fill;color-rendering:auto;image-rendering:auto;shape-rendering:auto;text-rendering:auto;enable-background:accumulate"
       id="rect977"
       width="20"
       height="3"
       x="117.38085"
       y="28.71468"
       rx="1"
       ry="1" /><rect
       ry="1"
       rx="1"
       y="7.7146792"
       x="92.523514"
       height="6"
       width="20"
       id="rect995"
       style="color:#000000;clip-rule:nonzero;display:inline;overflow:visible;visibility:visible;opacity:1;isolation:auto;mix-blend-mode:normal;color-interpolation:sRGB;color-interpolation-filters:linearRGB;solid-color:#000000;solid-opacity:1;vector-effect:none;fill:#008080;fill-opacity:1;fill-rule:nonzero;stroke:#f9f9f9;stroke-width:1;stroke-linecap:butt;stroke-linejoin:miter;stroke-miterlimit:4;stroke-dasharray:none;stroke-dashoffset:0;stroke-opacity:1;marker:none;paint-order:markers stroke fill;color-rendering:auto;image-rendering:auto;shape-rendering:auto;text-rendering:auto;enable-background:accumulate" /><rect
       style="color:#000000;clip-rule:nonzero;display:inline;overflow:visible;visibility:visible;opacity:1;isolation:auto;mix-blend-mode:normal;color-interpolation:sRGB;color-interpolation-filters:linearRGB;solid-color:#000000;solid-opacity:1;vector-effect:none;fill:#008080;fill-opacity:1;fill-rule:nonzero;stroke:#f9f9f9;stroke-width:1;stroke-linecap:butt;stroke-linejoin:miter;stroke-miterlimit:4;stroke-dasharray:none;stroke-dashoffset:0;stroke-opacity:1;marker:none;paint-order:markers stroke fill;color-rendering:auto;image-rendering:auto;shape-rendering:auto;text-rendering:auto;enable-background:accumulate"
       id="rect997"
       width="20"
       height="6"
       x="142.23819"
       y="7.7146792"
       rx="1"
       ry="1" /><rect
       ry="1"
       rx="1"
       y="7.7146792"
       x="117.38085"
       height="6"
       width="20"
       id="rect999"
       style="color:#000000;clip-rule:nonzero;display:inline;overflow:visible;visibility:visible;opacity:1;isolation:auto;mix-blend-mode:normal;color-interpolation:sRGB;color-interpolation-filters:linearRGB;solid-color:#000000;solid-opacity:1;vector-effect:none;fill:#008080;fill-opacity:1;fill-rule:nonzero;stroke:#f9f9f9;stroke-width:1;stroke-linecap:butt;stroke-linejoin:miter;stroke-miterlimit:4;stroke-dasharray:none;stroke-dashoffset:0;stroke-opacity:1;marker:none;paint-order:markers stroke fill;color-rendering:auto;image-rendering:auto;shape-rendering:auto;text-rendering:auto;enable-background:accumulate" /></g><g
     id="g3"
     transform="matrix(0.74583766,0,0,0.74583766,-144.50883,-13.162227)"><path
       fill="#000000"
       d="m 277.53113,22.079245 h -5.5 v -2.2 c 0,-0.7 -0.5,-1.2 -1.1,-1.2 h -64.4 c -0.7,0 -1.2,0.5 -1.2,1.2 v 87.599995 c 0,0.7 0.5,1.2 1.2,1.2 h 64.3 c 0.7,0 1.2,-0.5 1.2,-1.2 v -1.6 h 5.4 c 0.7,0 1.2,-0.5 1.2,-1.2 v -16.299995 -16.3 -16.3 -16.3 -16.2 c 0,-0.7 -0.5,-1.2 -1.1,-1.2 z m -1.2,32.5 h -4.3 v -13.9 h 4.2 v 13.9 z m 0,16.3 h -4.3 v -13.9 h 4.2 v 13.9 z m -4.3,2.4 h 4.2 v 13.9 h -4.2 z m 4.3,-48.9 v 13.9 h -4.3 v -13.9 z m -6.6,81.900005 h -62 V 21.079245 h 61.9 v 2.2 16.3 16.3 16.3 16.3 16.199995 1.6 z m 6.6,-2.8 h -4.3 V 89.579245 h 4.2 v 13.900005 z"
       id="path2" /><g
       id="g2"
       transform="translate(0,-8)"><path
         fill="#000000"
         d="m 253.43113,37.579245 h -28.7 c -0.5,0 -1,0.4 -1,1 0,0.6 0.4,1 1,1 h 28.8 c 0.5,0 1,-0.4 1,-1 0,-0.6 -0.5,-1 -1.1,-1 z"
         id="path3" /><path
         fill="#000000"
         d="m 253.43113,46.079245 h -28.7 c -0.5,0 -1,0.4 -1,1 v 0 c 0,0.5 0.4,1 1,1 h 28.8 c 0.5,0 1,-0.4 1,-1 v 0 c -0.1,-0.6 -0.5,-1 -1.1,-1 z"
         id="path4" /><path
         fill="#000000"
         d="m 239.13113,55.934598 c 0,-0.5 -0.4,-1 -1,-1 h -13.4 c -0.5,0 -1,0.4 -1,1 0,0.5 0.4,1 1,1 h 13.4 c 0.5,0 1,-0.5 1,-1 z"
         id="path6-3" /></g></g></g><path
   style="fill:#ececec;fill-opacity:1;stroke:#ffffff;stroke-width:0.0891398;stroke-linecap:round;stroke-linejoin:round"
   d="M 10.67217,35.377358 V 2.9481132 H 34.198113 57.724057 V 35.377358 67.806604 H 34.198113 10.67217 Z m 15.679368,28.75135 c 0.317458,-0.340752 0.325355,-1.143945 0.01501,-1.527201 l -0.22543,-0.278394 h -4.914706 -4.914706 l -0.22543,0.278394 c -0.316689,0.391096 -0.300961,1.159025 0.03097,1.512355 l 0.256405,0.27293 h 4.868718 c 4.856685,0 4.869313,-6.38e-4 5.109161,-0.258084 z m 12.617924,0 c 0.317459,-0.340752 0.325355,-1.143945 0.01501,-1.527201 L 38.759046,62.323113 H 33.84434 28.929633 l -0.225429,0.278394 c -0.31669,0.391096 -0.300962,1.159025 0.03097,1.512355 l 0.256406,0.27293 h 4.868718 c 4.856685,0 4.869312,-6.38e-4 5.10916,-0.258084 z m 12.622519,0.02223 c 0.315959,-0.315958 0.321669,-1.165059 0.01042,-1.549436 l -0.225429,-0.278394 h -4.914707 -4.914706 l -0.225429,0.278394 c -0.31669,0.391096 -0.300963,1.159025 0.03097,1.512355 l 0.256405,0.27293 h 4.873312 c 4.71608,0 4.880922,-0.0076 5.109161,-0.235849 z M 26.366639,61.573021 c 0.290089,-0.358383 0.316151,-1.60316 0.04177,-1.994895 l -0.183574,-0.262088 h -4.998419 -4.998419 l -0.183573,0.262088 c -0.213667,0.305052 -0.251031,1.514164 -0.05794,1.874958 0.0691,0.129111 0.241563,0.282358 0.383254,0.340548 0.141692,0.05819 2.398258,0.095 5.014591,0.08179 l 4.756969,-0.02401 z m 12.617925,0 c 0.290088,-0.358383 0.316151,-1.60316 0.04177,-1.994895 L 38.842758,59.316038 H 33.84434 28.845921 l -0.183574,0.262088 c -0.213667,0.305052 -0.251031,1.514164 -0.05794,1.874958 0.0691,0.129111 0.241564,0.282358 0.383255,0.340548 0.141692,0.05819 2.398257,0.095 5.01459,0.08179 l 4.75697,-0.02401 z m 12.617924,0 c 0.290089,-0.358383 0.316151,-1.60316 0.04177,-1.994895 l -0.183574,-0.262088 h -4.998419 -4.998418 l -0.183575,0.262088 c -0.213666,0.305052 -0.25103,1.514164 -0.05794,1.874958 0.0691,0.129111 0.241564,0.282358 0.383255,0.340548 0.141692,0.05819 2.398257,0.095 5.014591,0.08179 l 4.756969,-0.02401 z M 26.302529,58.554888 c 0.261564,-0.261563 0.289452,-0.385285 0.289452,-1.284105 0,-0.803627 -0.0433,-1.048121 -0.22543,-1.27305 l -0.22543,-0.278393 h -4.914706 -4.914706 l -0.22543,0.278393 c -0.182135,0.224929 -0.22543,0.469423 -0.22543,1.27305 0,0.89882 0.02789,1.022542 0.289451,1.284105 l 0.289451,0.289452 h 4.786664 4.786664 z m 12.617925,0 c 0.261564,-0.261563 0.289452,-0.385285 0.289452,-1.284105 0,-0.803627 -0.04329,-1.048121 -0.225431,-1.27305 L 38.759046,55.71934 H 33.84434 28.929633 l -0.225429,0.278393 c -0.182136,0.224929 -0.22543,0.469423 -0.22543,1.27305 0,0.89882 0.02789,1.022542 0.289451,1.284105 l 0.289451,0.289452 h 4.786664 4.786664 z m 12.617925,0 c 0.261563,-0.261563 0.289451,-0.385285 0.289451,-1.284105 0,-0.803627 -0.0433,-1.048121 -0.22543,-1.27305 L 51.376971,55.71934 h -4.914707 -4.914706 l -0.225429,0.278393 c -0.182136,0.224929 -0.225431,0.469423 -0.225431,1.27305 0,0.89882 0.02789,1.022542 0.289452,1.284105 l 0.28945,0.289452 h 4.786664 4.786664 z m -25.17174,-3.58564 c 0.190083,-0.234834 0.225342,-0.473518 0.225342,-1.525419 0,-1.11805 -0.02652,-1.275252 -0.256404,-1.519955 l -0.256406,-0.272931 h -4.83623 c -5.860257,0 -5.382092,-0.154429 -5.382092,1.738215 0,1.298757 0.09366,1.630175 0.508888,1.8007 0.141692,0.05819 2.398258,0.095 5.014591,0.08179 l 4.756969,-0.02401 z m 12.617925,0 c 0.190082,-0.234834 0.225342,-0.473518 0.225342,-1.525419 0,-1.11805 -0.02652,-1.275252 -0.256405,-1.519955 l -0.256405,-0.272931 h -4.83623 c -5.860258,0 -5.382092,-0.154429 -5.382092,1.738215 0,1.298757 0.09366,1.630175 0.508888,1.8007 0.141692,0.05819 2.398257,0.095 5.01459,0.08179 l 4.75697,-0.02401 z m 12.617924,0 c 0.190083,-0.234834 0.225342,-0.473518 0.225342,-1.525419 0,-1.11805 -0.02652,-1.275252 -0.256404,-1.519955 L 51.31502,51.650943 h -4.864752 -4.864754 l -0.244408,0.310715 c -0.209995,0.266966 -0.244408,0.475605 -0.244408,1.481809 0,1.24573 0.09654,1.57705 0.508888,1.746391 0.141692,0.05819 2.398257,0.095 5.014591,0.08179 l 4.756969,-0.02401 z M 34.9727,50.401374 c 1.027026,-0.301849 2.23201,-0.996408 2.953568,-1.702452 0.960677,-0.940022 1.204928,-1.722844 1.230675,-3.944303 l 0.01911,-1.648682 2.855627,-1.559334 2.855628,-1.559334 0.485142,0.351435 c 2.921583,2.116383 6.873137,-0.916178 5.695022,-4.370558 -0.30621,-0.897846 -1.285264,-1.871062 -2.247586,-2.234183 -1.454868,-0.548977 -3.024678,-0.146798 -4.101386,1.05076 -0.66162,0.735881 -0.962757,1.557047 -0.958625,2.614062 l 0.0031,0.78322 -2.872629,1.562632 -2.87263,1.562631 -0.376763,-0.351904 C 37.050806,40.404156 36.57333,40.111975 35.768485,39.809546 l -0.744862,-0.279889 -0.03237,-1.892466 -0.03237,-1.892467 0.521658,-0.230755 c 0.705219,-0.311951 1.44768,-1.081388 1.821839,-1.88803 0.420566,-0.90669 0.434366,-2.279932 0.03126,-3.111342 -0.373711,-0.770796 -1.08718,-1.469884 -1.878964,-1.841088 -0.557644,-0.261435 -0.831131,-0.31266 -1.669267,-0.31266 -0.890649,0 -1.07274,0.03898 -1.633892,0.3498 -2.738828,1.517005 -2.662941,5.452149 0.130355,6.759523 l 0.560141,0.262169 v 1.886187 c 0,1.729154 -0.01746,1.886189 -0.209694,1.886189 -0.370752,0 -1.837338,0.77927 -2.389075,1.269434 l -0.535089,0.475375 -2.86875,-1.566418 -2.86875,-1.566417 -0.0201,-0.927449 c -0.01431,-0.660478 -0.09226,-1.086167 -0.270794,-1.478826 -0.982752,-2.161438 -3.708674,-2.929625 -5.649566,-1.592091 -2.41154,1.661875 -2.052542,5.365653 0.640156,6.604475 0.427266,0.19657 0.776999,0.25361 1.553735,0.253406 1.027093,-2.69e-4 1.579558,-0.18256 2.330836,-0.769077 0.263391,-0.205629 0.307445,-0.186542 3.125,1.353946 2.776103,1.517825 2.856955,1.572318 2.826802,1.905201 -0.09905,1.093531 -0.038,2.425251 0.14275,3.113913 0.498633,1.899776 2.141934,3.35383 4.325892,3.827712 0.997728,0.216491 1.241264,0.215695 1.997363,-0.0065 z M 34.385493,23.955097 c 0.273186,-0.337483 0.287612,-0.700529 0.04178,-1.051499 L 34.243699,22.641509 H 28.7467 c -4.94953,0 -5.518478,0.01944 -5.712653,0.195164 -0.219017,0.198208 -0.288453,0.804914 -0.122076,1.066651 0.218617,0.343917 0.781488,0.377346 5.960547,0.354001 l 5.287617,-0.02383 z m 11.616901,-6.592516 c 0.07136,-0.04765 0.195205,-0.210851 0.275205,-0.362667 0.195887,-0.371738 -0.022,-0.897113 -0.444555,-1.071913 -0.223173,-0.09232 -3.553366,-0.120869 -11.49705,-0.09856 -10.914737,0.03066 -11.186888,0.0369 -11.350236,0.260315 -0.225457,0.308367 -0.211535,0.882956 0.0278,1.147421 0.186514,0.206095 0.697393,0.215573 11.527123,0.213848 6.232576,-9.93e-4 11.390346,-0.04079 11.461711,-0.08844 z m 0.0975,-6.580733 C 46.543046,10.338693 46.418333,9.6414336 45.857795,9.4283175 45.40512,9.2562111 23.581366,9.2787045 23.252861,9.451616 c -0.348777,0.1835819 -0.430536,0.3290698 -0.432659,0.769914 -0.0038,0.797989 -0.830667,0.745451 11.731685,0.745451 10.168039,0 11.382337,-0.01947 11.548003,-0.185133 z"
   id="path35" /><path
   style="fill:#ececec;fill-opacity:1;stroke:#ffffff;stroke-width:0.0891398;stroke-linecap:round;stroke-linejoin:round"
   d="M 59.728774,10.790094 V 5.5424528 h 1.591981 1.591981 v 5.2476412 5.247642 h -1.591981 -1.591981 z"
   id="path36" /><path
   style="fill:#ececec;fill-opacity:1;stroke:#ffffff;stroke-width:0.0891398;stroke-linecap:round;stroke-linejoin:round"
   d="m 59.728774,23.17217 v -5.247642 h 1.533018 1.533019 v 5.247642 5.247641 h -1.533019 -1.533018 z"
   id="path37" /><path
   style="fill:#ececec;fill-opacity:1;stroke:#ffffff;stroke-width:0.0891398;stroke-linecap:round;stroke-linejoin:round"
   d="m 59.728774,35.613208 v -5.18868 h 1.533018 1.533019 v 5.18868 5.188679 h -1.533019 -1.533018 z"
   id="path38" /><path
   style="fill:#ececec;fill-opacity:1;stroke:#ffffff;stroke-width:0.0891398;stroke-linecap:round;stroke-linejoin:round"
   d="m 59.728774,48.054245 v -5.247641 h 1.533018 1.533019 v 5.247641 5.247642 h -1.533019 -1.533018 z"
   id="path39" /><path
   style="fill:#eeeeee;fill-opacity:1;stroke:#ffffff;stroke-width:0.0891398;stroke-linecap:round;stroke-linejoin:round"
   d="m 59.728774,60.436321 v -5.247642 h 1.533018 1.533019 v 5.247642 5.247641 h -1.533019 -1.533018 z"
   id="path40" /><path
   style="fill:#ececec;fill-opacity:1;stroke:#ffffff;stroke-width:0.0891398;stroke-linecap:round;stroke-linejoin:round"
   d="m 59.846698,48.054245 v -5.129717 h 1.415094 1.415095 v 5.129717 5.129717 h -1.415095 -1.415094 z"
   id="path41" /><path
   style="fill:#ececec;fill-opacity:1;stroke:#ffffff;stroke-width:0.0891398;stroke-linecap:round;stroke-linejoin:round"
   d="m 59.964623,48.054245 v -5.011792 h 1.297169 1.29717 v 5.011792 5.011793 h -1.29717 -1.297169 z"
   id="path42" /><path
   style="fill:#ececec;fill-opacity:1;stroke:#ffffff;stroke-width:0.0891398;stroke-linecap:round;stroke-linejoin:round"
   d="m 62.14143,60.436321 c 2.6e-5,-2.853774 0.01541,-4.004353 0.03418,-2.556843 0.01877,1.44751 0.01875,3.782415 -4.9e-5,5.188679 -0.0188,1.406264 -0.03416,0.221937 -0.03413,-2.631836 z"
   id="path43" /><path
   style="fill:#ececec;fill-opacity:1;stroke:#ffffff;stroke-width:0.0891398;stroke-linecap:round;stroke-linejoin:round"
   d="m 60.082547,48.054245 v -4.893868 h 1.179245 1.179246 v 4.893868 4.893868 h -1.179246 -1.179245 z"
   id="path44" /><path
   style="fill:#ececec;fill-opacity:1;stroke:#ffffff;stroke-width:0.0891398;stroke-linecap:round;stroke-linejoin:round"
   d="m 59.846698,35.613208 v -5.070755 h 1.415094 1.415095 v 5.070755 5.070754 h -1.415095 -1.415094 z"
   id="path45" /><path
   style="fill:#ececec;fill-opacity:1;stroke:#ffffff;stroke-width:0.0891398;stroke-linecap:round;stroke-linejoin:round"
   d="m 59.846698,23.17217 v -5.129717 h 1.415094 1.415095 v 5.129717 5.129717 h -1.415095 -1.415094 z"
   id="path46" /><path
   style="fill:#e3e3e3;fill-opacity:1;stroke:#ffffff;stroke-width:0.0891398;stroke-linecap:round;stroke-linejoin:round"
   d="M 59.846698,10.790094 V 5.6603774 h 1.474057 1.474056 v 5.1297166 5.129717 h -1.474056 -1.474057 z"
   id="path47" /><path
   style="fill:url(#linearGradient49);fill-opacity:1;stroke:#ffffff;stroke-width:0.0891398;stroke-linecap:round;stroke-linejoin:round"
   d="M 10.790094,35.377358 V 3.0660377 H 34.198113 57.606132 V 35.377358 67.688679 H 34.198113 10.790094 Z m 15.592374,28.799791 c 0.335185,-0.335348 0.364716,-1.127904 0.05939,-1.593892 L 26.23277,62.264151 h -5.010807 -5.010807 l -0.240309,0.383255 c -0.303176,0.483515 -0.240743,1.172278 0.143316,1.58109 l 0.272647,0.29022 4.863591,-0.03648 4.863592,-0.03648 z m 12.617925,0 c 0.335185,-0.335348 0.364715,-1.127904 0.05939,-1.593892 L 38.850695,62.264151 H 33.839888 28.82908 l -0.240309,0.383255 c -0.303175,0.483515 -0.240743,1.172278 0.143316,1.58109 l 0.272648,0.29022 4.86359,-0.03648 4.863592,-0.03648 z m 12.497441,0.167243 c 0.459383,-0.220643 0.536649,-1.205392 0.142404,-1.814911 l -0.171619,-0.26533 h -5.010807 -5.010807 l -0.240309,0.383255 c -0.303176,0.483515 -0.240743,1.172278 0.143316,1.58109 l 0.272647,0.29022 4.837256,-0.03897 c 2.660489,-0.02143 4.927553,-0.08234 5.037919,-0.135352 z M 26.43992,61.594228 c 0.285137,-0.435174 0.286262,-1.64197 0.0019,-2.076541 L 26.23277,59.198113 H 21.226415 16.22006 l -0.209087,0.319106 c -0.149001,0.227405 -0.209086,0.552334 -0.209086,1.130702 0,1.342608 -0.3488,1.262456 5.493836,1.262456 h 4.937047 z m 12.617924,0 c 0.285137,-0.435174 0.286262,-1.64197 0.0019,-2.076541 L 38.850695,59.198113 H 33.84434 28.837985 l -0.209088,0.319106 c -0.149001,0.227405 -0.209086,0.552334 -0.209086,1.130702 0,1.342608 -0.348799,1.262456 5.493836,1.262456 h 4.937048 z m 12.617925,0 c 0.285137,-0.435174 0.286262,-1.64197 0.0019,-2.076541 l -0.209087,-0.319574 h -5.006355 -5.006355 l -0.209087,0.319106 c -0.149001,0.227405 -0.209086,0.552334 -0.209086,1.130702 0,1.342608 -0.3488,1.262456 5.493836,1.262456 h 4.937047 z M 26.402401,58.570362 c 0.336186,-0.450344 0.361303,-2.099678 0.03946,-2.590879 L 26.23277,55.660377 H 21.226415 16.22006 l -0.200286,0.305675 c -0.225654,0.344391 -0.343786,1.364229 -0.228937,1.976424 0.04192,0.223432 0.185255,0.544866 0.318531,0.7143 l 0.24232,0.30806 4.901086,-0.03077 4.901086,-0.03077 z m 12.617924,0 c 0.336187,-0.450344 0.361304,-2.099678 0.03946,-2.590879 l -0.20909,-0.319106 H 33.84434 28.837985 l -0.200286,0.305675 c -0.225654,0.344391 -0.343786,1.364229 -0.228937,1.976424 0.04191,0.223432 0.185255,0.544866 0.31853,0.7143 l 0.242321,0.30806 4.901085,-0.03077 4.901086,-0.03077 z m 12.617925,0 c 0.336186,-0.450344 0.361303,-2.099678 0.03946,-2.590879 l -0.209087,-0.319106 h -5.006355 -5.006355 l -0.200285,0.305675 c -0.225655,0.344391 -0.343787,1.364229 -0.228938,1.976424 0.04192,0.223432 0.185255,0.544866 0.318531,0.7143 l 0.242321,0.30806 4.901085,-0.03077 4.901086,-0.03077 z M 26.441857,54.98708 c 0.167264,-0.255611 0.209086,-0.572171 0.209086,-1.582608 0,-1.174512 -0.02005,-1.284417 -0.285885,-1.567269 l -0.285887,-0.304184 -4.372133,0.007 c -2.404673,0.0039 -4.634022,0.05001 -4.95411,0.102544 -0.848026,0.139177 -1.010161,0.393608 -1.009346,1.583915 7.56e-4,1.103241 0.156685,1.786545 0.446202,1.955324 0.125083,0.07292 2.071235,0.118964 5.122356,0.121187 l 4.92063,0.0036 z m 12.617925,0 c 0.167264,-0.255611 0.209086,-0.572171 0.209086,-1.582608 0,-1.174512 -0.02005,-1.284417 -0.285886,-1.567269 l -0.285886,-0.304184 -4.372133,0.007 c -2.404673,0.0039 -4.634023,0.05001 -4.95411,0.102544 -0.848026,0.139177 -1.010162,0.393608 -1.009346,1.583915 7.56e-4,1.103241 0.156684,1.786545 0.446202,1.955324 0.125082,0.07292 2.071234,0.118964 5.122356,0.121187 l 4.92063,0.0036 z m 12.617924,0 c 0.167265,-0.255611 0.209086,-0.572171 0.209086,-1.582608 0,-1.175963 -0.0198,-1.284156 -0.287084,-1.568546 l -0.287085,-0.30546 -4.888902,0.03076 -4.888901,0.03076 -0.243035,0.325563 c -0.44508,0.596219 -0.412299,2.700149 0.04926,3.161711 0.217295,0.217295 0.446275,0.227349 5.177461,0.227349 h 4.950111 z M 34.762894,50.532176 c 0.919197,-0.23942 2.14275,-0.873539 2.942396,-1.524926 0.486412,-0.396228 0.767558,-0.749883 1.046373,-1.316236 0.367856,-0.747223 0.383639,-0.840085 0.449229,-2.64304 0.03739,-1.027735 0.09451,-1.890335 0.126938,-1.916888 0.03243,-0.02655 1.292895,-0.718789 2.801034,-1.538302 l 2.742073,-1.490023 0.500852,0.329724 c 0.790244,0.520237 1.263798,0.664777 2.151796,0.656776 1.44318,-0.013 2.65514,-0.759844 3.368631,-2.075838 0.375999,-0.693507 0.404954,-0.822802 0.404954,-1.808234 0,-0.953747 -0.03512,-1.124713 -0.346472,-1.68674 -1.00075,-1.806466 -3.169131,-2.58931 -4.915322,-1.774566 -1.46869,0.685266 -2.23423,1.815267 -2.341521,3.456277 l -0.06178,0.944901 -2.122641,1.158614 c -1.167453,0.637237 -2.422738,1.319332 -2.789521,1.515767 l -0.666881,0.357155 -0.646076,-0.526237 c -0.355342,-0.28943 -1.023047,-0.678869 -1.483789,-0.86542 l -0.837714,-0.339185 -0.0015,-1.839402 -0.0015,-1.839401 0.458372,-0.206697 c 0.577371,-0.260359 1.44286,-1.141178 1.801922,-1.83384 0.234446,-0.452266 0.275084,-0.70487 0.275084,-1.709906 0,-1.071405 -0.02938,-1.22922 -0.321263,-1.725734 -0.434043,-0.738336 -1.387407,-1.572342 -2.058919,-1.801149 -0.808502,-0.275484 -2.309515,-0.250529 -2.927583,0.04867 -0.815046,0.394557 -1.435695,1.015213 -1.843439,1.84346 -0.920358,1.86951 -0.206213,4.121384 1.607588,5.069125 l 0.649187,0.339211 1.51e-4,1.768868 1.53e-4,1.768868 -0.913388,0.410681 c -0.502364,0.225873 -1.184845,0.631784 -1.516624,0.902022 l -0.603236,0.491342 -2.69905,-1.471771 c -1.484477,-0.809475 -2.747297,-1.51835 -2.806266,-1.575279 -0.05897,-0.05693 -0.142563,-0.543465 -0.185762,-1.081193 -0.09391,-1.168924 -0.337067,-1.732348 -1.059745,-2.455511 -1.837634,-1.838866 -4.920319,-1.432793 -6.113196,0.805273 -0.723329,1.357102 -0.601834,3.005849 0.310443,4.212883 0.800232,1.058787 1.654654,1.471925 3.0418,1.470801 0.974225,-7.89e-4 1.522395,-0.139563 2.100223,-0.531688 0.237571,-0.161219 0.497598,-0.293126 0.577839,-0.293126 0.151809,0 4.126364,2.13792 5.002621,2.690919 l 0.500968,0.316157 0.0011,1.06132 c 0.0023,2.248617 0.398942,3.420496 1.547372,4.572114 0.775782,0.777934 1.981578,1.4123 3.177421,1.671636 0.977066,0.211891 0.894355,0.211507 1.676572,0.0078 z m -4.484038,-26.238113 3.981686,-0.0016 0.236691,-0.383255 c 0.259037,-0.419437 0.226048,-0.827744 -0.09573,-1.184758 -0.179646,-0.199323 -0.50587,-0.20903 -5.503784,-0.163748 -2.922051,0.02647 -5.443939,0.06875 -5.604196,0.09396 -0.310842,0.04888 -0.588445,0.467813 -0.591318,0.892352 -0.0014,0.202951 0.165008,0.477326 0.38994,0.643041 0.0623,0.0459 2.769854,0.177983 2.969171,0.144844 0.129717,-0.02157 2.027607,-0.03994 4.217535,-0.04082 z m 15.4725,-6.841564 c 0.662356,-0.02961 0.880455,-0.923253 0.347458,-1.423689 l -0.304487,-0.285885 -11.174976,0.02549 c -6.899438,0.01574 -11.290544,0.06943 -11.477041,0.140333 -0.379732,0.144374 -0.523043,0.693447 -0.301888,1.15663 0.145352,0.30442 0.221583,0.33384 1.040287,0.401472 0.665888,0.05501 20.611736,0.04192 21.870647,-0.01435 z m 0.403777,-6.6512 C 46.471939,10.514523 46.485469,9.8699034 46.181073,9.5655073 45.981318,9.3657529 45.67423,9.3343125 43.144517,9.254618 41.596637,9.2058546 36.486498,9.1923586 31.788653,9.224627 l -8.541534,0.05867 -0.273324,0.3177578 c -0.314895,0.3660875 -0.357378,0.9135162 -0.08823,1.1368912 0.104874,0.08704 0.603194,0.175541 1.149765,0.204202 0.530567,0.02782 0.990771,0.07532 1.022675,0.105545 0.03191,0.03023 4.735972,0.0377 10.453483,0.01661 10.028139,-0.037 10.404244,-0.04629 10.643642,-0.262999 z"
   id="path48" /></svg>
