<?xml version="1.0" encoding="UTF-8" standalone="no"?>
<svg
   height="56.929943"
   width="259.98465"
   version="1.1"
   x="0px"
   y="0px"
   viewBox="0 0 259.98464 56.929944"
   style="fill:#000000"
   xml:space="preserve"
   id="svg8"
   sodipodi:docname="bedboss_logo.svg"
   inkscape:version="1.3.2 (1:1.3.2+202311252150+091e20ef0f)"
   xmlns:inkscape="http://www.inkscape.org/namespaces/inkscape"
   xmlns:sodipodi="http://sodipodi.sourceforge.net/DTD/sodipodi-0.dtd"
   xmlns="http://www.w3.org/2000/svg"
   xmlns:svg="http://www.w3.org/2000/svg"
   xmlns:rdf="http://www.w3.org/1999/02/22-rdf-syntax-ns#"
   xmlns:cc="http://creativecommons.org/ns#"
   xmlns:dc="http://purl.org/dc/elements/1.1/"><metadata
   id="metadata14"><rdf:RDF><cc:Work
       rdf:about=""><dc:format>image/svg+xml</dc:format><dc:type
         rdf:resource="http://purl.org/dc/dcmitype/StillImage" /></cc:Work></rdf:RDF></metadata><defs
   id="defs12" /><sodipodi:namedview
   pagecolor="#ffffff"
   bordercolor="#666666"
   borderopacity="1"
   objecttolerance="10"
   gridtolerance="10"
   guidetolerance="10"
   inkscape:pageopacity="0"
   inkscape:pageshadow="2"
   inkscape:window-width="1351"
   inkscape:window-height="1343"
   id="namedview10"
   showgrid="false"
   fit-margin-top="3"
   fit-margin-left="3"
   fit-margin-right="3"
   fit-margin-bottom="3"
   inkscape:zoom="1.3163532"
   inkscape:cx="156.87279"
   inkscape:cy="-17.092677"
   inkscape:current-layer="svg8"
   inkscape:window-x="2409"
   inkscape:window-y="27"
   inkscape:window-maximized="0"
   inkscape:showpageshadow="2"
   inkscape:pagecheckerboard="0"
   inkscape:deskcolor="#d1d1d1"><inkscape:page
     x="0"
     y="0"
     width="259.98465"
     height="56.929943"
     id="page1"
     margin="4"
     bleed="0" /></sodipodi:namedview><style
   type="text/css"
   id="style2">
	.st0{fill:none;}
</style><text
   id="text839"
   y="147.50348"
   x="85.736008"
   style="font-style:normal;font-variant:normal;font-weight:normal;font-stretch:normal;font-size:78.3097px;line-height:1.25;font-family:Uroob;-inkscape-font-specification:Uroob;font-variant-ligatures:normal;font-variant-position:normal;font-variant-caps:normal;font-variant-numeric:normal;font-variant-alternates:normal;font-feature-settings:normal;text-indent:0;text-align:start;text-decoration:none;text-decoration-line:none;text-decoration-style:solid;text-decoration-color:#000000;letter-spacing:0px;word-spacing:0px;text-transform:none;writing-mode:lr-tb;direction:ltr;text-orientation:mixed;dominant-baseline:auto;baseline-shift:baseline;text-anchor:start;white-space:normal;shape-padding:0;opacity:1;vector-effect:none;fill:#008080;fill-opacity:1;stroke:none;stroke-width:7.34153;stroke-linecap:butt;stroke-linejoin:miter;stroke-miterlimit:4;stroke-dasharray:none;stroke-dashoffset:0;stroke-opacity:1"
   xml:space="preserve"><tspan
     style="font-style:normal;font-variant:normal;font-weight:normal;font-stretch:normal;font-family:Uroob;-inkscape-font-specification:Uroob;fill:#008080;fill-opacity:1;stroke-width:7.34153"
     y="147.50348"
     x="85.736008"
     id="tspan837"
     sodipodi:role="line">bedboss</tspan></text>
<path
   d="m 65.641586,16.682644 q 1.91186,-1.147115 4.20609,-1.147115 h 4.20609 q 5.00906,0 7.45624,3.058973 2.44718,3.058973 2.44718,8.259226 v 14.53012 q 0,4.932594 -2.90602,8.106278 -2.90603,3.173684 -7.76215,3.173684 h -2.6766 q -3.05897,0 -5.54439,-1.797147 v 1.797147 h -6.00323 V 4.1790934 h 6.57679 z m 11.77705,24.586493 V 27.350811 q 0,-3.020735 -0.65004,-4.091376 -1.26182,-2.064806 -3.93842,-2.064806 h -4.05314 q -1.9501,0 -2.86779,1.567723 -0.3059,0.497083 -0.26766,1.070641 v 20.380405 q -0.0382,1.758909 2.71484,2.600127 0.68827,0.229423 1.18535,0.229423 h 3.2884 q 3.93842,0 4.43551,-3.403107 0.15295,-1.070641 0.15295,-2.370704 z m 35.063474,3.020735 q -0.11471,5.773811 -4.47375,7.876855 -1.45301,0.688269 -3.32663,0.688269 h -9.062214 q -3.4031,0 -5.62086,-2.447178 -2.25599,-2.447179 -2.25599,-5.888523 V 23.641807 q 0,-3.403107 2.06481,-5.850285 2.0648,-2.447178 5.42967,-2.447178 h 9.712244 q 3.40311,0 5.42968,2.600126 2.02657,2.600127 2.02657,6.079708 v 4.970831 q 0,3.36487 -1.87362,5.773811 -1.87363,2.370704 -5.20026,2.370704 H 94.166506 v 6.920925 q 0,3.058973 3.09721,3.058973 h 5.812054 q 1.30006,0 2.06481,-0.726506 0.80298,-0.764743 0.76474,-2.103044 z M 97.263716,21.271103 q -3.09721,0 -3.09721,3.211921 v 6.9974 h 8.373944 q 1.45301,0 2.44718,-0.80298 1.0324,-0.841218 1.0324,-2.408941 v -3.938427 q 0,-1.605961 -1.0324,-2.332467 -0.99417,-0.726506 -2.44718,-0.726506 z m 32.616304,-5.735574 q 2.29423,0 4.20609,1.147115 V 4.1790934 h 6.57679 V 52.66381 h -6.00324 v -1.797147 q -2.48541,1.797147 -5.54438,1.797147 h -2.67661 q -4.89435,0 -7.76214,-3.173684 -2.90602,-3.173684 -2.90602,-8.106278 v -14.53012 q 0,-8.029803 5.39144,-10.476981 1.87362,-0.841218 4.51198,-0.841218 z m 4.20609,28.677869 V 23.832993 q 0,-1.108878 -1.03241,-1.873621 -1.0324,-0.764743 -2.10304,-0.764743 h -4.05314 q -3.93843,0 -4.43551,3.747241 -0.15295,1.147115 -0.15295,2.408941 v 13.918326 q 0.0382,2.982498 0.65003,3.938427 1.18535,1.835384 3.93843,1.835384 h 3.2884 q 2.10304,0 3.47958,-1.682435 0.42061,-0.535321 0.42061,-1.147115 z m 16.86258,-27.530754 q 1.91186,-1.147115 4.20609,-1.147115 h 4.20609 q 5.00906,0 7.45624,3.058973 2.44718,3.058973 2.44718,8.259226 v 14.53012 q 0,4.932594 -2.90602,8.106278 -2.90603,3.173684 -7.76215,3.173684 h -2.6766 q -3.05897,0 -5.54439,-1.797147 V 52.66381 H 144.3719 V 4.1790934 h 6.57679 z m 11.77705,24.586493 V 27.350811 q 0,-3.020735 -0.65004,-4.091376 -1.26182,-2.064806 -3.93842,-2.064806 h -4.05314 q -1.9501,0 -2.86779,1.567723 -0.3059,0.497083 -0.26766,1.070641 v 20.380405 q -0.0382,1.758909 2.71484,2.600127 0.68827,0.229423 1.18535,0.229423 h 3.2884 q 3.93842,0 4.43551,-3.403107 0.15295,-1.070641 0.15295,-2.370704 z m 33.45751,3.556055 q 0.0382,3.288396 -2.71484,5.544388 -2.75307,2.29423 -6.19442,2.29423 h -4.93259 q -3.47958,0 -6.30913,-2.255992 -2.82955,-2.255993 -2.82955,-5.582626 V 23.33591 q 0,-3.36487 2.82955,-5.620863 2.82955,-2.255992 6.30913,-2.255992 h 4.93259 q 3.36487,0 6.15618,2.255992 2.75308,2.255993 2.75308,5.620863 z m -6.53855,-1.261826 v -18.96563 q 0,-1.453012 -0.84122,-2.447178 -0.80298,-1.032404 -2.37071,-1.032404 h -3.63253 q -1.60596,0 -2.33246,1.032404 -0.72651,0.994166 -0.72651,2.447178 v 18.96563 q 0,1.453012 0.72651,2.485416 0.7265,0.994166 2.33246,0.994166 h 3.63253 q 1.56773,0 2.37071,-0.994166 0.84122,-1.032404 0.84122,-2.485416 z m 27.49252,-19.883322 q 0.0765,-2.141281 -2.63837,-2.141281 h -4.77964 q -3.2884,0.03824 -2.9825,4.473748 0.0765,1.147114 0.0765,2.064806 0,2.867787 2.90603,2.867787 h 6.6915 q 3.44134,0 5.54439,2.447178 2.14128,2.447178 2.14128,5.850285 v 5.12378 q 0,3.517818 -2.29423,6.041471 -2.29423,2.485415 -5.77381,2.485415 h -8.41218 q -3.74724,0 -5.85028,-2.408941 -2.14128,-2.408941 -2.14128,-6.156183 h 6.57679 q -0.0765,1.338301 0.65003,1.911858 0.76474,0.535321 1.98833,0.535321 h 5.54439 q 2.90602,0 2.90602,-2.867787 v -3.823716 q 0,-2.982498 -2.90602,-2.982498 h -6.30913 q -3.47958,0 -5.77381,-2.179518 Q 200.007,32.74225 200.007,29.300906 v -5.582625 q 0,-3.441344 2.14128,-5.888522 2.14128,-2.447178 5.54439,-2.447178 h 8.22099 q 3.51781,0 5.6591,2.332466 2.14128,2.332467 2.14128,5.964997 z m 31.85154,0 q 0.0765,-2.141281 -2.63836,-2.141281 h -4.77965 q -3.28839,0.03824 -2.98249,4.473748 0.0765,1.147114 0.0765,2.064806 0,2.867787 2.90602,2.867787 h 6.69151 q 3.44134,0 5.54438,2.447178 2.14129,2.447178 2.14129,5.850285 v 5.12378 q 0,3.517818 -2.29423,6.041471 -2.29423,2.485415 -5.77381,2.485415 h -8.41218 q -3.74724,0 -5.85028,-2.408941 -2.14129,-2.408941 -2.14129,-6.156183 h 6.5768 q -0.0765,1.338301 0.65003,1.911858 0.76474,0.535321 1.98833,0.535321 h 5.54439 q 2.90602,0 2.90602,-2.867787 v -3.823716 q 0,-2.982498 -2.90602,-2.982498 h -6.30913 q -3.47959,0 -5.77381,-2.179518 -2.29423,-2.179519 -2.29423,-5.620863 v -5.582625 q 0,-3.441344 2.14128,-5.888522 2.14128,-2.447178 5.54438,-2.447178 h 8.22099 q 3.51782,0 5.6591,2.332466 2.14128,2.332467 2.14128,5.964997 z"
   id="text1"
   style="font-size:78.3097px;line-height:1.25;font-family:Uroob;-inkscape-font-specification:Uroob;letter-spacing:0px;word-spacing:0px;baseline-shift:baseline;fill:#552200;stroke:#cccccc;stroke-width:0.0734153"
   aria-label="bedboss" /><g
   id="g4"
   transform="matrix(0.55901989,0,0,0.55901989,0.37137088,0.3713706)"
   style="fill:#552200;fill-opacity:1;stroke:#cccccc;stroke-width:0.0178885;stroke-dasharray:none"><path
     d="M 50,6.5 C 25.976,6.5 6.5,25.976 6.5,50 6.5,74.024 25.976,93.5 50,93.5 74.024,93.5 93.5,74.024 93.5,50 93.5,25.976 74.024,6.5 50,6.5 Z m 0,84 C 27.668,90.5 9.5,72.332 9.5,50 9.5,27.668 27.668,9.5 50,9.5 72.332,9.5 90.5,27.668 90.5,50 90.5,72.332 72.332,90.5 50,90.5 Z"
     id="path1"
     style="fill:#552200;fill-opacity:1;stroke:#cccccc;stroke-width:0.0178885;stroke-dasharray:none" /><path
     fill="#000000"
     d="m 29.027,68.404 c 0,0 0.601,0.356 1.653,0.979 0.536,0.302 1.143,0.689 1.984,1.059 0.815,0.366 1.729,0.865 2.761,1.233 1.036,0.364 2.126,0.858 3.368,1.148 0.614,0.167 1.245,0.339 1.89,0.514 0.662,0.119 1.339,0.24 2.027,0.363 0.686,0.14 1.398,0.205 2.122,0.259 0.724,0.042 1.451,0.172 2.197,0.125 0.744,-0.015 1.493,-0.029 2.246,-0.044 0.75,-0.082 1.504,-0.164 2.257,-0.247 0.758,-0.058 1.488,-0.294 2.229,-0.435 l 1.102,-0.252 1.069,-0.34 c 1.442,-0.397 2.758,-1.043 4.049,-1.607 1.23,-0.676 2.45,-1.287 3.478,-2.045 0.525,-0.363 1.046,-0.701 1.527,-1.055 0.46,-0.379 0.904,-0.745 1.331,-1.096 0.875,-0.676 1.571,-1.403 2.208,-2.023 0.314,-0.313 0.62,-0.595 0.88,-0.876 0.252,-0.288 0.483,-0.553 0.691,-0.792 0.818,-0.964 1.285,-1.515 1.285,-1.515 0.572,-0.675 0.488,-1.685 -0.186,-2.257 -0.596,-0.506 -1.454,-0.5 -2.039,-0.027 l -0.085,0.069 c 0,0 -0.526,0.424 -1.445,1.165 -0.446,0.383 -1.002,0.827 -1.661,1.3 -0.655,0.478 -1.367,1.051 -2.204,1.573 -0.411,0.271 -0.838,0.554 -1.281,0.846 -0.455,0.263 -0.927,0.535 -1.411,0.815 -0.948,0.597 -2.039,1.022 -3.108,1.573 -1.12,0.429 -2.263,0.901 -3.469,1.225 l -0.898,0.275 -0.924,0.192 c -0.621,0.107 -1.229,0.298 -1.862,0.343 l -1.882,0.238 c -0.633,0.021 -1.263,0.041 -1.888,0.062 -0.624,0.049 -1.25,-0.04 -1.866,-0.044 -0.617,-0.016 -1.228,-0.04 -1.827,-0.139 -0.601,-0.072 -1.192,-0.143 -1.771,-0.213 -0.577,-0.113 -1.142,-0.223 -1.691,-0.33 -1.107,-0.179 -2.129,-0.52 -3.094,-0.745 -0.964,-0.243 -1.787,-0.564 -2.56,-0.788 -0.752,-0.217 -1.46,-0.508 -2.028,-0.72 -1.148,-0.419 -1.804,-0.659 -1.804,-0.659 -0.833,-0.304 -1.755,0.125 -2.06,0.958 -0.27,0.739 0.039,1.549 0.69,1.935 z"
     id="path2"
     style="fill:#552200;fill-opacity:1;stroke:#cccccc;stroke-width:0.0178885;stroke-dasharray:none" /><path
     d="m 50,29.805 c -13.625,0 -40.5,-3.375 -40.5,0 0,3.375 14.5,18 24.25,18 9.75,0 11.125,-9 16.25,-9 5.125,0 6.5,9 16.25,9 9.75,0 24.25,-14.625 24.25,-18 0,-3.375 -26.875,0 -40.5,0 z"
     id="path3"
     style="fill:#552200;fill-opacity:1;stroke:#cccccc;stroke-width:0.0178885;stroke-dasharray:none" /></g></svg>
