<?xml version="1.0" encoding="UTF-8" standalone="no"?>
<svg
   height="77.000793"
   width="357.60278"
   version="1.1"
   x="0px"
   y="0px"
   viewBox="0 0 357.60278 77.000795"
   style="fill:#000000"
   xml:space="preserve"
   id="svg8"
   sodipodi:docname="bedbase_logo.svg"
   inkscape:version="1.3.2 (1:1.3.2+202311252150+091e20ef0f)"
   xmlns:inkscape="http://www.inkscape.org/namespaces/inkscape"
   xmlns:sodipodi="http://sodipodi.sourceforge.net/DTD/sodipodi-0.dtd"
   xmlns="http://www.w3.org/2000/svg"
   xmlns:svg="http://www.w3.org/2000/svg"
   xmlns:rdf="http://www.w3.org/1999/02/22-rdf-syntax-ns#"
   xmlns:cc="http://creativecommons.org/ns#"
   xmlns:dc="http://purl.org/dc/elements/1.1/"><metadata
   id="metadata14"><rdf:RDF><cc:Work
       rdf:about=""><dc:format>image/svg+xml</dc:format><dc:type
         rdf:resource="http://purl.org/dc/dcmitype/StillImage" /><dc:title /></cc:Work></rdf:RDF></metadata><defs
   id="defs12" /><sodipodi:namedview
   pagecolor="#ffffff"
   bordercolor="#666666"
   borderopacity="1"
   objecttolerance="10"
   gridtolerance="10"
   guidetolerance="10"
   inkscape:pageopacity="0"
   inkscape:pageshadow="2"
   inkscape:window-width="2492"
   inkscape:window-height="1376"
   id="namedview10"
   showgrid="false"
   fit-margin-top="3"
   fit-margin-left="3"
   fit-margin-right="3"
   fit-margin-bottom="3"
   inkscape:zoom="2.12"
   inkscape:cx="140.56604"
   inkscape:cy="15.09434"
   inkscape:current-layer="svg8"
   inkscape:window-x="1441"
   inkscape:window-y="27"
   inkscape:window-maximized="1"
   inkscape:showpageshadow="0"
   inkscape:pagecheckerboard="0"
   inkscape:deskcolor="#d1d1d1" /><style
   type="text/css"
   id="style2">
	.st0{fill:none;}
</style><path
   d="m 47.903923,39.497965 c 0.574382,-2.43312 0.9,-5.1 0,-7.5 l 12.3,-6.7 c 1.2,1.2 2.7,2 4.6,2.2 h 0.5 c 1.7,0 3.3,-0.6 4.5,-1.7 1.4,-1.2 2.2,-2.9 2.4,-4.7 0.1,-1.8 -0.5,-3.6 -1.7,-5 -1.2,-1.4 -2.9,-2.2 -4.7,-2.4 -3.8,-0.3 -7.1,2.6 -7.4,6.4 v 0 c -0.1,0.9 0,1.7 0.3,2.5 l -12.3,6.7 c -0.6,-0.8 -1.4,-1.5 -2.3,-2.1 -1.3,-0.9 -2.8,-1.4 -4.2,-1.7 v -8.3 c 1.7,-0.4 3.2,-1.4 4.2,-2.9 1,-1.5 1.4,-3.4 1.1,-5.1999996 -0.3,-1.8 -1.4,-3.4 -2.9,-4.4 -1.5,-1 -3.4,-1.4 -5.2,-1.1 -1.8,0.3 -3.4,1.4 -4.4,2.9 -2.1,3.2 -1.3,7.4999996 1.9,9.5999996 0.7,0.5 1.5,0.8 2.3,1 v 8.3 c -2.5,0.4 -4.8,1.7 -6.5,3.8 l -12.3,-6.7 c 0.5,-1.6 0.4,-3.4 -0.4,-5 -0.8,-1.7 -2.2,-2.9 -4,-3.5 -1.8,-0.6 -3.599999,-0.5 -5.2999986,0.3 -3.4,1.7 -4.9,5.8 -3.2,9.3 1.2,2.5 3.7,3.9 6.2999986,3.9 1,0 2,-0.2 3,-0.7 0.8,-0.4 1.5,-0.9 2,-1.5 l 12.3,6.7 c -1,2.5 -0.627103,5.07993 0,7.5 0.258257,0.99665 0.861495,1.89234 1.5,2.7 0.643837,0.8144 1.4,1.5 2.3,2.1 1.3,0.9 2.722195,1.38823 4.2,1.7 1.044202,0.2203 2.165698,0.36288 3.2,0.1 2.432421,-0.61824 4.784287,-1.96827 6.5,-3.8 0.713353,-0.76159 1.160253,-1.78442 1.4,-2.8 z m 13.6,-19.1 v 0 c 0.1,-2.1 2,-3.6 4,-3.5 1,0.1 1.9,0.5 2.6,1.3 0.7,0.8 1,1.7 0.9,2.7 -0.1,1 -0.5,1.9 -1.3,2.6 -0.8,0.7 -1.7,1 -2.7,0.9 -2.1,-0.1 -3.6,-1.9 -3.5,-4 z m -48.5,3.6 c -1.9,0.9 -4.0999986,0.1 -4.9999986,-1.7 -0.9,-1.9 -0.1,-4.1 1.7,-5 0.4999996,-0.3 1.0999986,-0.4 1.5999986,-0.4 0.4,0 0.8,0.1 1.2,0.2 1,0.3 1.7,1 2.2,1.9 0.9,1.9 0.1,4.1 -1.7,5 z m 22.2,-15.5999996 c 0.6,-0.8 1.4,-1.4 2.4,-1.6 0.2,0 0.5,-0.1 0.7,-0.1 0.7,0 1.5,0.2 2.1,0.7 1.7,1.2 2.2,3.4999996 1,5.1999996 -0.6,0.8 -1.4,1.4 -2.4,1.6 -1,0.2 -2,0 -2.8,-0.6 -1.7,-1.2 -2.2,-3.5 -1,-5.1999996 z m -0.9,33.3999996 c -3.3,-2.2 -4.2,-6.7 -1.9,-10 2.2,-3.3 6.7,-4.2 10,-1.9 3.3,2.2 4.2,6.7 1.9,10 -2.3,3.2 -6.8,4.1 -10,1.9 z"
   id="path6"
   inkscape:connector-curvature="0"
   sodipodi:nodetypes="acccsccsccccccccsssscccccccsccssccaacaaaacccssscccccscccccsccsccccccc"
   style="fill:#6dbdbd;stroke:#008080;fill-opacity:1;stroke-width:1;stroke-dasharray:none" /><rect
   style="color:#000000;clip-rule:nonzero;display:inline;overflow:visible;visibility:visible;opacity:1;isolation:auto;mix-blend-mode:normal;color-interpolation:sRGB;color-interpolation-filters:linearRGB;solid-color:#000000;solid-opacity:1;fill:#6dbdbd;fill-opacity:1;fill-rule:nonzero;stroke:#008080;stroke-width:1;stroke-linecap:butt;stroke-linejoin:miter;stroke-miterlimit:4;stroke-dasharray:none;stroke-dashoffset:0;stroke-opacity:1;marker:none;paint-order:markers stroke fill;color-rendering:auto;image-rendering:auto;shape-rendering:auto;text-rendering:auto;enable-background:accumulate"
   id="rect883"
   width="20"
   height="5"
   x="3.5"
   y="57.500793"
   rx="1"
   ry="1" /><rect
   ry="1"
   rx="1.0000001"
   y="64.500778"
   x="3.5"
   height="4"
   width="20"
   id="rect885"
   style="color:#000000;clip-rule:nonzero;display:inline;overflow:visible;visibility:visible;opacity:1;isolation:auto;mix-blend-mode:normal;color-interpolation:sRGB;color-interpolation-filters:linearRGB;solid-color:#000000;solid-opacity:1;fill:#6dbdbd;fill-opacity:1;fill-rule:nonzero;stroke:#008080;stroke-width:1;stroke-linecap:butt;stroke-linejoin:miter;stroke-miterlimit:4;stroke-dasharray:none;stroke-dashoffset:0;stroke-opacity:1;marker:none;paint-order:markers stroke fill;color-rendering:auto;image-rendering:auto;shape-rendering:auto;text-rendering:auto;enable-background:accumulate" /><rect
   style="color:#000000;clip-rule:nonzero;display:inline;overflow:visible;visibility:visible;opacity:1;isolation:auto;mix-blend-mode:normal;color-interpolation:sRGB;color-interpolation-filters:linearRGB;solid-color:#000000;solid-opacity:1;fill:#6dbdbd;fill-opacity:1;fill-rule:nonzero;stroke:#008080;stroke-width:1;stroke-linecap:butt;stroke-linejoin:miter;stroke-miterlimit:4;stroke-dasharray:none;stroke-dashoffset:0;stroke-opacity:1;marker:none;paint-order:markers stroke fill;color-rendering:auto;image-rendering:auto;shape-rendering:auto;text-rendering:auto;enable-background:accumulate"
   id="rect887"
   width="20"
   height="3"
   x="3.5"
   y="70.500793"
   rx="1"
   ry="1" /><rect
   ry="1"
   rx="1"
   y="57.500793"
   x="53.214676"
   height="5"
   width="20"
   id="rect963"
   style="color:#000000;clip-rule:nonzero;display:inline;overflow:visible;visibility:visible;opacity:1;isolation:auto;mix-blend-mode:normal;color-interpolation:sRGB;color-interpolation-filters:linearRGB;solid-color:#000000;solid-opacity:1;fill:#6dbdbd;fill-opacity:1;fill-rule:nonzero;stroke:#008080;stroke-width:1;stroke-linecap:butt;stroke-linejoin:miter;stroke-miterlimit:4;stroke-dasharray:none;stroke-dashoffset:0;stroke-opacity:1;marker:none;paint-order:markers stroke fill;color-rendering:auto;image-rendering:auto;shape-rendering:auto;text-rendering:auto;enable-background:accumulate" /><rect
   style="color:#000000;clip-rule:nonzero;display:inline;overflow:visible;visibility:visible;opacity:1;isolation:auto;mix-blend-mode:normal;color-interpolation:sRGB;color-interpolation-filters:linearRGB;solid-color:#000000;solid-opacity:1;fill:#6dbdbd;fill-opacity:1;fill-rule:nonzero;stroke:#008080;stroke-width:1;stroke-linecap:butt;stroke-linejoin:miter;stroke-miterlimit:4;stroke-dasharray:none;stroke-dashoffset:0;stroke-opacity:1;marker:none;paint-order:markers stroke fill;color-rendering:auto;image-rendering:auto;shape-rendering:auto;text-rendering:auto;enable-background:accumulate"
   id="rect965"
   width="20"
   height="4"
   x="53.214676"
   y="64.500778"
   rx="1.0000001"
   ry="1" /><rect
   ry="1"
   rx="1"
   y="70.500793"
   x="53.214676"
   height="3"
   width="20"
   id="rect967"
   style="color:#000000;clip-rule:nonzero;display:inline;overflow:visible;visibility:visible;opacity:1;isolation:auto;mix-blend-mode:normal;color-interpolation:sRGB;color-interpolation-filters:linearRGB;solid-color:#000000;solid-opacity:1;fill:#6dbdbd;fill-opacity:1;fill-rule:nonzero;stroke:#008080;stroke-width:1;stroke-linecap:butt;stroke-linejoin:miter;stroke-miterlimit:4;stroke-dasharray:none;stroke-dashoffset:0;stroke-opacity:1;marker:none;paint-order:markers stroke fill;color-rendering:auto;image-rendering:auto;shape-rendering:auto;text-rendering:auto;enable-background:accumulate" /><rect
   style="color:#000000;clip-rule:nonzero;display:inline;overflow:visible;visibility:visible;opacity:1;isolation:auto;mix-blend-mode:normal;color-interpolation:sRGB;color-interpolation-filters:linearRGB;solid-color:#000000;solid-opacity:1;fill:#6dbdbd;fill-opacity:1;fill-rule:nonzero;stroke:#008080;stroke-width:1;stroke-linecap:butt;stroke-linejoin:miter;stroke-miterlimit:4;stroke-dasharray:none;stroke-dashoffset:0;stroke-opacity:1;marker:none;paint-order:markers stroke fill;color-rendering:auto;image-rendering:auto;shape-rendering:auto;text-rendering:auto;enable-background:accumulate"
   id="rect973"
   width="20"
   height="5"
   x="28.357338"
   y="57.500793"
   rx="1"
   ry="1" /><rect
   ry="1"
   rx="1.0000001"
   y="64.500778"
   x="28.357338"
   height="4"
   width="20"
   id="rect975"
   style="color:#000000;clip-rule:nonzero;display:inline;overflow:visible;visibility:visible;opacity:1;isolation:auto;mix-blend-mode:normal;color-interpolation:sRGB;color-interpolation-filters:linearRGB;solid-color:#000000;solid-opacity:1;fill:#6dbdbd;fill-opacity:1;fill-rule:nonzero;stroke:#008080;stroke-width:1;stroke-linecap:butt;stroke-linejoin:miter;stroke-miterlimit:4;stroke-dasharray:none;stroke-dashoffset:0;stroke-opacity:1;marker:none;paint-order:markers stroke fill;color-rendering:auto;image-rendering:auto;shape-rendering:auto;text-rendering:auto;enable-background:accumulate" /><rect
   style="color:#000000;clip-rule:nonzero;display:inline;overflow:visible;visibility:visible;opacity:1;isolation:auto;mix-blend-mode:normal;color-interpolation:sRGB;color-interpolation-filters:linearRGB;solid-color:#000000;solid-opacity:1;fill:#6dbdbd;fill-opacity:1;fill-rule:nonzero;stroke:#008080;stroke-width:1;stroke-linecap:butt;stroke-linejoin:miter;stroke-miterlimit:4;stroke-dasharray:none;stroke-dashoffset:0;stroke-opacity:1;marker:none;paint-order:markers stroke fill;color-rendering:auto;image-rendering:auto;shape-rendering:auto;text-rendering:auto;enable-background:accumulate"
   id="rect977"
   width="20"
   height="3"
   x="28.357338"
   y="70.500793"
   rx="1"
   ry="1" /><rect
   ry="1"
   rx="1"
   y="49.500793"
   x="3.5"
   height="6"
   width="20"
   id="rect995"
   style="color:#000000;clip-rule:nonzero;display:inline;overflow:visible;visibility:visible;opacity:1;isolation:auto;mix-blend-mode:normal;color-interpolation:sRGB;color-interpolation-filters:linearRGB;solid-color:#000000;solid-opacity:1;fill:#6dbdbd;fill-opacity:1;fill-rule:nonzero;stroke:#008080;stroke-width:1;stroke-linecap:butt;stroke-linejoin:miter;stroke-miterlimit:4;stroke-dasharray:none;stroke-dashoffset:0;stroke-opacity:1;marker:none;paint-order:markers stroke fill;color-rendering:auto;image-rendering:auto;shape-rendering:auto;text-rendering:auto;enable-background:accumulate" /><rect
   style="color:#000000;clip-rule:nonzero;display:inline;overflow:visible;visibility:visible;opacity:1;isolation:auto;mix-blend-mode:normal;color-interpolation:sRGB;color-interpolation-filters:linearRGB;solid-color:#000000;solid-opacity:1;fill:#6dbdbd;fill-opacity:1;fill-rule:nonzero;stroke:#008080;stroke-width:1;stroke-linecap:butt;stroke-linejoin:miter;stroke-miterlimit:4;stroke-dasharray:none;stroke-dashoffset:0;stroke-opacity:1;marker:none;paint-order:markers stroke fill;color-rendering:auto;image-rendering:auto;shape-rendering:auto;text-rendering:auto;enable-background:accumulate"
   id="rect997"
   width="20"
   height="6"
   x="53.214676"
   y="49.500793"
   rx="1"
   ry="1" /><rect
   ry="1"
   rx="1"
   y="49.500793"
   x="28.357338"
   height="6"
   width="20"
   id="rect999"
   style="color:#000000;clip-rule:nonzero;display:inline;overflow:visible;visibility:visible;opacity:1;isolation:auto;mix-blend-mode:normal;color-interpolation:sRGB;color-interpolation-filters:linearRGB;solid-color:#000000;solid-opacity:1;fill:#6dbdbd;fill-opacity:1;fill-rule:nonzero;stroke:#008080;stroke-width:1;stroke-linecap:butt;stroke-linejoin:miter;stroke-miterlimit:4;stroke-dasharray:none;stroke-dashoffset:0;stroke-opacity:1;marker:none;paint-order:markers stroke fill;color-rendering:auto;image-rendering:auto;shape-rendering:auto;text-rendering:auto;enable-background:accumulate" /><g
   aria-label="BEDbase"
   style="font-style:normal;font-variant:normal;font-weight:normal;font-stretch:normal;font-size:78.30965424px;line-height:1.25;font-family:sans-serif;-inkscape-font-specification:'sans-serif, Normal';font-variant-ligatures:normal;font-variant-position:normal;font-variant-caps:normal;font-variant-numeric:normal;font-variant-alternates:normal;font-feature-settings:normal;text-indent:0;text-align:start;text-decoration:none;text-decoration-line:none;text-decoration-style:solid;text-decoration-color:#000000;letter-spacing:0px;word-spacing:0px;text-transform:none;writing-mode:lr-tb;direction:ltr;text-orientation:mixed;dominant-baseline:auto;baseline-shift:baseline;text-anchor:start;white-space:normal;shape-padding:0;opacity:1;fill:#6dbdbd;fill-opacity:1;stroke:#008080;stroke-width:1;stroke-linecap:butt;stroke-linejoin:miter;stroke-miterlimit:4;stroke-dasharray:none;stroke-dashoffset:0;stroke-opacity:1"
   id="text835"><path
     d="m 119.43956,54.854476 c 0,-6.421392 -3.68056,-11.43321 -9.86702,-13.156022 3.44562,-2.505909 5.16844,-5.951534 5.16844,-10.180255 0,-4.072102 -1.64451,-8.222514 -4.8552,-10.885042 -3.28901,-2.740838 -7.67435,-3.289006 -11.82476,-3.289006 h -9.397158 v 52.23254 h 12.999398 c 4.69858,0 8.77069,-0.548168 12.52955,-3.602244 3.36731,-2.740838 5.24675,-6.734631 5.24675,-11.119971 z M 109.02437,31.596508 c 0,2.505909 -0.78309,5.168438 -2.74084,6.81294 -2.19267,1.879432 -4.77689,1.957742 -7.439413,1.957742 H 94.458776 V 22.825827 h 4.54196 c 5.951534,0 10.023634,2.27098 10.023634,8.770681 z m 4.62027,23.101348 c 0,2.740838 -1.17464,5.481676 -3.36731,7.204489 -2.50591,2.036051 -5.40337,2.27098 -8.53576,2.27098 H 94.458776 V 45.379008 h 5.951534 c 2.89746,0 6.26477,0.07831 8.84899,1.566193 2.74084,1.566193 4.38534,4.620269 4.38534,7.752655 z"
     style="font-style:normal;font-variant:normal;font-weight:bold;font-stretch:normal;font-family:'FuturaEF Book';-inkscape-font-specification:'FuturaEF Book,  Bold';fill:#6dbdbd;fill-opacity:1;stroke-width:1;stroke:#008080;stroke-dasharray:none"
     id="path841" /><path
     d="M 157.18471,69.576691 V 64.173325 H 135.9628 v -20.43882 h 20.67375 V 38.331139 H 135.9628 V 22.825827 h 21.22191 v -5.481676 h -27.01683 v 52.23254 z"
     style="font-style:normal;font-variant:normal;font-weight:bold;font-stretch:normal;font-family:'FuturaEF Book';-inkscape-font-specification:'FuturaEF Book,  Bold';fill:#6dbdbd;fill-opacity:1;stroke-width:1;stroke:#008080;stroke-dasharray:none"
     id="path843" /><path
     d="m 206.7546,43.499576 c 0,-7.830966 -2.89745,-14.957144 -8.9273,-20.047272 -5.7166,-4.776889 -11.98137,-6.108153 -19.26417,-6.108153 h -10.65012 v 52.23254 h 10.57181 c 7.36111,0 13.31264,-1.174645 19.10755,-6.029844 6.18647,-5.168437 9.16223,-12.059686 9.16223,-20.047271 z m -5.87322,0 c 0,6.108153 -2.4276,11.903067 -7.12618,15.89686 -4.30703,3.680553 -9.39716,4.776889 -14.95714,4.776889 h -5.09013 V 22.825827 h 5.09013 c 12.68616,0 22.08332,7.517727 22.08332,20.673749 z"
     style="font-style:normal;font-variant:normal;font-weight:bold;font-stretch:normal;font-family:'FuturaEF Book';-inkscape-font-specification:'FuturaEF Book,  Bold';fill:#6dbdbd;fill-opacity:1;stroke-width:1;stroke:#008080;stroke-dasharray:none"
     id="path845" /><path
     d="m 248.49361,53.288283 c 0,-9.08392 -6.02985,-16.993195 -15.58362,-16.993195 -4.69858,0 -8.37914,1.801122 -11.3549,5.403366 V 12.488953 h -5.55999 v 57.087738 h 5.55999 v -4.54196 c 2.89745,3.602244 6.65632,5.481676 11.27659,5.481676 9.63208,0 15.66193,-8.065895 15.66193,-17.228124 z m -5.71661,0 c 0,6.343082 -3.91548,12.137996 -10.72842,12.137996 -6.81294,0 -10.80673,-5.638295 -10.80673,-12.059687 0,-6.499701 3.91548,-11.981377 10.80673,-11.981377 6.65632,0 10.72842,5.638295 10.72842,11.903068 z"
     style="font-style:normal;font-variant:normal;font-weight:bold;font-stretch:normal;font-family:'FuturaEF Book';-inkscape-font-specification:'FuturaEF Book,  Bold';fill:#6dbdbd;fill-opacity:1;stroke-width:1;stroke:#008080;stroke-dasharray:none"
     id="path847" /><path
     d="M 287.41336,69.576691 V 37.078184 h -5.55998 v 4.62027 c -3.05408,-3.680554 -6.57801,-5.403366 -11.3549,-5.403366 -9.55378,0 -15.58362,7.752655 -15.58362,16.914885 0,9.162229 5.95153,17.306434 15.66193,17.306434 4.69858,0 8.30082,-1.879432 11.27659,-5.481676 v 4.54196 z m -5.24674,-16.366718 c 0,6.499701 -3.83717,12.216306 -10.80673,12.216306 -6.81294,0 -10.72843,-5.873224 -10.72843,-12.216306 0,-6.264772 4.07211,-11.903068 10.72843,-11.903068 6.81294,0 10.80673,5.481676 10.80673,11.903068 z"
     style="font-style:normal;font-variant:normal;font-weight:bold;font-stretch:normal;font-family:'FuturaEF Book';-inkscape-font-specification:'FuturaEF Book,  Bold';fill:#6dbdbd;fill-opacity:1;stroke-width:1;stroke:#008080;stroke-dasharray:none"
     id="path849" /><path
     d="m 317.95399,59.866294 c 0,-10.650113 -15.03545,-9.16223 -15.03545,-14.878835 0,-2.036051 1.95774,-3.602244 3.91548,-3.602244 2.19267,0 3.60224,1.409574 4.54196,3.210696 l 4.62027,-2.427599 c -1.87943,-3.602244 -4.77689,-5.873224 -8.9273,-5.873224 -5.16844,0 -9.47547,3.758863 -9.47547,9.08392 0,5.716604 4.93351,7.596036 9.39716,9.553777 2.58422,1.096335 5.24675,2.114361 5.24675,5.403366 0,3.054077 -2.34929,5.090128 -5.32506,5.090128 -3.52394,0 -5.24675,-2.34929 -6.57801,-5.246747 l -4.8552,2.036051 c 1.95774,5.168437 5.7166,8.300824 11.3549,8.300824 6.10815,0 11.11997,-4.385341 11.11997,-10.650113 z"
     style="font-style:normal;font-variant:normal;font-weight:bold;font-stretch:normal;font-family:'FuturaEF Book';-inkscape-font-specification:'FuturaEF Book,  Bold';fill:#6dbdbd;fill-opacity:1;stroke-width:1;stroke:#008080;stroke-dasharray:none"
     id="path851" /><path
     d="m 354.60279,54.462927 v -1.096335 c 0,-9.397158 -5.55998,-17.071504 -15.50531,-17.071504 -9.86701,0 -15.74024,7.830965 -15.74024,17.228124 0,9.553777 6.18646,16.993195 16.05348,16.993195 6.81294,0 11.58983,-3.367316 14.87883,-9.24054 l -4.69857,-2.584218 c -2.4276,3.993792 -5.01182,6.73463 -10.02364,6.73463 -6.42139,0 -10.02364,-5.011818 -10.33687,-10.963352 z m -5.87322,-4.698579 h -19.10756 c 0.86141,-4.698579 4.77689,-8.379133 9.63209,-8.379133 5.01182,0 8.53575,3.680554 9.47547,8.379133 z"
     style="font-style:normal;font-variant:normal;font-weight:bold;font-stretch:normal;font-family:'FuturaEF Book';-inkscape-font-specification:'FuturaEF Book,  Bold';fill:#6dbdbd;fill-opacity:1;stroke-width:1;stroke:#008080;stroke-dasharray:none"
     id="path853" /></g>
</svg>
